STARTFONT 2.1
COMMENT 
COMMENT Copyright (C) 2012-2025 Uwe Waldmann
COMMENT 
COMMENT Permission is hereby granted, free of charge, to any person obtaining
COMMENT a copy of this font software and associated files (the "Software"),
COMMENT to deal in the Software without restriction, including without
COMMENT limitation the rights to use, copy, modify, merge, publish,
COMMENT distribute, embed, sublicense, and/or sell copies of the Software,
COMMENT and to permit persons to whom the Software is furnished to do so,
COMMENT subject to the following conditions:
COMMENT 
COMMENT (1) The above copyright notice, this permission notice, and the
COMMENT     disclaimer below shall be included in all copies or substantial
COMMENT     portions of the Software.
COMMENT 
COMMENT (2) If the design of any glyphs in the fonts that are contained in the
COMMENT     Software or generated during the installation process is modified
COMMENT     or if additional glyphs are added to the fonts, the fonts
COMMENT     must be renamed. The new names may not contain the word "UW",
COMMENT     irrespective of capitalisation; the new names may contain the word
COMMENT     "ttyp0", irrespective of capitalisation, only if preceded by a
COMMENT     foundry name different from "UW".
COMMENT 
COMMENT THE SOFTWARE IS PROVIDED "AS IS", WITHOUT WARRANTY OF ANY KIND, EXPRESS
COMMENT OR IMPLIED, INCLUDING BUT NOT LIMITED TO THE WARRANTIES OF
COMMENT MERCHANTABILITY, FITNESS FOR A PARTICULAR PURPOSE AND NONINFRINGEMENT.
COMMENT IN NO EVENT SHALL THE AUTHORS OR COPYRIGHT HOLDERS BE LIABLE FOR ANY
COMMENT CLAIM, DAMAGES OR OTHER LIABILITY, WHETHER IN AN ACTION OF CONTRACT,
COMMENT TORT OR OTHERWISE, ARISING FROM, OUT OF OR IN CONNECTION WITH THE
COMMENT SOFTWARE OR THE USE OR OTHER DEALINGS IN THE SOFTWARE.
COMMENT 
FONT -UW-Ttyp0-Bold-R-Normal--16-150-75-75-C-80-UW-Fontspecific
SIZE 16 75 75
FONTBOUNDINGBOX 8 16 0 -4
STARTPROPERTIES 20
FONTNAME_REGISTRY ""
FOUNDRY "UW"
FAMILY_NAME "Ttyp0"
WEIGHT_NAME "Bold"

STARTCHAR LtCapA
ENCODING 0
SWIDTH 480 0
DWIDTH 8 0
BBX 8 16 0 -4
BITMAP
00
00
10
30
38
38
58
4C
7C
CC
86
86
00
00
00
00
ENDCHAR
STARTCHAR LtCapB
ENCODING 1
SWIDTH 480 0
DWIDTH 8 0
BBX 8 16 0 -4
BITMAP
00
00
FC
C6
C6
C6
FC
C6
C6
C6
C6
FC
00
00
00
00
ENDCHAR
STARTCHAR LtCapC
ENCODING 2
SWIDTH 480 0
DWIDTH 8 0
BBX 8 16 0 -4
BITMAP
00
00
3C
66
C0
C0
C0
C0
C0
C0
66
3C
00
00
00
00
ENDCHAR
STARTCHAR LtCapD
ENCODING 3
SWIDTH 480 0
DWIDTH 8 0
BBX 8 16 0 -4
BITMAP
00
00
F8
CC
C6
C6
C6
C6
C6
C6
CC
F8
00
00
00
00
ENDCHAR
STARTCHAR LtCapE
ENCODING 4
SWIDTH 480 0
DWIDTH 8 0
BBX 8 16 0 -4
BITMAP
00
00
FE
C2
C2
C8
F8
C8
C0
C2
C2
FE
00
00
00
00
ENDCHAR
STARTCHAR LtCapF
ENCODING 5
SWIDTH 480 0
DWIDTH 8 0
BBX 8 16 0 -4
BITMAP
00
00
FE
C2
C2
C8
F8
C8
C0
C0
C0
C0
00
00
00
00
ENDCHAR
STARTCHAR LtCapG
ENCODING 6
SWIDTH 480 0
DWIDTH 8 0
BBX 8 16 0 -4
BITMAP
00
00
3C
66
C0
C0
C0
CE
C6
C6
66
3E
00
00
00
00
ENDCHAR
STARTCHAR LtCapH
ENCODING 7
SWIDTH 480 0
DWIDTH 8 0
BBX 8 16 0 -4
BITMAP
00
00
C6
C6
C6
C6
FE
C6
C6
C6
C6
C6
00
00
00
00
ENDCHAR
STARTCHAR LtCapI
ENCODING 8
SWIDTH 480 0
DWIDTH 8 0
BBX 8 16 0 -4
BITMAP
00
00
7E
18
18
18
18
18
18
18
18
7E
00
00
00
00
ENDCHAR
STARTCHAR LtCapJ
ENCODING 9
SWIDTH 480 0
DWIDTH 8 0
BBX 8 16 0 -4
BITMAP
00
00
1E
0C
0C
0C
0C
0C
0C
CC
CC
78
00
00
00
00
ENDCHAR
STARTCHAR LtCapK
ENCODING 10
SWIDTH 480 0
DWIDTH 8 0
BBX 8 16 0 -4
BITMAP
00
00
C6
C4
CC
C8
D8
F8
CC
CC
C6
C6
00
00
00
00
ENDCHAR
STARTCHAR LtCapL
ENCODING 11
SWIDTH 480 0
DWIDTH 8 0
BBX 8 16 0 -4
BITMAP
00
00
C0
C0
C0
C0
C0
C0
C0
C2
C2
FE
00
00
00
00
ENDCHAR
STARTCHAR LtCapM
ENCODING 12
SWIDTH 480 0
DWIDTH 8 0
BBX 8 16 0 -4
BITMAP
00
00
C6
C6
EE
EE
FE
B6
B6
86
86
86
00
00
00
00
ENDCHAR
STARTCHAR LtCapN
ENCODING 13
SWIDTH 480 0
DWIDTH 8 0
BBX 8 16 0 -4
BITMAP
00
00
C2
E2
E2
B2
B2
9A
9A
8E
8E
86
00
00
00
00
ENDCHAR
STARTCHAR LtCapO
ENCODING 14
SWIDTH 480 0
DWIDTH 8 0
BBX 8 16 0 -4
BITMAP
00
00
7C
C6
C6
C6
C6
C6
C6
C6
C6
7C
00
00
00
00
ENDCHAR
STARTCHAR LtCapP
ENCODING 15
SWIDTH 480 0
DWIDTH 8 0
BBX 8 16 0 -4
BITMAP
00
00
FC
C6
C6
C6
C6
FC
C0
C0
C0
C0
00
00
00
00
ENDCHAR
STARTCHAR LtCapQ
ENCODING 16
SWIDTH 480 0
DWIDTH 8 0
BBX 8 16 0 -4
BITMAP
00
00
7C
C6
C6
C6
C6
C6
C6
F6
DE
7C
06
02
00
00
ENDCHAR
STARTCHAR LtCapR
ENCODING 17
SWIDTH 480 0
DWIDTH 8 0
BBX 8 16 0 -4
BITMAP
00
00
FC
C6
C6
C6
FC
D8
CC
CC
C6
C6
00
00
00
00
ENDCHAR
STARTCHAR LtCapS
ENCODING 18
SWIDTH 480 0
DWIDTH 8 0
BBX 8 16 0 -4
BITMAP
00
00
7C
C6
C0
E0
78
1C
06
06
C6
7C
00
00
00
00
ENDCHAR
STARTCHAR LtCapT
ENCODING 19
SWIDTH 480 0
DWIDTH 8 0
BBX 8 16 0 -4
BITMAP
00
00
FF
99
18
18
18
18
18
18
18
18
00
00
00
00
ENDCHAR
STARTCHAR LtCapU
ENCODING 20
SWIDTH 480 0
DWIDTH 8 0
BBX 8 16 0 -4
BITMAP
00
00
C6
C6
C6
C6
C6
C6
C6
C6
C6
7C
00
00
00
00
ENDCHAR
STARTCHAR LtCapV
ENCODING 21
SWIDTH 480 0
DWIDTH 8 0
BBX 8 16 0 -4
BITMAP
00
00
C2
C2
66
64
64
34
38
38
18
10
00
00
00
00
ENDCHAR
STARTCHAR LtCapW
ENCODING 22
SWIDTH 480 0
DWIDTH 8 0
BBX 8 16 0 -4
BITMAP
00
00
C2
C2
C2
DA
DA
DA
FE
6C
6C
6C
00
00
00
00
ENDCHAR
STARTCHAR LtCapX
ENCODING 23
SWIDTH 480 0
DWIDTH 8 0
BBX 8 16 0 -4
BITMAP
00
00
C6
C6
64
68
38
38
2C
4C
C6
C6
00
00
00
00
ENDCHAR
STARTCHAR LtCapY
ENCODING 24
SWIDTH 480 0
DWIDTH 8 0
BBX 8 16 0 -4
BITMAP
00
00
C3
62
64
34
38
18
18
18
18
18
00
00
00
00
ENDCHAR
STARTCHAR LtCapZ
ENCODING 25
SWIDTH 480 0
DWIDTH 8 0
BBX 8 16 0 -4
BITMAP
00
00
FE
86
8C
1C
18
30
70
62
C2
FE
00
00
00
00
ENDCHAR
STARTCHAR LtCapTone6
ENCODING 26
SWIDTH 480 0
DWIDTH 8 0
BBX 8 16 0 -4
BITMAP
00
00
60
E0
E0
60
7C
66
66
66
66
7C
00
00
00
00
ENDCHAR
STARTCHAR LtCapBet
ENCODING 27
SWIDTH 480 0
DWIDTH 8 0
BBX 8 16 0 -4
BITMAP
00
00
FC
C6
C6
C6
FC
C6
C6
C6
C6
FC
C0
C0
C0
00
ENDCHAR
STARTCHAR LtCapEth
ENCODING 28
SWIDTH 480 0
DWIDTH 8 0
BBX 8 16 0 -4
BITMAP
00
00
F8
CC
C6
C6
F6
E6
C6
C6
CC
F8
00
00
00
00
ENDCHAR
STARTCHAR LtCapEps
ENCODING 29
SWIDTH 480 0
DWIDTH 8 0
BBX 8 16 0 -4
BITMAP
00
00
7C
C6
C0
C0
78
40
C0
C0
C6
7C
00
00
00
00
ENDCHAR
STARTCHAR LtCapSchwa
ENCODING 30
SWIDTH 480 0
DWIDTH 8 0
BBX 8 16 0 -4
BITMAP
00
00
78
6C
46
06
06
FE
C6
C6
6C
38
00
00
00
00
ENDCHAR
STARTCHAR LtCapGam
ENCODING 31
SWIDTH 480 0
DWIDTH 8 0
BBX 8 16 0 -4
BITMAP
00
00
C2
C2
C6
64
6C
38
38
38
4C
4C
4C
6C
38
00
ENDCHAR
STARTCHAR LtCapRamshorn
ENCODING 32
SWIDTH 480 0
DWIDTH 8 0
BBX 8 16 0 -4
BITMAP
00
00
C3
66
34
38
18
18
2C
2C
3C
18
00
00
00
00
ENDCHAR
STARTCHAR LtCapHwair
ENCODING 33
SWIDTH 480 0
DWIDTH 8 0
BBX 8 16 0 -4
BITMAP
00
00
D0
D0
D0
D6
F6
D6
D6
D6
DE
CC
00
00
00
00
ENDCHAR
STARTCHAR LtCapIot
ENCODING 34
SWIDTH 480 0
DWIDTH 8 0
BBX 8 16 0 -4
BITMAP
00
00
F0
60
60
60
60
60
60
66
66
3C
00
00
00
00
ENDCHAR
STARTCHAR LtCapLam
ENCODING 35
SWIDTH 480 0
DWIDTH 8 0
BBX 8 16 0 -4
BITMAP
00
00
18
18
18
18
18
1C
2C
26
46
C3
00
00
00
00
ENDCHAR
STARTCHAR LtCapEng
ENCODING 36
SWIDTH 480 0
DWIDTH 8 0
BBX 8 16 0 -4
BITMAP
00
00
DC
E6
C6
C6
C6
C6
C6
C6
C6
C6
06
36
1C
00
ENDCHAR
STARTCHAR LtCapEngNodesc
ENCODING 37
SWIDTH 480 0
DWIDTH 8 0
BBX 8 16 0 -4
BITMAP
00
00
DC
E6
C6
C6
C6
C6
C6
D6
D6
CC
00
00
00
00
ENDCHAR
STARTCHAR LtCapEngSami
ENCODING 38
SWIDTH 480 0
DWIDTH 8 0
BBX 8 16 0 -4
BITMAP
00
00
C2
E2
E2
B2
B2
9A
9A
8E
8E
86
06
36
1C
00
ENDCHAR
STARTCHAR LtCapOme
ENCODING 39
SWIDTH 480 0
DWIDTH 8 0
BBX 8 16 0 -4
BITMAP
00
00
6C
C6
C6
C6
D6
D6
D6
D6
FE
6C
00
00
00
00
ENDCHAR
STARTCHAR LtCapOi
ENCODING 40
SWIDTH 480 0
DWIDTH 8 0
BBX 8 16 0 -4
BITMAP
00
00
66
FE
DE
D6
D6
D6
D6
D6
F6
66
06
06
06
00
ENDCHAR
STARTCHAR LtCapOu
ENCODING 41
SWIDTH 480 0
DWIDTH 8 0
BBX 8 16 0 -4
BITMAP
00
00
6C
C6
C6
C6
7C
C6
C6
C6
C6
7C
00
00
00
00
ENDCHAR
STARTCHAR LtCapYr
ENCODING 42
SWIDTH 480 0
DWIDTH 8 0
BBX 8 16 0 -4
BITMAP
00
00
C0
C0
FC
C6
C6
C6
FC
D8
CC
CC
06
06
00
00
ENDCHAR
STARTCHAR LtCapEsh
ENCODING 43
SWIDTH 480 0
DWIDTH 8 0
BBX 8 16 0 -4
BITMAP
00
00
FE
E2
62
30
38
10
20
42
FE
FE
00
00
00
00
ENDCHAR
STARTCHAR LtCapTone2
ENCODING 44
SWIDTH 480 0
DWIDTH 8 0
BBX 8 16 0 -4
BITMAP
00
00
7C
C6
06
0E
3C
70
C0
C0
C6
7C
00
00
00
00
ENDCHAR
STARTCHAR LtCapTone5
ENCODING 45
SWIDTH 480 0
DWIDTH 8 0
BBX 8 16 0 -4
BITMAP
00
00
FE
60
60
7C
06
06
06
06
C6
7C
00
00
00
00
ENDCHAR
STARTCHAR LtCapSz
ENCODING 46
SWIDTH 480 0
DWIDTH 8 0
BBX 8 16 0 -4
BITMAP
00
00
3E
6C
CC
D8
DC
C6
C6
C6
D6
DC
00
00
00
00
ENDCHAR
STARTCHAR LtCapThorn
ENCODING 47
SWIDTH 480 0
DWIDTH 8 0
BBX 8 16 0 -4
BITMAP
00
00
C0
C0
FC
C6
C6
C6
C6
FC
C0
C0
00
00
00
00
ENDCHAR
STARTCHAR LtCapUps
ENCODING 48
SWIDTH 480 0
DWIDTH 8 0
BBX 8 16 0 -4
BITMAP
00
00
EE
EE
44
C6
C6
C6
C6
C6
6C
38
00
00
00
00
ENDCHAR
STARTCHAR LtCapWynn
ENCODING 49
SWIDTH 480 0
DWIDTH 8 0
BBX 8 16 0 -4
BITMAP
00
00
CC
D6
E6
C6
CC
D8
E0
C0
C0
C0
00
00
00
00
ENDCHAR
STARTCHAR LtCapChi
ENCODING 50
SWIDTH 480 0
DWIDTH 8 0
BBX 8 16 0 -4
BITMAP
00
00
C6
C6
64
6C
38
38
10
38
38
6C
4C
C6
C6
00
ENDCHAR
STARTCHAR LtCapYogh
ENCODING 51
SWIDTH 480 0
DWIDTH 8 0
BBX 8 16 0 -4
BITMAP
00
00
7C
C6
06
0C
3C
26
06
0C
38
E0
00
00
00
00
ENDCHAR
STARTCHAR LtCapEzh
ENCODING 52
SWIDTH 480 0
DWIDTH 8 0
BBX 8 16 0 -4
BITMAP
00
00
FE
86
8C
18
3C
06
06
06
C6
7C
00
00
00
00
ENDCHAR
STARTCHAR LtCapEzhAlt
ENCODING 53
SWIDTH 480 0
DWIDTH 8 0
BBX 8 16 0 -4
BITMAP
00
00
FE
8E
8C
18
38
10
08
84
FE
FE
00
00
00
00
ENDCHAR
STARTCHAR LtCapHHalf
ENCODING 54
SWIDTH 480 0
DWIDTH 8 0
BBX 8 16 0 -4
BITMAP
00
00
C0
C0
C0
C2
FE
C2
C0
C0
C0
C0
00
00
00
00
ENDCHAR
STARTCHAR LtCapGlot1
ENCODING 55
SWIDTH 480 0
DWIDTH 8 0
BBX 8 16 0 -4
BITMAP
00
00
7C
C6
C6
06
06
1C
18
18
18
18
00
00
00
00
ENDCHAR
STARTCHAR LtCapAin1
ENCODING 56
SWIDTH 480 0
DWIDTH 8 0
BBX 8 16 0 -4
BITMAP
00
00
7C
C6
C6
C0
C0
70
30
30
30
30
00
00
00
00
ENDCHAR
STARTCHAR LtCapAinEgpt
ENCODING 57
SWIDTH 480 0
DWIDTH 8 0
BBX 8 16 0 -4
BITMAP
00
00
1E
32
60
60
60
60
30
00
00
00
00
00
00
00
ENDCHAR
STARTCHAR LtCapAlefEgpt
ENCODING 58
SWIDTH 480 0
DWIDTH 8 0
BBX 8 16 0 -4
BITMAP
00
00
78
0C
0C
18
78
0C
0C
0C
18
70
00
00
00
00
ENDCHAR
STARTCHAR LtCapSaltillo
ENCODING 59
SWIDTH 480 0
DWIDTH 8 0
BBX 8 16 0 -4
BITMAP
18
18
18
18
18
18
18
00
00
00
00
00
00
00
00
00
ENDCHAR
STARTCHAR LtSmlA
ENCODING 60
SWIDTH 480 0
DWIDTH 8 0
BBX 8 16 0 -4
BITMAP
00
00
00
00
00
7C
66
06
7E
C6
CE
76
00
00
00
00
ENDCHAR
STARTCHAR LtSmlB
ENCODING 61
SWIDTH 480 0
DWIDTH 8 0
BBX 8 16 0 -4
BITMAP
00
00
C0
C0
C0
DC
E6
C6
C6
C6
E6
DC
00
00
00
00
ENDCHAR
STARTCHAR LtSmlC
ENCODING 62
SWIDTH 480 0
DWIDTH 8 0
BBX 8 16 0 -4
BITMAP
00
00
00
00
00
3C
66
C0
C0
C0
66
3C
00
00
00
00
ENDCHAR
STARTCHAR LtSmlD
ENCODING 63
SWIDTH 480 0
DWIDTH 8 0
BBX 8 16 0 -4
BITMAP
00
00
06
06
06
76
CE
C6
C6
C6
CE
76
00
00
00
00
ENDCHAR
STARTCHAR LtSmlE
ENCODING 64
SWIDTH 480 0
DWIDTH 8 0
BBX 8 16 0 -4
BITMAP
00
00
00
00
00
3C
66
C6
FE
C0
66
3C
00
00
00
00
ENDCHAR
STARTCHAR LtSmlF
ENCODING 65
SWIDTH 480 0
DWIDTH 8 0
BBX 8 16 0 -4
BITMAP
00
00
1E
32
30
30
FC
30
30
30
30
30
00
00
00
00
ENDCHAR
STARTCHAR LtSmlG
ENCODING 66
SWIDTH 480 0
DWIDTH 8 0
BBX 8 16 0 -4
BITMAP
00
00
00
00
00
7A
CC
CC
CC
78
C0
7C
C6
C6
7C
00
ENDCHAR
STARTCHAR LtSmlH
ENCODING 67
SWIDTH 480 0
DWIDTH 8 0
BBX 8 16 0 -4
BITMAP
00
00
C0
C0
C0
DC
E6
C6
C6
C6
C6
C6
00
00
00
00
ENDCHAR
STARTCHAR LtSmlI
ENCODING 68
SWIDTH 480 0
DWIDTH 8 0
BBX 8 16 0 -4
BITMAP
00
00
18
18
00
38
18
18
18
18
18
7E
00
00
00
00
ENDCHAR
STARTCHAR LtSmlJ
ENCODING 69
SWIDTH 480 0
DWIDTH 8 0
BBX 8 16 0 -4
BITMAP
00
00
0C
0C
00
3C
0C
0C
0C
0C
0C
0C
CC
CC
78
00
ENDCHAR
STARTCHAR LtSmlK
ENCODING 70
SWIDTH 480 0
DWIDTH 8 0
BBX 8 16 0 -4
BITMAP
00
00
C0
C0
C0
C6
CC
D0
F8
CC
C6
C6
00
00
00
00
ENDCHAR
STARTCHAR LtSmlL
ENCODING 71
SWIDTH 480 0
DWIDTH 8 0
BBX 8 16 0 -4
BITMAP
00
00
38
18
18
18
18
18
18
18
18
7E
00
00
00
00
ENDCHAR
STARTCHAR LtSmlM
ENCODING 72
SWIDTH 480 0
DWIDTH 8 0
BBX 8 16 0 -4
BITMAP
00
00
00
00
00
AC
FE
D6
D6
D6
D6
D6
00
00
00
00
ENDCHAR
STARTCHAR LtSmlN
ENCODING 73
SWIDTH 480 0
DWIDTH 8 0
BBX 8 16 0 -4
BITMAP
00
00
00
00
00
DC
E6
C6
C6
C6
C6
C6
00
00
00
00
ENDCHAR
STARTCHAR LtSmlO
ENCODING 74
SWIDTH 480 0
DWIDTH 8 0
BBX 8 16 0 -4
BITMAP
00
00
00
00
00
7C
C6
C6
C6
C6
C6
7C
00
00
00
00
ENDCHAR
STARTCHAR LtSmlP
ENCODING 75
SWIDTH 480 0
DWIDTH 8 0
BBX 8 16 0 -4
BITMAP
00
00
00
00
00
DC
E6
C6
C6
C6
E6
DC
C0
C0
C0
00
ENDCHAR
STARTCHAR LtSmlQ
ENCODING 76
SWIDTH 480 0
DWIDTH 8 0
BBX 8 16 0 -4
BITMAP
00
00
00
00
00
76
CE
C6
C6
C6
CE
76
06
06
06
00
ENDCHAR
STARTCHAR LtSmlR
ENCODING 77
SWIDTH 480 0
DWIDTH 8 0
BBX 8 16 0 -4
BITMAP
00
00
00
00
00
EE
76
60
60
60
60
60
00
00
00
00
ENDCHAR
STARTCHAR LtSmlS
ENCODING 78
SWIDTH 480 0
DWIDTH 8 0
BBX 8 16 0 -4
BITMAP
00
00
00
00
00
7C
C6
C0
7C
06
C6
7C
00
00
00
00
ENDCHAR
STARTCHAR LtSmlT
ENCODING 79
SWIDTH 480 0
DWIDTH 8 0
BBX 8 16 0 -4
BITMAP
00
00
00
30
30
FC
30
30
30
30
36
1C
00
00
00
00
ENDCHAR
STARTCHAR LtSmlU
ENCODING 80
SWIDTH 480 0
DWIDTH 8 0
BBX 8 16 0 -4
BITMAP
00
00
00
00
00
C6
C6
C6
C6
C6
CE
76
00
00
00
00
ENDCHAR
STARTCHAR LtSmlV
ENCODING 81
SWIDTH 480 0
DWIDTH 8 0
BBX 8 16 0 -4
BITMAP
00
00
00
00
00
C2
C6
64
64
38
38
10
00
00
00
00
ENDCHAR
STARTCHAR LtSmlW
ENCODING 82
SWIDTH 480 0
DWIDTH 8 0
BBX 8 16 0 -4
BITMAP
00
00
00
00
00
C2
DA
DA
DA
7C
6C
6C
00
00
00
00
ENDCHAR
STARTCHAR LtSmlX
ENCODING 83
SWIDTH 480 0
DWIDTH 8 0
BBX 8 16 0 -4
BITMAP
00
00
00
00
00
C6
E6
68
38
2C
CE
C6
00
00
00
00
ENDCHAR
STARTCHAR LtSmlY
ENCODING 84
SWIDTH 480 0
DWIDTH 8 0
BBX 8 16 0 -4
BITMAP
00
00
00
00
00
C2
C6
64
64
3C
38
18
10
D0
E0
00
ENDCHAR
STARTCHAR LtSmlZ
ENCODING 85
SWIDTH 480 0
DWIDTH 8 0
BBX 8 16 0 -4
BITMAP
00
00
00
00
00
FE
8E
0C
38
60
E2
FE
00
00
00
00
ENDCHAR
STARTCHAR LtSmlTone6
ENCODING 86
SWIDTH 480 0
DWIDTH 8 0
BBX 8 16 0 -4
BITMAP
00
00
00
00
00
60
E0
E0
7C
66
66
7C
00
00
00
00
ENDCHAR
STARTCHAR LtSmlBet
ENCODING 87
SWIDTH 480 0
DWIDTH 8 0
BBX 8 16 0 -4
BITMAP
00
00
78
CC
CC
F8
CC
C6
C6
C6
C6
FC
C0
C0
C0
00
ENDCHAR
STARTCHAR LtSmlCStretch
ENCODING 88
SWIDTH 480 0
DWIDTH 8 0
BBX 8 16 0 -4
BITMAP
00
00
00
00
00
3C
66
60
60
60
60
60
60
66
3C
00
ENDCHAR
STARTCHAR LtSmlEth
ENCODING 89
SWIDTH 480 0
DWIDTH 8 0
BBX 8 16 0 -4
BITMAP
00
00
D8
70
D8
3C
6C
C6
C6
C6
6C
38
00
00
00
00
ENDCHAR
STARTCHAR LtSmlDel
ENCODING 90
SWIDTH 480 0
DWIDTH 8 0
BBX 8 16 0 -4
BITMAP
00
00
3C
64
30
38
6C
C6
C6
C6
6C
38
00
00
00
00
ENDCHAR
STARTCHAR LtSmlEps
ENCODING 91
SWIDTH 480 0
DWIDTH 8 0
BBX 8 16 0 -4
BITMAP
00
00
00
00
00
7C
C6
E0
70
C0
C6
7C
00
00
00
00
ENDCHAR
STARTCHAR LtSmlSchwa
ENCODING 92
SWIDTH 480 0
DWIDTH 8 0
BBX 8 16 0 -4
BITMAP
00
00
00
00
00
78
CC
06
FE
C6
CC
78
00
00
00
00
ENDCHAR
STARTCHAR LtSmlPhi
ENCODING 93
SWIDTH 480 0
DWIDTH 8 0
BBX 8 16 0 -4
BITMAP
00
00
10
10
10
7C
D6
D6
D6
D6
D6
7C
10
10
10
00
ENDCHAR
STARTCHAR LtSmlGam
ENCODING 94
SWIDTH 480 0
DWIDTH 8 0
BBX 8 16 0 -4
BITMAP
00
00
00
00
00
C3
66
34
38
18
18
2C
2C
3C
18
00
ENDCHAR
STARTCHAR LtSmlRamshorn
ENCODING 95
SWIDTH 480 0
DWIDTH 8 0
BBX 8 16 0 -4
BITMAP
00
00
00
00
00
C6
EE
38
7C
4C
6C
38
00
00
00
00
ENDCHAR
STARTCHAR LtSmlHwair
ENCODING 96
SWIDTH 480 0
DWIDTH 8 0
BBX 8 16 0 -4
BITMAP
00
00
C0
C0
C0
E6
F6
D6
D6
D6
D6
CC
00
00
00
00
ENDCHAR
STARTCHAR LtSmlIot
ENCODING 97
SWIDTH 480 0
DWIDTH 8 0
BBX 8 16 0 -4
BITMAP
00
00
00
00
00
30
30
30
30
30
36
1C
00
00
00
00
ENDCHAR
STARTCHAR LtSmlKra
ENCODING 98
SWIDTH 480 0
DWIDTH 8 0
BBX 8 16 0 -4
BITMAP
00
00
00
00
00
C6
C4
D8
F8
CC
C6
C6
00
00
00
00
ENDCHAR
STARTCHAR LtSmlLam
ENCODING 99
SWIDTH 480 0
DWIDTH 8 0
BBX 8 16 0 -4
BITMAP
00
00
30
30
30
18
18
3C
2C
6C
46
C6
00
00
00
00
ENDCHAR
STARTCHAR LtSmlEng
ENCODING 100
SWIDTH 480 0
DWIDTH 8 0
BBX 8 16 0 -4
BITMAP
00
00
00
00
00
DC
E6
C6
C6
C6
C6
C6
06
36
1C
00
ENDCHAR
STARTCHAR LtSmlOme
ENCODING 101
SWIDTH 480 0
DWIDTH 8 0
BBX 8 16 0 -4
BITMAP
00
00
00
00
00
44
C6
D6
D6
D6
FE
6C
00
00
00
00
ENDCHAR
STARTCHAR LtSmlOi
ENCODING 102
SWIDTH 480 0
DWIDTH 8 0
BBX 8 16 0 -4
BITMAP
00
00
00
00
00
66
FE
DE
D6
D6
F6
66
06
06
06
00
ENDCHAR
STARTCHAR LtSmlOu
ENCODING 103
SWIDTH 480 0
DWIDTH 8 0
BBX 8 16 0 -4
BITMAP
00
00
44
C6
C6
6C
38
6C
C6
C6
C6
7C
00
00
00
00
ENDCHAR
STARTCHAR LtSmlRFish
ENCODING 104
SWIDTH 480 0
DWIDTH 8 0
BBX 8 16 0 -4
BITMAP
00
00
00
00
00
1C
36
66
60
60
60
60
00
00
00
00
ENDCHAR
STARTCHAR LtSmlSLong
ENCODING 105
SWIDTH 480 0
DWIDTH 8 0
BBX 8 16 0 -4
BITMAP
00
00
1E
36
30
30
30
30
30
30
30
30
00
00
00
00
ENDCHAR
STARTCHAR LtSmlEsh
ENCODING 106
SWIDTH 480 0
DWIDTH 8 0
BBX 8 16 0 -4
BITMAP
00
00
0E
1A
18
18
18
18
18
18
18
18
18
58
70
00
ENDCHAR
STARTCHAR LtSmlTone2
ENCODING 107
SWIDTH 480 0
DWIDTH 8 0
BBX 8 16 0 -4
BITMAP
00
00
00
00
00
7C
C6
06
7C
C0
C6
7C
00
00
00
00
ENDCHAR
STARTCHAR LtSmlTone5
ENCODING 108
SWIDTH 480 0
DWIDTH 8 0
BBX 8 16 0 -4
BITMAP
00
00
00
00
00
FE
60
78
0C
06
C6
7C
00
00
00
00
ENDCHAR
STARTCHAR LtSmlSz
ENCODING 109
SWIDTH 480 0
DWIDTH 8 0
BBX 8 16 0 -4
BITMAP
00
00
78
CC
CC
D8
DC
C6
C6
C6
D6
DC
00
00
00
00
ENDCHAR
STARTCHAR LtSmlThorn
ENCODING 110
SWIDTH 480 0
DWIDTH 8 0
BBX 8 16 0 -4
BITMAP
00
00
C0
C0
C0
DC
E6
C6
C6
C6
E6
DC
C0
C0
C0
00
ENDCHAR
STARTCHAR LtSmlUps
ENCODING 111
SWIDTH 480 0
DWIDTH 8 0
BBX 8 16 0 -4
BITMAP
00
00
00
00
00
EE
6C
C6
C6
C6
6C
38
00
00
00
00
ENDCHAR
STARTCHAR LtSmlW2
ENCODING 112
SWIDTH 480 0
DWIDTH 8 0
BBX 8 16 0 -4
BITMAP
00
00
C2
DA
DA
7C
6C
82
DA
DA
7C
6C
00
00
00
00
ENDCHAR
STARTCHAR LtSmlWynn
ENCODING 113
SWIDTH 480 0
DWIDTH 8 0
BBX 8 16 0 -4
BITMAP
00
00
00
00
00
CC
D6
E6
C6
CC
D8
E0
C0
C0
C0
00
ENDCHAR
STARTCHAR LtSmlChi
ENCODING 114
SWIDTH 480 0
DWIDTH 8 0
BBX 8 16 0 -4
BITMAP
00
00
00
00
00
C6
C6
64
68
38
38
2C
4C
C6
C6
00
ENDCHAR
STARTCHAR LtSmlYogh
ENCODING 115
SWIDTH 480 0
DWIDTH 8 0
BBX 8 16 0 -4
BITMAP
00
00
00
00
00
7C
C6
06
0C
3C
26
06
0C
38
E0
00
ENDCHAR
STARTCHAR LtSmlEzh
ENCODING 116
SWIDTH 480 0
DWIDTH 8 0
BBX 8 16 0 -4
BITMAP
00
00
00
00
00
FE
86
0C
18
3C
06
06
C6
C4
78
00
ENDCHAR
STARTCHAR LtSmlHHalf
ENCODING 117
SWIDTH 480 0
DWIDTH 8 0
BBX 8 16 0 -4
BITMAP
00
00
00
00
00
C0
C0
C0
FE
C0
C0
C0
00
00
00
00
ENDCHAR
STARTCHAR LtSmlGlot
ENCODING 118
SWIDTH 480 0
DWIDTH 8 0
BBX 8 16 0 -4
BITMAP
00
00
7C
C6
C6
06
0C
18
18
18
18
18
00
00
00
00
ENDCHAR
STARTCHAR LtSmlAin
ENCODING 119
SWIDTH 480 0
DWIDTH 8 0
BBX 8 16 0 -4
BITMAP
00
00
7C
C6
C6
C0
60
30
30
30
30
30
00
00
00
00
ENDCHAR
STARTCHAR LtSmlGlot1
ENCODING 120
SWIDTH 480 0
DWIDTH 8 0
BBX 8 16 0 -4
BITMAP
00
00
00
00
00
7C
C6
C6
06
1C
18
18
00
00
00
00
ENDCHAR
STARTCHAR LtSmlAin1
ENCODING 121
SWIDTH 480 0
DWIDTH 8 0
BBX 8 16 0 -4
BITMAP
00
00
00
00
00
7C
C6
C6
C0
70
30
30
00
00
00
00
ENDCHAR
STARTCHAR LtSmlAinEgpt
ENCODING 122
SWIDTH 480 0
DWIDTH 8 0
BBX 8 16 0 -4
BITMAP
00
00
00
00
00
1E
32
60
60
60
30
00
00
00
00
00
ENDCHAR
STARTCHAR LtSmlAlefEgpt
ENCODING 123
SWIDTH 480 0
DWIDTH 8 0
BBX 8 16 0 -4
BITMAP
00
00
00
00
00
78
0C
18
78
0C
18
70
00
00
00
00
ENDCHAR
STARTCHAR LtSmlSaltillo
ENCODING 124
SWIDTH 480 0
DWIDTH 8 0
BBX 8 16 0 -4
BITMAP
00
18
18
18
18
18
00
00
00
00
00
00
00
00
00
00
ENDCHAR
STARTCHAR LtSmlBullseye
ENCODING 125
SWIDTH 480 0
DWIDTH 8 0
BBX 8 16 0 -4
BITMAP
00
00
00
00
00
38
6C
C6
D6
C6
6C
38
00
00
00
00
ENDCHAR
STARTCHAR LtSmlPipe
ENCODING 126
SWIDTH 480 0
DWIDTH 8 0
BBX 8 16 0 -4
BITMAP
00
00
18
18
18
18
18
18
18
18
18
18
18
18
18
00
ENDCHAR
STARTCHAR LtSmlPipe2
ENCODING 127
SWIDTH 480 0
DWIDTH 8 0
BBX 8 16 0 -4
BITMAP
00
00
6C
6C
6C
6C
6C
6C
6C
6C
6C
6C
6C
6C
6C
00
ENDCHAR
STARTCHAR LtSmlBridge2
ENCODING 128
SWIDTH 480 0
DWIDTH 8 0
BBX 8 16 0 -4
BITMAP
00
00
FE
FE
C6
C6
00
00
FE
FE
C6
C6
00
00
00
00
ENDCHAR
STARTCHAR LtToneHhigh
ENCODING 129
SWIDTH 480 0
DWIDTH 8 0
BBX 8 16 0 -4
BITMAP
00
00
7C
0C
0C
0C
0C
0C
0C
0C
0C
0C
00
00
00
00
ENDCHAR
STARTCHAR LtToneHigh
ENCODING 130
SWIDTH 480 0
DWIDTH 8 0
BBX 8 16 0 -4
BITMAP
00
00
0C
0C
7C
0C
0C
0C
0C
0C
0C
0C
00
00
00
00
ENDCHAR
STARTCHAR LtToneMid
ENCODING 131
SWIDTH 480 0
DWIDTH 8 0
BBX 8 16 0 -4
BITMAP
00
00
0C
0C
0C
0C
7C
0C
0C
0C
0C
0C
00
00
00
00
ENDCHAR
STARTCHAR LtToneLow
ENCODING 132
SWIDTH 480 0
DWIDTH 8 0
BBX 8 16 0 -4
BITMAP
00
00
0C
0C
0C
0C
0C
0C
0C
7C
0C
0C
00
00
00
00
ENDCHAR
STARTCHAR LtToneLlow
ENCODING 133
SWIDTH 480 0
DWIDTH 8 0
BBX 8 16 0 -4
BITMAP
00
00
0C
0C
0C
0C
0C
0C
0C
0C
0C
7C
00
00
00
00
ENDCHAR
STARTCHAR LtCapISmc
ENCODING 134
SWIDTH 480 0
DWIDTH 8 0
BBX 8 16 0 -4
BITMAP
00
00
7E
5A
18
18
18
18
18
18
5A
7E
00
00
00
00
ENDCHAR
STARTCHAR LtSmlBSmc
ENCODING 135
SWIDTH 480 0
DWIDTH 8 0
BBX 8 16 0 -4
BITMAP
00
00
00
00
00
FC
C6
C6
FC
C6
C6
FC
00
00
00
00
ENDCHAR
STARTCHAR LtSmlGSmc
ENCODING 136
SWIDTH 480 0
DWIDTH 8 0
BBX 8 16 0 -4
BITMAP
00
00
00
00
00
3C
66
C0
DE
C6
66
3A
00
00
00
00
ENDCHAR
STARTCHAR LtSmlHSmc
ENCODING 137
SWIDTH 480 0
DWIDTH 8 0
BBX 8 16 0 -4
BITMAP
00
00
00
00
00
C6
C6
C6
FE
C6
C6
C6
00
00
00
00
ENDCHAR
STARTCHAR LtSmlISmc
ENCODING 138
SWIDTH 480 0
DWIDTH 8 0
BBX 8 16 0 -4
BITMAP
00
00
00
00
00
7E
18
18
18
18
18
7E
00
00
00
00
ENDCHAR
STARTCHAR LtSmlLSmc
ENCODING 139
SWIDTH 480 0
DWIDTH 8 0
BBX 8 16 0 -4
BITMAP
00
00
00
00
00
C0
C0
C0
C0
C0
C6
FE
00
00
00
00
ENDCHAR
STARTCHAR LtSmlNSmc
ENCODING 140
SWIDTH 480 0
DWIDTH 8 0
BBX 8 16 0 -4
BITMAP
00
00
00
00
00
C2
E2
F2
BA
9E
8E
86
00
00
00
00
ENDCHAR
STARTCHAR LtSmlRSmc
ENCODING 141
SWIDTH 480 0
DWIDTH 8 0
BBX 8 16 0 -4
BITMAP
00
00
00
00
00
FC
C6
C6
FC
D8
CC
C6
00
00
00
00
ENDCHAR
STARTCHAR LtSmlYSmc
ENCODING 142
SWIDTH 480 0
DWIDTH 8 0
BBX 8 16 0 -4
BITMAP
00
00
00
00
00
C3
62
34
18
18
18
18
00
00
00
00
ENDCHAR
STARTCHAR LtSmlOESmc
ENCODING 143
SWIDTH 480 0
DWIDTH 8 0
BBX 8 16 0 -4
BITMAP
00
00
00
00
00
7E
D8
D8
DE
D8
D8
7E
00
00
00
00
ENDCHAR
STARTCHAR LtCapAScr
ENCODING 144
SWIDTH 480 0
DWIDTH 8 0
BBX 8 16 0 -4
BITMAP
00
00
6C
DC
CC
CC
CC
CC
CC
CC
DE
76
00
00
00
00
ENDCHAR
STARTCHAR LtCapGScr
ENCODING 145
SWIDTH 480 0
DWIDTH 8 0
BBX 8 16 0 -4
BITMAP
00
00
76
CE
C6
C6
C6
C6
C6
C6
CE
76
06
C6
7C
00
ENDCHAR
STARTCHAR LtSmlAScr
ENCODING 146
SWIDTH 480 0
DWIDTH 8 0
BBX 8 16 0 -4
BITMAP
00
00
00
00
00
3E
66
C6
C6
C6
6E
36
00
00
00
00
ENDCHAR
STARTCHAR LtSmlGScr
ENCODING 147
SWIDTH 480 0
DWIDTH 8 0
BBX 8 16 0 -4
BITMAP
00
00
00
00
00
76
CE
C6
C6
C6
CE
76
06
C6
7C
00
ENDCHAR
STARTCHAR LtSmlANonscr
ENCODING 148
SWIDTH 480 0
DWIDTH 8 0
BBX 8 16 0 -4
BITMAP
00
00
00
00
00
7C
66
06
7E
C6
CE
76
00
00
00
00
ENDCHAR
STARTCHAR LtSmlEpsClsd
ENCODING 149
SWIDTH 480 0
DWIDTH 8 0
BBX 8 16 0 -4
BITMAP
00
00
00
00
00
78
CC
E6
76
C6
CC
78
00
00
00
00
ENDCHAR
STARTCHAR LtSmlOmeClsd
ENCODING 150
SWIDTH 480 0
DWIDTH 8 0
BBX 8 16 0 -4
BITMAP
00
00
00
00
38
6C
C6
D6
D6
D6
D6
6C
00
00
00
00
ENDCHAR
STARTCHAR LtSmlGlotInv
ENCODING 151
SWIDTH 480 0
DWIDTH 8 0
BBX 8 16 0 -4
BITMAP
00
00
18
18
18
18
18
0C
06
C6
C6
7C
00
00
00
00
ENDCHAR
STARTCHAR LtSmlRSmcInv
ENCODING 152
SWIDTH 480 0
DWIDTH 8 0
BBX 8 16 0 -4
BITMAP
00
00
00
00
00
C6
CC
D8
FC
C6
C6
FC
00
00
00
00
ENDCHAR
STARTCHAR LtCapERev
ENCODING 153
SWIDTH 480 0
DWIDTH 8 0
BBX 8 16 0 -4
BITMAP
00
00
FE
86
86
26
3E
26
06
86
86
FE
00
00
00
00
ENDCHAR
STARTCHAR LtCapEpsRev
ENCODING 154
SWIDTH 480 0
DWIDTH 8 0
BBX 8 16 0 -4
BITMAP
00
00
7C
C6
06
06
3C
04
06
06
C6
7C
00
00
00
00
ENDCHAR
STARTCHAR LtCapEzhRev
ENCODING 155
SWIDTH 480 0
DWIDTH 8 0
BBX 8 16 0 -4
BITMAP
00
00
FE
C2
62
30
78
C0
C0
C0
C6
7C
00
00
00
00
ENDCHAR
STARTCHAR LtSmlERev
ENCODING 156
SWIDTH 480 0
DWIDTH 8 0
BBX 8 16 0 -4
BITMAP
00
00
00
00
00
78
CC
C6
FE
06
CC
78
00
00
00
00
ENDCHAR
STARTCHAR LtSmlEpsRev
ENCODING 157
SWIDTH 480 0
DWIDTH 8 0
BBX 8 16 0 -4
BITMAP
00
00
00
00
00
7C
C6
0E
1C
06
C6
7C
00
00
00
00
ENDCHAR
STARTCHAR LtSmlRFishRev
ENCODING 158
SWIDTH 480 0
DWIDTH 8 0
BBX 8 16 0 -4
BITMAP
00
00
00
00
00
70
D8
CC
0C
0C
0C
0C
00
00
00
00
ENDCHAR
STARTCHAR LtSmlEshSmlRev
ENCODING 159
SWIDTH 480 0
DWIDTH 8 0
BBX 8 16 0 -4
BITMAP
00
00
00
00
00
70
58
18
18
18
1A
0E
00
00
00
00
ENDCHAR
STARTCHAR LtSmlEzhRev
ENCODING 160
SWIDTH 480 0
DWIDTH 8 0
BBX 8 16 0 -4
BITMAP
00
00
00
00
00
FE
C2
60
30
78
C0
C0
C6
46
3C
00
ENDCHAR
STARTCHAR LtSmlEpsRevClsd
ENCODING 161
SWIDTH 480 0
DWIDTH 8 0
BBX 8 16 0 -4
BITMAP
00
00
00
00
00
3C
66
CE
DC
C6
66
3C
00
00
00
00
ENDCHAR
STARTCHAR LtCapATrnd
ENCODING 162
SWIDTH 480 0
DWIDTH 8 0
BBX 8 16 0 -4
BITMAP
00
00
C2
C2
66
7C
64
34
38
38
18
10
00
00
00
00
ENDCHAR
STARTCHAR LtCapCTrnd
ENCODING 163
SWIDTH 480 0
DWIDTH 8 0
BBX 8 16 0 -4
BITMAP
00
00
78
CC
06
06
06
06
06
06
CC
78
00
00
00
00
ENDCHAR
STARTCHAR LtCapHTrnd
ENCODING 164
SWIDTH 480 0
DWIDTH 8 0
BBX 8 16 0 -4
BITMAP
00
00
C6
C6
C6
C6
FE
06
06
06
06
06
00
00
00
00
ENDCHAR
STARTCHAR LtCapKTrnd
ENCODING 165
SWIDTH 480 0
DWIDTH 8 0
BBX 8 16 0 -4
BITMAP
00
00
C6
C6
66
66
3E
36
26
66
46
C6
00
00
00
00
ENDCHAR
STARTCHAR LtCapMTrnd
ENCODING 166
SWIDTH 480 0
DWIDTH 8 0
BBX 8 16 0 -4
BITMAP
00
00
D6
D6
D6
D6
D6
D6
D6
D6
FE
6A
00
00
00
00
ENDCHAR
STARTCHAR LtCapTTrnd
ENCODING 167
SWIDTH 480 0
DWIDTH 8 0
BBX 8 16 0 -4
BITMAP
00
00
18
18
18
18
18
18
18
18
5A
7E
00
00
00
00
ENDCHAR
STARTCHAR LtCapVTrnd
ENCODING 168
SWIDTH 480 0
DWIDTH 8 0
BBX 8 16 0 -4
BITMAP
00
00
10
30
38
38
58
4C
4C
84
86
86
00
00
00
00
ENDCHAR
STARTCHAR LtCapAScrTrnd
ENCODING 169
SWIDTH 480 0
DWIDTH 8 0
BBX 8 16 0 -4
BITMAP
00
00
DC
F6
66
66
66
66
66
66
76
6C
00
00
00
00
ENDCHAR
STARTCHAR LtSmlATrnd
ENCODING 170
SWIDTH 480 0
DWIDTH 8 0
BBX 8 16 0 -4
BITMAP
00
00
00
00
00
DC
E6
C6
FC
C0
CC
7C
00
00
00
00
ENDCHAR
STARTCHAR LtSmlCTrnd
ENCODING 171
SWIDTH 480 0
DWIDTH 8 0
BBX 8 16 0 -4
BITMAP
00
00
00
00
00
78
CC
06
06
06
CC
78
00
00
00
00
ENDCHAR
STARTCHAR LtSmlFTrnd
ENCODING 172
SWIDTH 480 0
DWIDTH 8 0
BBX 8 16 0 -4
BITMAP
00
00
00
00
00
18
18
18
18
18
7E
18
18
98
F0
00
ENDCHAR
STARTCHAR LtSmlHTrnd
ENCODING 173
SWIDTH 480 0
DWIDTH 8 0
BBX 8 16 0 -4
BITMAP
00
00
00
00
00
C6
C6
C6
C6
C6
CE
76
06
06
06
00
ENDCHAR
STARTCHAR LtSmlKTrnd
ENCODING 174
SWIDTH 480 0
DWIDTH 8 0
BBX 8 16 0 -4
BITMAP
00
00
00
00
00
C6
C6
66
3E
16
66
C6
06
06
06
00
ENDCHAR
STARTCHAR LtSmlMTrnd
ENCODING 175
SWIDTH 480 0
DWIDTH 8 0
BBX 8 16 0 -4
BITMAP
00
00
00
00
00
D6
D6
D6
D6
D6
FE
6A
00
00
00
00
ENDCHAR
STARTCHAR LtSmlRTrnd
ENCODING 176
SWIDTH 480 0
DWIDTH 8 0
BBX 8 16 0 -4
BITMAP
00
00
00
00
00
0C
0C
0C
0C
0C
DC
EE
00
00
00
00
ENDCHAR
STARTCHAR LtSmlTTrnd
ENCODING 177
SWIDTH 480 0
DWIDTH 8 0
BBX 8 16 0 -4
BITMAP
00
00
00
00
00
70
D8
18
18
18
18
7E
18
18
00
00
ENDCHAR
STARTCHAR LtSmlVTrnd
ENCODING 178
SWIDTH 480 0
DWIDTH 8 0
BBX 8 16 0 -4
BITMAP
00
00
00
00
00
10
38
38
4C
4C
C6
86
00
00
00
00
ENDCHAR
STARTCHAR LtSmlWTrnd
ENCODING 179
SWIDTH 480 0
DWIDTH 8 0
BBX 8 16 0 -4
BITMAP
00
00
00
00
00
6C
6C
7C
B6
B6
86
86
00
00
00
00
ENDCHAR
STARTCHAR LtSmlYTrnd
ENCODING 180
SWIDTH 480 0
DWIDTH 8 0
BBX 8 16 0 -4
BITMAP
00
00
0E
16
10
30
38
78
4C
4C
C6
86
00
00
00
00
ENDCHAR
STARTCHAR LtSmlDelTrnd
ENCODING 181
SWIDTH 480 0
DWIDTH 8 0
BBX 8 16 0 -4
BITMAP
00
00
00
00
00
38
6C
C6
C6
C6
6C
38
18
0C
78
00
ENDCHAR
STARTCHAR LtSmlAScrTrnd
ENCODING 182
SWIDTH 480 0
DWIDTH 8 0
BBX 8 16 0 -4
BITMAP
00
00
00
00
00
D8
EC
C6
C6
C6
CC
F8
00
00
00
00
ENDCHAR
STARTCHAR LtCapAE
ENCODING 183
SWIDTH 480 0
DWIDTH 8 0
BBX 8 16 0 -4
BITMAP
00
00
1E
3A
38
38
5E
58
78
D8
9A
9E
00
00
00
00
ENDCHAR
STARTCHAR LtCapDZ
ENCODING 184
SWIDTH 480 0
DWIDTH 8 0
BBX 8 16 0 -4
BITMAP
00
00
DE
E6
E6
A4
AC
AC
A8
F8
D8
DE
00
00
00
00
ENDCHAR
STARTCHAR LtCapIJ
ENCODING 185
SWIDTH 480 0
DWIDTH 8 0
BBX 8 16 0 -4
BITMAP
00
00
66
66
66
66
66
66
66
66
06
06
66
3C
00
00
ENDCHAR
STARTCHAR LtCapLJ
ENCODING 186
SWIDTH 480 0
DWIDTH 8 0
BBX 8 16 0 -4
BITMAP
00
00
C7
C2
C2
C2
C2
C2
C2
CA
DE
F4
00
00
00
00
ENDCHAR
STARTCHAR LtCapNJ
ENCODING 187
SWIDTH 480 0
DWIDTH 8 0
BBX 8 16 0 -4
BITMAP
00
00
97
D2
D2
F2
F2
F2
B2
BA
9E
94
00
00
00
00
ENDCHAR
STARTCHAR LtCapOE
ENCODING 188
SWIDTH 480 0
DWIDTH 8 0
BBX 8 16 0 -4
BITMAP
00
00
7E
DA
D8
D8
DE
D8
D8
D8
DA
7E
00
00
00
00
ENDCHAR
STARTCHAR LtMixDZ
ENCODING 189
SWIDTH 480 0
DWIDTH 8 0
BBX 8 16 0 -4
BITMAP
00
00
C0
E0
E0
BE
A6
A4
AC
E8
D8
DE
00
00
00
00
ENDCHAR
STARTCHAR LtMixLJ
ENCODING 190
SWIDTH 480 0
DWIDTH 8 0
BBX 8 16 0 -4
BITMAP
00
00
C6
C6
C0
C6
C6
C6
C6
C6
D6
F6
06
36
1C
00
ENDCHAR
STARTCHAR LtMixNJ
ENCODING 191
SWIDTH 480 0
DWIDTH 8 0
BBX 8 16 0 -4
BITMAP
00
00
96
D6
D0
F6
F6
F6
B6
B6
96
96
06
36
1C
00
ENDCHAR
STARTCHAR LtSmlAE
ENCODING 192
SWIDTH 480 0
DWIDTH 8 0
BBX 8 16 0 -4
BITMAP
00
00
00
00
00
6E
DA
1A
7E
D8
DA
EE
00
00
00
00
ENDCHAR
STARTCHAR LtSmlDB
ENCODING 193
SWIDTH 480 0
DWIDTH 8 0
BBX 8 16 0 -4
BITMAP
00
00
10
10
10
7C
D6
D6
D6
D6
D6
7C
00
00
00
00
ENDCHAR
STARTCHAR LtSmlDZ
ENCODING 194
SWIDTH 480 0
DWIDTH 8 0
BBX 8 16 0 -4
BITMAP
00
00
20
20
20
7E
E6
A4
AC
A8
F8
FE
00
00
00
00
ENDCHAR
STARTCHAR LtSmlDEzh
ENCODING 195
SWIDTH 480 0
DWIDTH 8 0
BBX 8 16 0 -4
BITMAP
00
00
20
20
20
7E
E6
A6
AC
AC
E6
E6
06
66
3C
00
ENDCHAR
STARTCHAR LtSmlFF
ENCODING 196
SWIDTH 480 0
DWIDTH 8 0
BBX 8 16 0 -4
BITMAP
00
00
37
6C
6C
6C
FE
6C
6C
6C
6C
6C
00
00
00
00
ENDCHAR
STARTCHAR LtSmlFI
ENCODING 197
SWIDTH 480 0
DWIDTH 8 0
BBX 8 16 0 -4
BITMAP
00
00
3E
66
60
66
FE
66
66
66
66
6F
00
00
00
00
ENDCHAR
STARTCHAR LtSmlFFI
ENCODING 198
SWIDTH 480 0
DWIDTH 8 0
BBX 8 16 0 -4
BITMAP
00
00
6E
FE
D0
D6
FE
D6
D6
D6
D6
D7
00
00
00
00
ENDCHAR
STARTCHAR LtSmlFL
ENCODING 199
SWIDTH 480 0
DWIDTH 8 0
BBX 8 16 0 -4
BITMAP
00
00
3E
66
66
66
F6
66
66
66
66
6F
00
00
00
00
ENDCHAR
STARTCHAR LtSmlFFL
ENCODING 200
SWIDTH 480 0
DWIDTH 8 0
BBX 8 16 0 -4
BITMAP
00
00
6E
FE
D6
D6
FE
D6
D6
D6
D6
D7
00
00
00
00
ENDCHAR
STARTCHAR LtSmlFEng
ENCODING 201
SWIDTH 480 0
DWIDTH 8 0
BBX 8 16 0 -4
BITMAP
00
00
30
70
40
54
FE
5A
5A
5A
5A
5A
02
1A
1C
00
ENDCHAR
STARTCHAR LtSmlIJ
ENCODING 202
SWIDTH 480 0
DWIDTH 8 0
BBX 8 16 0 -4
BITMAP
00
00
66
66
00
66
66
66
66
66
66
66
06
36
1C
00
ENDCHAR
STARTCHAR LtSmlLJ
ENCODING 203
SWIDTH 480 0
DWIDTH 8 0
BBX 8 16 0 -4
BITMAP
00
00
E6
66
60
66
66
66
66
66
66
F6
06
36
1C
00
ENDCHAR
STARTCHAR LtSmlLS
ENCODING 204
SWIDTH 480 0
DWIDTH 8 0
BBX 8 16 0 -4
BITMAP
00
00
E0
60
60
6C
76
70
7C
66
66
FC
00
00
00
00
ENDCHAR
STARTCHAR LtSmlLZ
ENCODING 205
SWIDTH 480 0
DWIDTH 8 0
BBX 8 16 0 -4
BITMAP
00
00
E0
60
60
7E
66
64
6C
68
78
FE
00
00
00
00
ENDCHAR
STARTCHAR LtSmlLEzh
ENCODING 206
SWIDTH 480 0
DWIDTH 8 0
BBX 8 16 0 -4
BITMAP
00
00
E0
60
60
7E
66
66
6C
6C
66
E6
06
66
3C
00
ENDCHAR
STARTCHAR LtSmlNJ
ENCODING 207
SWIDTH 480 0
DWIDTH 8 0
BBX 8 16 0 -4
BITMAP
00
00
06
06
00
B6
F6
D6
D6
D6
D6
D6
06
36
1C
00
ENDCHAR
STARTCHAR LtSmlOE
ENCODING 208
SWIDTH 480 0
DWIDTH 8 0
BBX 8 16 0 -4
BITMAP
00
00
00
00
00
76
DE
DA
DE
D8
DE
76
00
00
00
00
ENDCHAR
STARTCHAR LtSmlQP
ENCODING 209
SWIDTH 480 0
DWIDTH 8 0
BBX 8 16 0 -4
BITMAP
00
00
00
00
00
7C
D6
D6
D6
D6
D6
7C
10
10
10
00
ENDCHAR
STARTCHAR LtSmlST
ENCODING 210
SWIDTH 480 0
DWIDTH 8 0
BBX 8 16 0 -4
BITMAP
00
00
00
0C
0C
7E
8C
CC
EC
6C
2C
E6
00
00
00
00
ENDCHAR
STARTCHAR LtSmlSLongT
ENCODING 211
SWIDTH 480 0
DWIDTH 8 0
BBX 8 16 0 -4
BITMAP
00
00
78
CC
CC
DE
CC
CC
CC
CC
CC
C6
00
00
00
00
ENDCHAR
STARTCHAR LtSmlTS
ENCODING 212
SWIDTH 480 0
DWIDTH 8 0
BBX 8 16 0 -4
BITMAP
00
00
00
60
60
F6
6F
6C
66
63
6F
36
00
00
00
00
ENDCHAR
STARTCHAR LtSmlTEsh
ENCODING 213
SWIDTH 480 0
DWIDTH 8 0
BBX 8 16 0 -4
BITMAP
00
00
07
6D
6C
FC
6C
6C
6C
6C
6C
3C
0C
2C
38
00
ENDCHAR
STARTCHAR LtCapBTopbar
ENCODING 214
SWIDTH 480 0
DWIDTH 8 0
BBX 8 16 0 -4
BITMAP
00
00
FC
C4
C2
C0
FC
C6
C6
C6
C6
FC
00
00
00
00
ENDCHAR
STARTCHAR LtCapDTopbar
ENCODING 215
SWIDTH 480 0
DWIDTH 8 0
BBX 8 16 0 -4
BITMAP
00
00
7E
46
86
06
7E
C6
C6
C6
C6
7E
00
00
00
00
ENDCHAR
STARTCHAR LtSmlBTopbar
ENCODING 216
SWIDTH 480 0
DWIDTH 8 0
BBX 8 16 0 -4
BITMAP
00
00
FC
C0
C0
DC
E6
C6
C6
C6
E6
DC
00
00
00
00
ENDCHAR
STARTCHAR LtSmlDTopbar
ENCODING 217
SWIDTH 480 0
DWIDTH 8 0
BBX 8 16 0 -4
BITMAP
00
00
7E
06
06
76
CE
C6
C6
C6
CE
76
00
00
00
00
ENDCHAR
STARTCHAR LtCapBHook
ENCODING 218
SWIDTH 480 0
DWIDTH 8 0
BBX 8 16 0 -4
BITMAP
00
00
7C
F6
B6
B6
3C
36
36
36
36
3C
00
00
00
00
ENDCHAR
STARTCHAR LtCapCHook
ENCODING 219
SWIDTH 480 0
DWIDTH 8 0
BBX 8 16 0 -4
BITMAP
06
0C
0C
3C
66
C0
C0
C0
C0
C0
66
3C
00
00
00
00
ENDCHAR
STARTCHAR LtCapDHook
ENCODING 220
SWIDTH 480 0
DWIDTH 8 0
BBX 8 16 0 -4
BITMAP
00
00
78
F4
B6
B6
36
36
36
36
34
38
00
00
00
00
ENDCHAR
STARTCHAR LtCapGHook
ENCODING 221
SWIDTH 480 0
DWIDTH 8 0
BBX 8 16 0 -4
BITMAP
06
0C
0C
3C
66
C0
C0
CE
C6
C6
66
3E
00
00
00
00
ENDCHAR
STARTCHAR LtCapHHook
ENCODING 222
SWIDTH 480 0
DWIDTH 8 0
BBX 8 16 0 -4
BITMAP
00
00
76
F6
B6
B6
3E
36
36
36
36
36
00
00
00
00
ENDCHAR
STARTCHAR LtCapKHook
ENCODING 223
SWIDTH 480 0
DWIDTH 8 0
BBX 8 16 0 -4
BITMAP
00
00
C4
CE
DA
D0
F0
F8
D8
CC
C6
C6
00
00
00
00
ENDCHAR
STARTCHAR LtCapPHook
ENCODING 224
SWIDTH 480 0
DWIDTH 8 0
BBX 8 16 0 -4
BITMAP
00
00
7C
F6
B6
B6
36
3C
30
30
30
30
00
00
00
00
ENDCHAR
STARTCHAR LtCapTHook
ENCODING 225
SWIDTH 480 0
DWIDTH 8 0
BBX 8 16 0 -4
BITMAP
00
00
7F
D9
D8
D8
18
18
18
18
18
18
00
00
00
00
ENDCHAR
STARTCHAR LtCapVHook
ENCODING 226
SWIDTH 480 0
DWIDTH 8 0
BBX 8 16 0 -4
BITMAP
00
00
D8
CC
C6
C6
C6
C6
C6
C6
CC
78
00
00
00
00
ENDCHAR
STARTCHAR LtCapWHook
ENCODING 227
SWIDTH 480 0
DWIDTH 8 0
BBX 8 16 0 -4
BITMAP
00
00
84
8E
8A
AA
A8
F8
F8
70
50
50
00
00
00
00
ENDCHAR
STARTCHAR LtCapYHook
ENCODING 228
SWIDTH 480 0
DWIDTH 8 0
BBX 8 16 0 -4
BITMAP
00
00
84
CE
CA
6A
70
30
30
30
30
30
00
00
00
00
ENDCHAR
STARTCHAR LtSmlBHook
ENCODING 229
SWIDTH 480 0
DWIDTH 8 0
BBX 8 16 0 -4
BITMAP
00
00
78
C0
C0
DC
E6
C6
C6
C6
E6
DC
00
00
00
00
ENDCHAR
STARTCHAR LtSmlCHook
ENCODING 230
SWIDTH 480 0
DWIDTH 8 0
BBX 8 16 0 -4
BITMAP
00
00
06
0C
0C
3C
66
C0
C0
C0
66
3C
00
00
00
00
ENDCHAR
STARTCHAR LtSmlDHook
ENCODING 231
SWIDTH 480 0
DWIDTH 8 0
BBX 8 16 0 -4
BITMAP
00
00
07
0C
0C
6C
DC
CC
CC
CC
CC
74
00
00
00
00
ENDCHAR
STARTCHAR LtSmlGHook
ENCODING 232
SWIDTH 480 0
DWIDTH 8 0
BBX 8 16 0 -4
BITMAP
00
00
07
0C
0C
7C
CC
CC
CC
CC
DC
6C
0C
CC
78
00
ENDCHAR
STARTCHAR LtSmlHHook
ENCODING 233
SWIDTH 480 0
DWIDTH 8 0
BBX 8 16 0 -4
BITMAP
00
00
78
C0
C0
DC
E6
C6
C6
C6
C6
C6
00
00
00
00
ENDCHAR
STARTCHAR LtSmlKHook
ENCODING 234
SWIDTH 480 0
DWIDTH 8 0
BBX 8 16 0 -4
BITMAP
00
00
78
C0
C0
C6
CC
D0
F8
CC
C6
C6
00
00
00
00
ENDCHAR
STARTCHAR LtSmlPHook
ENCODING 235
SWIDTH 480 0
DWIDTH 8 0
BBX 8 16 0 -4
BITMAP
00
00
78
C0
C0
DC
E6
C6
C6
C6
E6
DC
C0
C0
C0
00
ENDCHAR
STARTCHAR LtSmlQHook
ENCODING 236
SWIDTH 480 0
DWIDTH 8 0
BBX 8 16 0 -4
BITMAP
00
00
07
0C
0C
7C
CC
CC
CC
CC
DC
6C
0C
0C
0C
00
ENDCHAR
STARTCHAR LtSmlTHook
ENCODING 237
SWIDTH 480 0
DWIDTH 8 0
BBX 8 16 0 -4
BITMAP
00
00
1C
34
30
FC
30
30
30
30
36
1C
00
00
00
00
ENDCHAR
STARTCHAR LtSmlVHook
ENCODING 238
SWIDTH 480 0
DWIDTH 8 0
BBX 8 16 0 -4
BITMAP
00
00
00
00
00
CC
CC
C6
C6
C6
CC
78
00
00
00
00
ENDCHAR
STARTCHAR LtSmlWHook
ENCODING 239
SWIDTH 480 0
DWIDTH 8 0
BBX 8 16 0 -4
BITMAP
00
00
03
03
02
C2
DA
DA
DA
7C
6C
6C
00
00
00
00
ENDCHAR
STARTCHAR LtSmlYHook
ENCODING 240
SWIDTH 480 0
DWIDTH 8 0
BBX 8 16 0 -4
BITMAP
00
00
03
03
02
C6
C4
64
6C
38
38
18
10
D0
E0
00
ENDCHAR
STARTCHAR LtSmlSchwaHook
ENCODING 241
SWIDTH 480 0
DWIDTH 8 0
BBX 8 16 0 -4
BITMAP
00
00
00
00
00
70
DA
0E
FE
CC
D8
70
00
00
00
00
ENDCHAR
STARTCHAR LtSmlGSmcHook
ENCODING 242
SWIDTH 480 0
DWIDTH 8 0
BBX 8 16 0 -4
BITMAP
00
00
06
0C
0C
3C
64
C0
DE
C6
66
3A
00
00
00
00
ENDCHAR
STARTCHAR LtSmlEpsRevHook
ENCODING 243
SWIDTH 480 0
DWIDTH 8 0
BBX 8 16 0 -4
BITMAP
00
00
00
00
00
78
CE
0E
3A
0C
CC
78
00
00
00
00
ENDCHAR
STARTCHAR LtSmlFTrndHook
ENCODING 244
SWIDTH 480 0
DWIDTH 8 0
BBX 8 16 0 -4
BITMAP
00
00
0E
1A
18
18
18
18
18
18
7E
18
18
98
F0
00
ENDCHAR
STARTCHAR LtSmlHTrndHook
ENCODING 245
SWIDTH 480 0
DWIDTH 8 0
BBX 8 16 0 -4
BITMAP
00
00
00
00
00
C6
66
66
66
66
6E
36
06
06
06
00
ENDCHAR
STARTCHAR LtCapFLhook
ENCODING 246
SWIDTH 480 0
DWIDTH 8 0
BBX 8 16 0 -4
BITMAP
00
00
3E
32
32
30
3C
34
30
30
B0
E0
00
00
00
00
ENDCHAR
STARTCHAR LtCapHLhook
ENCODING 247
SWIDTH 480 0
DWIDTH 8 0
BBX 8 16 0 -4
BITMAP
00
00
C6
C6
C6
C6
FE
C6
C6
C6
C6
C6
06
36
1C
00
ENDCHAR
STARTCHAR LtCapNLhookL
ENCODING 248
SWIDTH 480 0
DWIDTH 8 0
BBX 8 16 0 -4
BITMAP
00
00
22
32
32
3A
3A
2E
2E
A6
E6
C2
00
00
00
00
ENDCHAR
STARTCHAR LtCapQHooktail
ENCODING 249
SWIDTH 480 0
DWIDTH 8 0
BBX 8 16 0 -4
BITMAP
00
00
7C
CC
CC
CC
CC
CC
CC
CC
CC
7C
0C
0C
07
00
ENDCHAR
STARTCHAR LtCapRLhook
ENCODING 250
SWIDTH 480 0
DWIDTH 8 0
BBX 8 16 0 -4
BITMAP
00
00
FC
C6
C6
C6
FC
D8
CC
CC
C6
C6
C0
D8
70
00
ENDCHAR
STARTCHAR LtCapTLhook
ENCODING 251
SWIDTH 480 0
DWIDTH 8 0
BBX 8 16 0 -4
BITMAP
00
00
FF
99
18
18
18
18
18
1A
1E
0C
00
00
00
00
ENDCHAR
STARTCHAR LtCapZLhookL
ENCODING 252
SWIDTH 480 0
DWIDTH 8 0
BBX 8 16 0 -4
BITMAP
00
00
FE
86
8C
1C
18
30
70
60
C0
FC
06
06
0C
00
ENDCHAR
STARTCHAR LtSmlDLhook
ENCODING 253
SWIDTH 480 0
DWIDTH 8 0
BBX 8 16 0 -4
BITMAP
00
00
0C
0C
0C
6C
DC
CC
CC
CC
CC
7C
0C
0C
07
00
ENDCHAR
STARTCHAR LtSmlFLhook
ENCODING 254
SWIDTH 480 0
DWIDTH 8 0
BBX 8 16 0 -4
BITMAP
00
00
1E
32
30
30
FC
30
30
30
30
30
30
B0
E0
00
ENDCHAR
STARTCHAR LtSmlHLhook
ENCODING 255
SWIDTH 480 0
DWIDTH 8 0
BBX 8 16 0 -4
BITMAP
00
00
C0
C0
C0
DC
E6
C6
C6
C6
C6
C6
06
36
1C
00
ENDCHAR
STARTCHAR LtSmlLLhook
ENCODING 256
SWIDTH 480 0
DWIDTH 8 0
BBX 8 16 0 -4
BITMAP
00
00
38
18
18
18
18
18
18
18
18
18
18
1A
0E
00
ENDCHAR
STARTCHAR LtSmlMLhook
ENCODING 257
SWIDTH 480 0
DWIDTH 8 0
BBX 8 16 0 -4
BITMAP
00
00
00
00
00
AC
FE
D6
D6
D6
D6
D6
06
36
1C
00
ENDCHAR
STARTCHAR LtSmlNLhook
ENCODING 258
SWIDTH 480 0
DWIDTH 8 0
BBX 8 16 0 -4
BITMAP
00
00
00
00
00
D8
EC
CC
CC
CC
CC
CC
0C
0C
06
00
ENDCHAR
STARTCHAR LtSmlNLhookL
ENCODING 259
SWIDTH 480 0
DWIDTH 8 0
BBX 8 16 0 -4
BITMAP
00
00
00
00
00
6C
76
66
66
66
66
66
60
60
C0
00
ENDCHAR
STARTCHAR LtSmlQHooktail
ENCODING 260
SWIDTH 480 0
DWIDTH 8 0
BBX 8 16 0 -4
BITMAP
00
00
00
00
00
6C
DC
CC
CC
CC
DC
6C
0C
0C
07
00
ENDCHAR
STARTCHAR LtSmlRLhook
ENCODING 261
SWIDTH 480 0
DWIDTH 8 0
BBX 8 16 0 -4
BITMAP
00
00
00
00
00
EE
76
60
60
60
60
60
60
6C
38
00
ENDCHAR
STARTCHAR LtSmlSLhook
ENCODING 262
SWIDTH 480 0
DWIDTH 8 0
BBX 8 16 0 -4
BITMAP
00
00
00
00
00
7C
C6
C0
7C
06
C6
FC
C0
D8
70
00
ENDCHAR
STARTCHAR LtSmlTLhook
ENCODING 263
SWIDTH 480 0
DWIDTH 8 0
BBX 8 16 0 -4
BITMAP
00
00
00
30
30
FC
30
30
30
30
30
30
30
36
1C
00
ENDCHAR
STARTCHAR LtSmlTLhookL
ENCODING 264
SWIDTH 480 0
DWIDTH 8 0
BBX 8 16 0 -4
BITMAP
00
00
00
30
30
FC
30
30
30
30
36
1E
06
06
0C
00
ENDCHAR
STARTCHAR LtSmlZLhook
ENCODING 265
SWIDTH 480 0
DWIDTH 8 0
BBX 8 16 0 -4
BITMAP
00
00
00
00
00
FE
8E
0C
38
60
E0
FE
0C
0C
06
00
ENDCHAR
STARTCHAR LtSmlZLhookL
ENCODING 266
SWIDTH 480 0
DWIDTH 8 0
BBX 8 16 0 -4
BITMAP
00
00
00
00
00
FE
8E
0C
38
60
E0
FC
06
06
0C
00
ENDCHAR
STARTCHAR LtSmlEzhTail
ENCODING 267
SWIDTH 480 0
DWIDTH 8 0
BBX 8 16 0 -4
BITMAP
00
00
00
00
00
FE
8C
18
3C
06
06
7C
C0
C6
7C
00
ENDCHAR
STARTCHAR LtSmlRTrndLhook
ENCODING 268
SWIDTH 480 0
DWIDTH 8 0
BBX 8 16 0 -4
BITMAP
00
00
00
00
00
0C
0C
0C
0C
0C
DC
EC
0C
0C
06
00
ENDCHAR
STARTCHAR LtSmlHHookLhook
ENCODING 269
SWIDTH 480 0
DWIDTH 8 0
BBX 8 16 0 -4
BITMAP
00
00
78
C0
C0
DC
E6
C6
C6
C6
C6
C6
06
36
1C
00
ENDCHAR
STARTCHAR LtSmlHTrndHookLhook
ENCODING 270
SWIDTH 480 0
DWIDTH 8 0
BBX 8 16 0 -4
BITMAP
00
00
00
00
00
C6
66
66
66
66
6E
36
06
06
03
00
ENDCHAR
STARTCHAR LtCapNLongleg
ENCODING 271
SWIDTH 480 0
DWIDTH 8 0
BBX 8 16 0 -4
BITMAP
00
00
DC
E6
C6
C6
C6
C6
C6
C6
C6
C6
06
06
06
00
ENDCHAR
STARTCHAR LtSmlNLongleg
ENCODING 272
SWIDTH 480 0
DWIDTH 8 0
BBX 8 16 0 -4
BITMAP
00
00
00
00
00
DC
E6
C6
C6
C6
C6
C6
06
06
06
00
ENDCHAR
STARTCHAR LtSmlRLongleg
ENCODING 273
SWIDTH 480 0
DWIDTH 8 0
BBX 8 16 0 -4
BITMAP
00
00
00
00
00
EE
76
60
60
60
60
60
60
60
60
00
ENDCHAR
STARTCHAR LtSmlMTrndLongleg
ENCODING 274
SWIDTH 480 0
DWIDTH 8 0
BBX 8 16 0 -4
BITMAP
00
00
00
00
00
D6
D6
D6
D6
D6
FE
6E
06
06
06
00
ENDCHAR
STARTCHAR LtSmlRTrndLongleg
ENCODING 275
SWIDTH 480 0
DWIDTH 8 0
BBX 8 16 0 -4
BITMAP
00
00
0C
0C
0C
0C
0C
0C
0C
0C
DC
EE
00
00
00
00
ENDCHAR
STARTCHAR LtSmlSSwash
ENCODING 276
SWIDTH 480 0
DWIDTH 8 0
BBX 8 16 0 -4
BITMAP
00
00
00
00
00
7C
C6
C0
7C
06
C6
7C
30
1A
0E
00
ENDCHAR
STARTCHAR LtSmlZSwash
ENCODING 277
SWIDTH 480 0
DWIDTH 8 0
BBX 8 16 0 -4
BITMAP
00
00
00
00
00
FE
8E
0C
38
60
E0
E0
30
1A
0E
00
ENDCHAR
STARTCHAR LtCapJCurl
ENCODING 278
SWIDTH 480 0
DWIDTH 8 0
BBX 8 16 0 -4
BITMAP
00
00
1E
0C
0C
0C
0C
0C
7C
D8
DC
76
00
00
00
00
ENDCHAR
STARTCHAR LtSmlCCurl
ENCODING 279
SWIDTH 480 0
DWIDTH 8 0
BBX 8 16 0 -4
BITMAP
00
00
00
00
00
3C
66
C0
C0
C6
6A
3C
10
00
00
00
ENDCHAR
STARTCHAR LtSmlDCurl
ENCODING 280
SWIDTH 480 0
DWIDTH 8 0
BBX 8 16 0 -4
BITMAP
00
00
18
18
18
78
D8
D8
D8
DE
DA
6C
08
00
00
00
ENDCHAR
STARTCHAR LtSmlJCurl
ENCODING 281
SWIDTH 480 0
DWIDTH 8 0
BBX 8 16 0 -4
BITMAP
00
00
0C
0C
00
3C
0C
0C
0C
0C
0C
7E
CC
CC
78
00
ENDCHAR
STARTCHAR LtSmlLCurl
ENCODING 282
SWIDTH 480 0
DWIDTH 8 0
BBX 8 16 0 -4
BITMAP
00
00
E0
60
60
60
60
60
60
66
6A
FC
10
00
00
00
ENDCHAR
STARTCHAR LtSmlNCurl
ENCODING 283
SWIDTH 480 0
DWIDTH 8 0
BBX 8 16 0 -4
BITMAP
00
00
00
00
00
B0
D8
D8
D8
DE
DA
CC
10
00
00
00
ENDCHAR
STARTCHAR LtSmlTCurl
ENCODING 284
SWIDTH 480 0
DWIDTH 8 0
BBX 8 16 0 -4
BITMAP
00
00
00
30
30
FC
30
30
30
36
3A
1C
10
00
00
00
ENDCHAR
STARTCHAR LtSmlZCurl
ENCODING 285
SWIDTH 480 0
DWIDTH 8 0
BBX 8 16 0 -4
BITMAP
00
00
00
00
00
FE
8E
0C
38
66
EA
FC
10
00
00
00
ENDCHAR
STARTCHAR LtSmlEshCurl
ENCODING 286
SWIDTH 480 0
DWIDTH 8 0
BBX 8 16 0 -4
BITMAP
00
00
0E
1A
18
18
18
18
18
18
18
18
3C
5A
72
00
ENDCHAR
STARTCHAR LtSmlEzhCurl
ENCODING 287
SWIDTH 480 0
DWIDTH 8 0
BBX 8 16 0 -4
BITMAP
00
00
00
00
00
FE
86
0C
18
3C
06
06
7C
DC
76
00
ENDCHAR
STARTCHAR LtSmlDZCurl
ENCODING 288
SWIDTH 480 0
DWIDTH 8 0
BBX 8 16 0 -4
BITMAP
00
00
20
20
20
7E
E6
A4
AC
A8
FA
FE
04
08
00
00
ENDCHAR
STARTCHAR LtSmlTCCurl
ENCODING 289
SWIDTH 480 0
DWIDTH 8 0
BBX 8 16 0 -4
BITMAP
00
00
00
60
60
F6
6E
68
68
68
6E
36
04
08
00
00
ENDCHAR
STARTCHAR LtSmlEshRevLoop
ENCODING 290
SWIDTH 480 0
DWIDTH 8 0
BBX 8 16 0 -4
BITMAP
00
00
30
78
58
38
18
18
18
18
18
18
18
1A
0E
00
ENDCHAR
STARTCHAR LtCapAStroke
ENCODING 291
SWIDTH 480 0
DWIDTH 8 0
BBX 8 16 0 -4
BITMAP
00
02
12
34
3C
38
58
6C
7C
CC
C6
86
80
00
00
00
ENDCHAR
STARTCHAR LtCapBStroke
ENCODING 292
SWIDTH 480 0
DWIDTH 8 0
BBX 8 16 0 -4
BITMAP
00
00
FC
C6
C6
C6
FC
C6
F6
F6
C6
FC
00
00
00
00
ENDCHAR
STARTCHAR LtCapBStrokeAlt
ENCODING 293
SWIDTH 480 0
DWIDTH 8 0
BBX 8 16 0 -4
BITMAP
00
00
FC
C6
C6
C6
FC
C6
FE
C6
C6
FC
00
00
00
00
ENDCHAR
STARTCHAR LtCapCStroke
ENCODING 294
SWIDTH 480 0
DWIDTH 8 0
BBX 8 16 0 -4
BITMAP
00
02
3E
66
C8
C8
D0
D0
E0
E0
66
7C
80
00
00
00
ENDCHAR
STARTCHAR LtCapDStroke
ENCODING 295
SWIDTH 480 0
DWIDTH 8 0
BBX 8 16 0 -4
BITMAP
00
00
F8
CC
C6
C6
F6
E6
C6
C6
CC
F8
00
00
00
00
ENDCHAR
STARTCHAR LtCapDStrokeAlt
ENCODING 296
SWIDTH 480 0
DWIDTH 8 0
BBX 8 16 0 -4
BITMAP
00
00
F8
CC
C6
C6
FE
C6
C6
C6
CC
F8
00
00
00
00
ENDCHAR
STARTCHAR LtCapEStroke
ENCODING 297
SWIDTH 480 0
DWIDTH 8 0
BBX 8 16 0 -4
BITMAP
00
02
FE
C6
C6
C8
F8
D8
E0
E2
C2
FE
80
00
00
00
ENDCHAR
STARTCHAR LtCapGStroke
ENCODING 298
SWIDTH 480 0
DWIDTH 8 0
BBX 8 16 0 -4
BITMAP
00
00
3C
66
C0
C0
C0
CE
C6
DF
66
3E
00
00
00
00
ENDCHAR
STARTCHAR LtCapGStrokeAlt
ENCODING 299
SWIDTH 480 0
DWIDTH 8 0
BBX 8 16 0 -4
BITMAP
00
00
3C
66
C0
C0
C0
CE
C6
FE
66
3E
00
00
00
00
ENDCHAR
STARTCHAR LtCapHStroke
ENCODING 300
SWIDTH 480 0
DWIDTH 8 0
BBX 8 16 0 -4
BITMAP
00
00
C6
C6
C6
FE
C6
FE
C6
C6
C6
C6
00
00
00
00
ENDCHAR
STARTCHAR LtCapIStroke
ENCODING 301
SWIDTH 480 0
DWIDTH 8 0
BBX 8 16 0 -4
BITMAP
00
00
7E
18
18
18
7E
18
18
18
18
7E
00
00
00
00
ENDCHAR
STARTCHAR LtCapJStroke
ENCODING 302
SWIDTH 480 0
DWIDTH 8 0
BBX 8 16 0 -4
BITMAP
00
00
1E
0C
0C
0C
3E
0C
0C
CC
CC
78
00
00
00
00
ENDCHAR
STARTCHAR LtCapLStroke
ENCODING 303
SWIDTH 480 0
DWIDTH 8 0
BBX 8 16 0 -4
BITMAP
00
00
60
60
60
78
70
E0
E0
62
62
7E
00
00
00
00
ENDCHAR
STARTCHAR LtCapLStrokeH
ENCODING 304
SWIDTH 480 0
DWIDTH 8 0
BBX 8 16 0 -4
BITMAP
00
00
60
60
60
60
F8
60
60
62
62
7E
00
00
00
00
ENDCHAR
STARTCHAR LtCapLStrokeH2
ENCODING 305
SWIDTH 480 0
DWIDTH 8 0
BBX 8 16 0 -4
BITMAP
00
00
60
60
60
F8
60
F8
60
62
62
7E
00
00
00
00
ENDCHAR
STARTCHAR LtCapOStroke
ENCODING 306
SWIDTH 480 0
DWIDTH 8 0
BBX 8 16 0 -4
BITMAP
00
02
7C
C6
CE
CE
D6
D6
E6
E6
C6
7C
80
00
00
00
ENDCHAR
STARTCHAR LtCapOStrokeH
ENCODING 307
SWIDTH 480 0
DWIDTH 8 0
BBX 8 16 0 -4
BITMAP
00
00
7C
C6
C6
C6
FE
C6
C6
C6
C6
7C
00
00
00
00
ENDCHAR
STARTCHAR LtCapPStroke
ENCODING 308
SWIDTH 480 0
DWIDTH 8 0
BBX 8 16 0 -4
BITMAP
00
00
FC
C6
C6
FE
C6
FC
C0
C0
C0
C0
00
00
00
00
ENDCHAR
STARTCHAR LtCapRStroke
ENCODING 309
SWIDTH 480 0
DWIDTH 8 0
BBX 8 16 0 -4
BITMAP
00
00
7C
66
66
6C
FE
78
6C
6C
66
66
00
00
00
00
ENDCHAR
STARTCHAR LtCapSStrokeD
ENCODING 310
SWIDTH 480 0
DWIDTH 8 0
BBX 8 16 0 -4
BITMAP
00
02
7E
C6
C8
E8
78
1C
26
26
C6
FC
80
00
00
00
ENDCHAR
STARTCHAR LtCapTStroke
ENCODING 311
SWIDTH 480 0
DWIDTH 8 0
BBX 8 16 0 -4
BITMAP
00
00
FF
99
18
18
3C
3C
18
18
18
18
00
00
00
00
ENDCHAR
STARTCHAR LtCapTStrokeD
ENCODING 312
SWIDTH 480 0
DWIDTH 8 0
BBX 8 16 0 -4
BITMAP
00
02
FF
9D
1C
18
18
18
38
38
58
98
80
00
00
00
ENDCHAR
STARTCHAR LtCapUStroke
ENCODING 313
SWIDTH 480 0
DWIDTH 8 0
BBX 8 16 0 -4
BITMAP
00
00
C6
C6
C6
C6
FE
C6
C6
C6
C6
7C
00
00
00
00
ENDCHAR
STARTCHAR LtCapUStrokeD
ENCODING 314
SWIDTH 480 0
DWIDTH 8 0
BBX 8 16 0 -4
BITMAP
00
01
C6
C6
CE
CE
D6
D6
E6
E6
C6
7C
80
00
00
00
ENDCHAR
STARTCHAR LtCapYStroke
ENCODING 315
SWIDTH 480 0
DWIDTH 8 0
BBX 8 16 0 -4
BITMAP
00
00
C3
62
FE
34
38
18
18
18
18
18
00
00
00
00
ENDCHAR
STARTCHAR LtCapZStroke
ENCODING 316
SWIDTH 480 0
DWIDTH 8 0
BBX 8 16 0 -4
BITMAP
00
00
FE
86
8C
18
7C
30
60
62
C2
FE
00
00
00
00
ENDCHAR
STARTCHAR LtCapLamStroke
ENCODING 317
SWIDTH 480 0
DWIDTH 8 0
BBX 8 16 0 -4
BITMAP
00
00
18
18
1E
78
18
1C
2C
26
46
C3
00
00
00
00
ENDCHAR
STARTCHAR LtSmlAStroke
ENCODING 318
SWIDTH 480 0
DWIDTH 8 0
BBX 8 16 0 -4
BITMAP
00
00
00
00
04
7C
6E
16
7E
E6
CE
76
80
00
00
00
ENDCHAR
STARTCHAR LtSmlBStroke
ENCODING 319
SWIDTH 480 0
DWIDTH 8 0
BBX 8 16 0 -4
BITMAP
00
00
C0
F8
C0
DC
E6
C6
C6
C6
E6
DC
00
00
00
00
ENDCHAR
STARTCHAR LtSmlBStrokeAlt
ENCODING 320
SWIDTH 480 0
DWIDTH 8 0
BBX 8 16 0 -4
BITMAP
00
00
C0
C0
C0
DC
E6
C6
FE
C6
E6
DC
00
00
00
00
ENDCHAR
STARTCHAR LtSmlCStroke
ENCODING 321
SWIDTH 480 0
DWIDTH 8 0
BBX 8 16 0 -4
BITMAP
00
00
00
00
04
3C
66
C8
C8
D0
76
3C
20
00
00
00
ENDCHAR
STARTCHAR LtSmlDStroke
ENCODING 322
SWIDTH 480 0
DWIDTH 8 0
BBX 8 16 0 -4
BITMAP
00
00
06
3F
06
76
CE
C6
C6
C6
CE
76
00
00
00
00
ENDCHAR
STARTCHAR LtSmlDStrokeAlt
ENCODING 323
SWIDTH 480 0
DWIDTH 8 0
BBX 8 16 0 -4
BITMAP
00
00
06
06
06
76
CE
C6
FE
C6
CE
76
00
00
00
00
ENDCHAR
STARTCHAR LtSmlEStroke
ENCODING 324
SWIDTH 480 0
DWIDTH 8 0
BBX 8 16 0 -4
BITMAP
00
00
00
00
02
3C
66
CE
FE
D0
66
3C
40
00
00
00
ENDCHAR
STARTCHAR LtSmlGStroke
ENCODING 325
SWIDTH 480 0
DWIDTH 8 0
BBX 8 16 0 -4
BITMAP
00
00
00
00
00
7A
CC
CC
CC
78
C0
7C
DF
DE
7C
00
ENDCHAR
STARTCHAR LtSmlGStrokeAlt
ENCODING 326
SWIDTH 480 0
DWIDTH 8 0
BBX 8 16 0 -4
BITMAP
00
00
00
00
00
7A
CC
FE
CC
78
C0
7C
C6
C6
7C
00
ENDCHAR
STARTCHAR LtSmlHStroke
ENCODING 327
SWIDTH 480 0
DWIDTH 8 0
BBX 8 16 0 -4
BITMAP
00
00
C0
F8
C0
DC
E6
C6
C6
C6
C6
C6
00
00
00
00
ENDCHAR
STARTCHAR LtSmlIStroke
ENCODING 328
SWIDTH 480 0
DWIDTH 8 0
BBX 8 16 0 -4
BITMAP
00
00
18
18
00
38
18
18
7E
18
18
7E
00
00
00
00
ENDCHAR
STARTCHAR LtSmlJStroke
ENCODING 329
SWIDTH 480 0
DWIDTH 8 0
BBX 8 16 0 -4
BITMAP
00
00
0C
0C
00
3C
0C
0C
7E
0C
0C
0C
CC
CC
78
00
ENDCHAR
STARTCHAR LtSmlLStroke
ENCODING 330
SWIDTH 480 0
DWIDTH 8 0
BBX 8 16 0 -4
BITMAP
00
00
38
18
18
1C
1C
38
38
18
18
7E
00
00
00
00
ENDCHAR
STARTCHAR LtSmlLStrokeH
ENCODING 331
SWIDTH 480 0
DWIDTH 8 0
BBX 8 16 0 -4
BITMAP
00
00
38
18
18
18
7E
18
18
18
18
7E
00
00
00
00
ENDCHAR
STARTCHAR LtSmlLStrokeH2
ENCODING 332
SWIDTH 480 0
DWIDTH 8 0
BBX 8 16 0 -4
BITMAP
00
00
38
18
18
18
7E
18
7E
18
18
7E
00
00
00
00
ENDCHAR
STARTCHAR LtSmlOStroke
ENCODING 333
SWIDTH 480 0
DWIDTH 8 0
BBX 8 16 0 -4
BITMAP
00
00
00
00
04
7C
CE
D6
D6
D6
E6
7C
40
00
00
00
ENDCHAR
STARTCHAR LtSmlOStrokeH
ENCODING 334
SWIDTH 480 0
DWIDTH 8 0
BBX 8 16 0 -4
BITMAP
00
00
00
00
00
7C
C6
C6
FE
C6
C6
7C
00
00
00
00
ENDCHAR
STARTCHAR LtSmlPStroke
ENCODING 335
SWIDTH 480 0
DWIDTH 8 0
BBX 8 16 0 -4
BITMAP
00
00
00
00
00
DC
E6
C6
FE
C6
E6
DC
C0
C0
C0
00
ENDCHAR
STARTCHAR LtSmlRStroke
ENCODING 336
SWIDTH 480 0
DWIDTH 8 0
BBX 8 16 0 -4
BITMAP
00
00
00
00
00
EE
76
60
FC
60
60
60
00
00
00
00
ENDCHAR
STARTCHAR LtSmlSStrokeD
ENCODING 337
SWIDTH 480 0
DWIDTH 8 0
BBX 8 16 0 -4
BITMAP
00
00
00
00
04
7C
CE
C8
7C
26
E6
7C
40
00
00
00
ENDCHAR
STARTCHAR LtSmlTStroke
ENCODING 338
SWIDTH 480 0
DWIDTH 8 0
BBX 8 16 0 -4
BITMAP
00
00
00
30
30
FC
30
FC
30
30
36
1C
00
00
00
00
ENDCHAR
STARTCHAR LtSmlTStrokeD
ENCODING 339
SWIDTH 480 0
DWIDTH 8 0
BBX 8 16 0 -4
BITMAP
00
00
02
32
34
FC
38
38
30
30
36
5C
40
00
00
00
ENDCHAR
STARTCHAR LtSmlUStroke
ENCODING 340
SWIDTH 480 0
DWIDTH 8 0
BBX 8 16 0 -4
BITMAP
00
00
00
00
00
C6
C6
FE
C6
C6
CE
76
00
00
00
00
ENDCHAR
STARTCHAR LtSmlUStrokeD
ENCODING 341
SWIDTH 480 0
DWIDTH 8 0
BBX 8 16 0 -4
BITMAP
00
00
00
00
02
C6
CE
CE
D6
E6
EE
76
80
00
00
00
ENDCHAR
STARTCHAR LtSmlYStroke
ENCODING 342
SWIDTH 480 0
DWIDTH 8 0
BBX 8 16 0 -4
BITMAP
00
00
00
00
00
C6
44
FE
64
3C
38
18
10
D0
E0
00
ENDCHAR
STARTCHAR LtSmlZStroke
ENCODING 343
SWIDTH 480 0
DWIDTH 8 0
BBX 8 16 0 -4
BITMAP
00
00
00
00
00
FE
8C
18
7C
30
62
FE
00
00
00
00
ENDCHAR
STARTCHAR LtSmlLamStroke
ENCODING 344
SWIDTH 480 0
DWIDTH 8 0
BBX 8 16 0 -4
BITMAP
00
00
34
3C
30
78
58
3C
2C
6C
46
C6
00
00
00
00
ENDCHAR
STARTCHAR LtSmlTwoStroke
ENCODING 345
SWIDTH 480 0
DWIDTH 8 0
BBX 8 16 0 -4
BITMAP
00
00
7C
C6
C6
0C
08
7C
20
42
FE
FE
00
00
00
00
ENDCHAR
STARTCHAR LtSmlGlotStroke
ENCODING 346
SWIDTH 480 0
DWIDTH 8 0
BBX 8 16 0 -4
BITMAP
00
00
7C
C6
C6
06
0C
18
7E
18
18
18
00
00
00
00
ENDCHAR
STARTCHAR LtSmlAinStroke
ENCODING 347
SWIDTH 480 0
DWIDTH 8 0
BBX 8 16 0 -4
BITMAP
00
00
7C
C6
C6
C0
60
30
FC
30
30
30
00
00
00
00
ENDCHAR
STARTCHAR LtSmlPipeStroke2
ENCODING 348
SWIDTH 480 0
DWIDTH 8 0
BBX 8 16 0 -4
BITMAP
00
00
18
18
18
18
18
7E
18
7E
18
18
18
18
18
00
ENDCHAR
STARTCHAR LtSmlGlotInvStroke
ENCODING 349
SWIDTH 480 0
DWIDTH 8 0
BBX 8 16 0 -4
BITMAP
00
00
18
18
18
7E
18
0C
06
C6
C6
7C
00
00
00
00
ENDCHAR
STARTCHAR LtCapLBelt
ENCODING 350
SWIDTH 480 0
DWIDTH 8 0
BBX 8 16 0 -4
BITMAP
00
00
30
30
30
F0
B6
7C
30
30
32
3E
00
00
00
00
ENDCHAR
STARTCHAR LtSmlLBelt
ENCODING 351
SWIDTH 480 0
DWIDTH 8 0
BBX 8 16 0 -4
BITMAP
00
00
38
18
18
78
DA
7E
18
18
18
7E
00
00
00
00
ENDCHAR
STARTCHAR LtSmlLLhookBelt
ENCODING 352
SWIDTH 480 0
DWIDTH 8 0
BBX 8 16 0 -4
BITMAP
00
00
38
18
18
78
DA
7E
18
18
18
18
18
1A
0E
00
ENDCHAR
STARTCHAR LtCapLMtilde
ENCODING 353
SWIDTH 480 0
DWIDTH 8 0
BBX 8 16 0 -4
BITMAP
00
00
30
30
30
30
74
B8
30
32
32
3E
00
00
00
00
ENDCHAR
STARTCHAR LtSmlLMtilde
ENCODING 354
SWIDTH 480 0
DWIDTH 8 0
BBX 8 16 0 -4
BITMAP
00
00
38
18
18
18
3A
5C
18
18
18
7E
00
00
00
00
ENDCHAR
STARTCHAR LtCapOHorn
ENCODING 355
SWIDTH 480 0
DWIDTH 8 0
BBX 8 16 0 -4
BITMAP
07
03
7E
C6
C6
C6
C6
C6
C6
C6
C6
7C
00
00
00
00
ENDCHAR
STARTCHAR LtCapUHorn
ENCODING 356
SWIDTH 480 0
DWIDTH 8 0
BBX 8 16 0 -4
BITMAP
07
03
C6
C6
C6
C6
C6
C6
C6
C6
C6
7C
00
00
00
00
ENDCHAR
STARTCHAR LtSmlOHorn
ENCODING 357
SWIDTH 480 0
DWIDTH 8 0
BBX 8 16 0 -4
BITMAP
00
00
00
07
03
7E
C6
C6
C6
C6
C6
7C
00
00
00
00
ENDCHAR
STARTCHAR LtSmlUHorn
ENCODING 358
SWIDTH 480 0
DWIDTH 8 0
BBX 8 16 0 -4
BITMAP
00
00
00
07
03
C6
C6
C6
C6
C6
CE
76
00
00
00
00
ENDCHAR
STARTCHAR LtCapADot
ENCODING 359
SWIDTH 480 0
DWIDTH 8 0
BBX 8 16 0 -4
BITMAP
30
30
00
30
38
38
58
4C
7C
CC
86
86
00
00
00
00
ENDCHAR
STARTCHAR LtCapBDot
ENCODING 360
SWIDTH 480 0
DWIDTH 8 0
BBX 8 16 0 -4
BITMAP
30
30
00
FC
C6
C6
C6
FC
C6
C6
C6
FC
00
00
00
00
ENDCHAR
STARTCHAR LtCapCDot
ENCODING 361
SWIDTH 480 0
DWIDTH 8 0
BBX 8 16 0 -4
BITMAP
18
18
00
3C
66
C0
C0
C0
C0
C0
66
3C
00
00
00
00
ENDCHAR
STARTCHAR LtCapDDot
ENCODING 362
SWIDTH 480 0
DWIDTH 8 0
BBX 8 16 0 -4
BITMAP
30
30
00
F8
CC
C6
C6
C6
C6
C6
CC
F8
00
00
00
00
ENDCHAR
STARTCHAR LtCapEDot
ENCODING 363
SWIDTH 480 0
DWIDTH 8 0
BBX 8 16 0 -4
BITMAP
18
18
00
FE
C2
C2
C8
F8
C8
C2
C2
FE
00
00
00
00
ENDCHAR
STARTCHAR LtCapFDot
ENCODING 364
SWIDTH 480 0
DWIDTH 8 0
BBX 8 16 0 -4
BITMAP
30
30
00
FE
C2
C2
C8
F8
C8
C0
C0
C0
00
00
00
00
ENDCHAR
STARTCHAR LtCapGDot
ENCODING 365
SWIDTH 480 0
DWIDTH 8 0
BBX 8 16 0 -4
BITMAP
18
18
00
3C
66
C0
C0
CE
C6
C6
66
3E
00
00
00
00
ENDCHAR
STARTCHAR LtCapHDot
ENCODING 366
SWIDTH 480 0
DWIDTH 8 0
BBX 8 16 0 -4
BITMAP
18
18
C6
C6
C6
C6
FE
C6
C6
C6
C6
C6
00
00
00
00
ENDCHAR
STARTCHAR LtCapIDot
ENCODING 367
SWIDTH 480 0
DWIDTH 8 0
BBX 8 16 0 -4
BITMAP
18
18
00
7E
18
18
18
18
18
18
18
7E
00
00
00
00
ENDCHAR
STARTCHAR LtCapMDot
ENCODING 368
SWIDTH 480 0
DWIDTH 8 0
BBX 8 16 0 -4
BITMAP
30
30
86
C6
EE
EE
FE
B6
B6
86
86
86
00
00
00
00
ENDCHAR
STARTCHAR LtCapNDot
ENCODING 369
SWIDTH 480 0
DWIDTH 8 0
BBX 8 16 0 -4
BITMAP
18
18
00
C2
E2
E2
B2
BA
9A
8E
8E
86
00
00
00
00
ENDCHAR
STARTCHAR LtCapODot
ENCODING 370
SWIDTH 480 0
DWIDTH 8 0
BBX 8 16 0 -4
BITMAP
18
18
00
7C
C6
C6
C6
C6
C6
C6
C6
7C
00
00
00
00
ENDCHAR
STARTCHAR LtCapPDot
ENCODING 371
SWIDTH 480 0
DWIDTH 8 0
BBX 8 16 0 -4
BITMAP
30
30
00
FC
C6
C6
C6
FC
C0
C0
C0
C0
00
00
00
00
ENDCHAR
STARTCHAR LtCapQDot
ENCODING 372
SWIDTH 480 0
DWIDTH 8 0
BBX 8 16 0 -4
BITMAP
18
18
00
7C
C6
C6
C6
C6
C6
F6
DE
7C
06
02
00
00
ENDCHAR
STARTCHAR LtCapRDot
ENCODING 373
SWIDTH 480 0
DWIDTH 8 0
BBX 8 16 0 -4
BITMAP
30
30
00
FC
C6
C6
C6
FC
D8
CC
C6
C6
00
00
00
00
ENDCHAR
STARTCHAR LtCapSDot
ENCODING 374
SWIDTH 480 0
DWIDTH 8 0
BBX 8 16 0 -4
BITMAP
18
18
00
7C
C6
C0
70
3C
0E
06
C6
7C
00
00
00
00
ENDCHAR
STARTCHAR LtCapTDot
ENCODING 375
SWIDTH 480 0
DWIDTH 8 0
BBX 8 16 0 -4
BITMAP
18
18
00
FF
99
18
18
18
18
18
18
18
00
00
00
00
ENDCHAR
STARTCHAR LtCapWDot
ENCODING 376
SWIDTH 480 0
DWIDTH 8 0
BBX 8 16 0 -4
BITMAP
18
18
C2
C2
C2
DA
DA
DA
FE
6C
6C
6C
00
00
00
00
ENDCHAR
STARTCHAR LtCapXDot
ENCODING 377
SWIDTH 480 0
DWIDTH 8 0
BBX 8 16 0 -4
BITMAP
18
18
C6
C6
64
68
38
38
2C
4C
C6
C6
00
00
00
00
ENDCHAR
STARTCHAR LtCapYDot
ENCODING 378
SWIDTH 480 0
DWIDTH 8 0
BBX 8 16 0 -4
BITMAP
18
18
C3
62
64
34
38
18
18
18
18
18
00
00
00
00
ENDCHAR
STARTCHAR LtCapZDot
ENCODING 379
SWIDTH 480 0
DWIDTH 8 0
BBX 8 16 0 -4
BITMAP
30
30
00
FE
86
8C
18
30
60
C2
C2
FE
00
00
00
00
ENDCHAR
STARTCHAR LtSmlADot
ENCODING 380
SWIDTH 480 0
DWIDTH 8 0
BBX 8 16 0 -4
BITMAP
00
00
18
18
00
7C
66
06
7E
C6
CE
76
00
00
00
00
ENDCHAR
STARTCHAR LtSmlBDot
ENCODING 381
SWIDTH 480 0
DWIDTH 8 0
BBX 8 16 0 -4
BITMAP
18
18
C0
C0
C0
DC
E6
C6
C6
C6
E6
DC
00
00
00
00
ENDCHAR
STARTCHAR LtSmlCDot
ENCODING 382
SWIDTH 480 0
DWIDTH 8 0
BBX 8 16 0 -4
BITMAP
00
00
18
18
00
3C
66
C0
C0
C0
66
3C
00
00
00
00
ENDCHAR
STARTCHAR LtSmlDDot
ENCODING 383
SWIDTH 480 0
DWIDTH 8 0
BBX 8 16 0 -4
BITMAP
30
30
06
06
06
76
CE
C6
C6
C6
CE
76
00
00
00
00
ENDCHAR
STARTCHAR LtSmlEDot
ENCODING 384
SWIDTH 480 0
DWIDTH 8 0
BBX 8 16 0 -4
BITMAP
00
00
18
18
00
3C
66
C6
FE
C0
66
3C
00
00
00
00
ENDCHAR
STARTCHAR LtSmlFDot
ENCODING 385
SWIDTH 480 0
DWIDTH 8 0
BBX 8 16 0 -4
BITMAP
0C
0C
00
1E
32
30
FC
30
30
30
30
30
00
00
00
00
ENDCHAR
STARTCHAR LtSmlGDot
ENCODING 386
SWIDTH 480 0
DWIDTH 8 0
BBX 8 16 0 -4
BITMAP
00
00
30
30
00
7A
CC
CC
CC
78
C0
7C
C6
C6
7C
00
ENDCHAR
STARTCHAR LtSmlHDot
ENCODING 387
SWIDTH 480 0
DWIDTH 8 0
BBX 8 16 0 -4
BITMAP
18
18
C0
C0
C0
DC
E6
C6
C6
C6
C6
C6
00
00
00
00
ENDCHAR
STARTCHAR LtSmlMDot
ENCODING 388
SWIDTH 480 0
DWIDTH 8 0
BBX 8 16 0 -4
BITMAP
00
00
30
30
00
AC
FE
D6
D6
D6
D6
D6
00
00
00
00
ENDCHAR
STARTCHAR LtSmlNDot
ENCODING 389
SWIDTH 480 0
DWIDTH 8 0
BBX 8 16 0 -4
BITMAP
00
00
30
30
00
DC
E6
C6
C6
C6
C6
C6
00
00
00
00
ENDCHAR
STARTCHAR LtSmlODot
ENCODING 390
SWIDTH 480 0
DWIDTH 8 0
BBX 8 16 0 -4
BITMAP
00
00
18
18
00
7C
C6
C6
C6
C6
C6
7C
00
00
00
00
ENDCHAR
STARTCHAR LtSmlPDot
ENCODING 391
SWIDTH 480 0
DWIDTH 8 0
BBX 8 16 0 -4
BITMAP
00
00
30
30
00
DC
E6
C6
C6
C6
E6
DC
C0
C0
C0
00
ENDCHAR
STARTCHAR LtSmlQDot
ENCODING 392
SWIDTH 480 0
DWIDTH 8 0
BBX 8 16 0 -4
BITMAP
00
00
30
30
00
76
CE
C6
C6
C6
CE
76
06
06
06
00
ENDCHAR
STARTCHAR LtSmlRDot
ENCODING 393
SWIDTH 480 0
DWIDTH 8 0
BBX 8 16 0 -4
BITMAP
00
00
18
18
00
EE
76
60
60
60
60
60
00
00
00
00
ENDCHAR
STARTCHAR LtSmlSDot
ENCODING 394
SWIDTH 480 0
DWIDTH 8 0
BBX 8 16 0 -4
BITMAP
00
00
18
18
00
7C
C6
C0
7C
06
C6
7C
00
00
00
00
ENDCHAR
STARTCHAR LtSmlTDot
ENCODING 395
SWIDTH 480 0
DWIDTH 8 0
BBX 8 16 0 -4
BITMAP
30
30
00
30
30
FC
30
30
30
30
36
1C
00
00
00
00
ENDCHAR
STARTCHAR LtSmlWDot
ENCODING 396
SWIDTH 480 0
DWIDTH 8 0
BBX 8 16 0 -4
BITMAP
00
00
18
18
00
C2
DA
DA
DA
7C
6C
6C
00
00
00
00
ENDCHAR
STARTCHAR LtSmlXDot
ENCODING 397
SWIDTH 480 0
DWIDTH 8 0
BBX 8 16 0 -4
BITMAP
00
00
18
18
00
C6
E6
68
38
2C
CE
C6
00
00
00
00
ENDCHAR
STARTCHAR LtSmlYDot
ENCODING 398
SWIDTH 480 0
DWIDTH 8 0
BBX 8 16 0 -4
BITMAP
00
00
18
18
00
C2
C6
64
64
3C
38
18
10
D0
E0
00
ENDCHAR
STARTCHAR LtSmlZDot
ENCODING 399
SWIDTH 480 0
DWIDTH 8 0
BBX 8 16 0 -4
BITMAP
00
00
18
18
00
FE
8E
0C
38
60
E2
FE
00
00
00
00
ENDCHAR
STARTCHAR LtSmlSLongDot
ENCODING 400
SWIDTH 480 0
DWIDTH 8 0
BBX 8 16 0 -4
BITMAP
0C
0C
00
1E
36
30
30
30
30
30
30
30
00
00
00
00
ENDCHAR
STARTCHAR LtCapSAcuteDot
ENCODING 401
SWIDTH 480 0
DWIDTH 8 0
BBX 8 16 0 -4
BITMAP
30
30
0C
38
7C
C6
E0
78
1C
06
C6
7C
00
00
00
00
ENDCHAR
STARTCHAR LtSmlSAcuteDot
ENCODING 402
SWIDTH 480 0
DWIDTH 8 0
BBX 8 16 0 -4
BITMAP
30
30
0C
38
00
7C
C6
C0
7C
06
C6
7C
00
00
00
00
ENDCHAR
STARTCHAR LtCapSCaronDot
ENCODING 403
SWIDTH 480 0
DWIDTH 8 0
BBX 8 16 0 -4
BITMAP
10
10
6C
38
7C
C6
E0
78
1C
06
C6
7C
00
00
00
00
ENDCHAR
STARTCHAR LtSmlSCaronDot
ENCODING 404
SWIDTH 480 0
DWIDTH 8 0
BBX 8 16 0 -4
BITMAP
18
18
64
38
10
7C
C6
C0
7C
06
C6
7C
00
00
00
00
ENDCHAR
STARTCHAR LtSmlIDotless
ENCODING 405
SWIDTH 480 0
DWIDTH 8 0
BBX 8 16 0 -4
BITMAP
00
00
00
00
00
38
18
18
18
18
18
7E
00
00
00
00
ENDCHAR
STARTCHAR LtSmlJDotless
ENCODING 406
SWIDTH 480 0
DWIDTH 8 0
BBX 8 16 0 -4
BITMAP
00
00
00
00
00
3C
0C
0C
0C
0C
0C
0C
CC
CC
78
00
ENDCHAR
STARTCHAR LtCapADrss
ENCODING 407
SWIDTH 480 0
DWIDTH 8 0
BBX 8 16 0 -4
BITMAP
6C
6C
00
30
38
38
58
4C
7C
CC
86
86
00
00
00
00
ENDCHAR
STARTCHAR LtCapEDrss
ENCODING 408
SWIDTH 480 0
DWIDTH 8 0
BBX 8 16 0 -4
BITMAP
6C
6C
00
FE
C2
C2
C8
F8
C8
C2
C2
FE
00
00
00
00
ENDCHAR
STARTCHAR LtCapHDrss
ENCODING 409
SWIDTH 480 0
DWIDTH 8 0
BBX 8 16 0 -4
BITMAP
6C
6C
00
C6
C6
C6
C6
FE
C6
C6
C6
C6
00
00
00
00
ENDCHAR
STARTCHAR LtCapIDrss
ENCODING 410
SWIDTH 480 0
DWIDTH 8 0
BBX 8 16 0 -4
BITMAP
36
36
00
7E
18
18
18
18
18
18
18
7E
00
00
00
00
ENDCHAR
STARTCHAR LtCapNDrss
ENCODING 411
SWIDTH 480 0
DWIDTH 8 0
BBX 8 16 0 -4
BITMAP
6C
6C
00
C2
E2
E2
B2
BA
9A
8E
8E
86
00
00
00
00
ENDCHAR
STARTCHAR LtCapODrss
ENCODING 412
SWIDTH 480 0
DWIDTH 8 0
BBX 8 16 0 -4
BITMAP
6C
6C
00
7C
C6
C6
C6
C6
C6
C6
C6
7C
00
00
00
00
ENDCHAR
STARTCHAR LtCapUDrss
ENCODING 413
SWIDTH 480 0
DWIDTH 8 0
BBX 8 16 0 -4
BITMAP
6C
6C
00
C6
C6
C6
C6
C6
C6
C6
C6
7C
00
00
00
00
ENDCHAR
STARTCHAR LtCapWDrss
ENCODING 414
SWIDTH 480 0
DWIDTH 8 0
BBX 8 16 0 -4
BITMAP
6C
6C
00
C2
C2
DA
DA
DA
FE
6C
6C
6C
00
00
00
00
ENDCHAR
STARTCHAR LtCapXDrss
ENCODING 415
SWIDTH 480 0
DWIDTH 8 0
BBX 8 16 0 -4
BITMAP
6C
6C
82
C6
64
68
38
38
2C
4C
C6
C6
00
00
00
00
ENDCHAR
STARTCHAR LtCapYDrss
ENCODING 416
SWIDTH 480 0
DWIDTH 8 0
BBX 8 16 0 -4
BITMAP
36
36
00
C3
62
64
34
38
18
18
18
18
00
00
00
00
ENDCHAR
STARTCHAR LtSmlADrss
ENCODING 417
SWIDTH 480 0
DWIDTH 8 0
BBX 8 16 0 -4
BITMAP
00
00
6C
6C
00
7C
66
06
7E
C6
CE
76
00
00
00
00
ENDCHAR
STARTCHAR LtSmlEDrss
ENCODING 418
SWIDTH 480 0
DWIDTH 8 0
BBX 8 16 0 -4
BITMAP
00
00
6C
6C
00
3C
66
C6
FE
C0
66
3C
00
00
00
00
ENDCHAR
STARTCHAR LtSmlHDrss
ENCODING 419
SWIDTH 480 0
DWIDTH 8 0
BBX 8 16 0 -4
BITMAP
36
36
C0
C0
C0
DC
E6
C6
C6
C6
C6
C6
00
00
00
00
ENDCHAR
STARTCHAR LtSmlIDrss
ENCODING 420
SWIDTH 480 0
DWIDTH 8 0
BBX 8 16 0 -4
BITMAP
00
00
6C
6C
00
38
18
18
18
18
18
7E
00
00
00
00
ENDCHAR
STARTCHAR LtSmlNDrss
ENCODING 421
SWIDTH 480 0
DWIDTH 8 0
BBX 8 16 0 -4
BITMAP
00
00
6C
6C
00
DC
E6
C6
C6
C6
C6
C6
00
00
00
00
ENDCHAR
STARTCHAR LtSmlODrss
ENCODING 422
SWIDTH 480 0
DWIDTH 8 0
BBX 8 16 0 -4
BITMAP
00
00
6C
6C
00
7C
C6
C6
C6
C6
C6
7C
00
00
00
00
ENDCHAR
STARTCHAR LtSmlTDrss
ENCODING 423
SWIDTH 480 0
DWIDTH 8 0
BBX 8 16 0 -4
BITMAP
6C
6C
00
30
30
FC
30
30
30
30
36
1C
00
00
00
00
ENDCHAR
STARTCHAR LtSmlUDrss
ENCODING 424
SWIDTH 480 0
DWIDTH 8 0
BBX 8 16 0 -4
BITMAP
00
00
6C
6C
00
C6
C6
C6
C6
C6
CE
76
00
00
00
00
ENDCHAR
STARTCHAR LtSmlWDrss
ENCODING 425
SWIDTH 480 0
DWIDTH 8 0
BBX 8 16 0 -4
BITMAP
00
00
6C
6C
00
C2
DA
DA
DA
7C
6C
6C
00
00
00
00
ENDCHAR
STARTCHAR LtSmlXDrss
ENCODING 426
SWIDTH 480 0
DWIDTH 8 0
BBX 8 16 0 -4
BITMAP
00
00
6C
6C
00
C6
E6
68
38
2C
CE
C6
00
00
00
00
ENDCHAR
STARTCHAR LtSmlYDrss
ENCODING 427
SWIDTH 480 0
DWIDTH 8 0
BBX 8 16 0 -4
BITMAP
00
00
6C
6C
00
C2
C6
64
64
3C
38
18
10
D0
E0
00
ENDCHAR
STARTCHAR LtCapUMacronDrss
ENCODING 428
SWIDTH 480 0
DWIDTH 8 0
BBX 8 16 0 -4
BITMAP
6C
00
7C
00
C6
C6
C6
C6
C6
C6
C6
7C
00
00
00
00
ENDCHAR
STARTCHAR LtSmlUMacronDrss
ENCODING 429
SWIDTH 480 0
DWIDTH 8 0
BBX 8 16 0 -4
BITMAP
6C
6C
00
7C
00
C6
C6
C6
C6
C6
CE
76
00
00
00
00
ENDCHAR
STARTCHAR LtCapOTildeDrss
ENCODING 430
SWIDTH 480 0
DWIDTH 8 0
BBX 8 16 0 -4
BITMAP
6C
00
34
58
7C
C6
C6
C6
C6
C6
C6
7C
00
00
00
00
ENDCHAR
STARTCHAR LtSmlOTildeDrss
ENCODING 431
SWIDTH 480 0
DWIDTH 8 0
BBX 8 16 0 -4
BITMAP
6C
00
34
58
00
7C
C6
C6
C6
C6
C6
7C
00
00
00
00
ENDCHAR
STARTCHAR LtCapARing
ENCODING 432
SWIDTH 480 0
DWIDTH 8 0
BBX 8 16 0 -4
BITMAP
38
6C
38
10
38
38
58
4C
7C
CC
86
86
00
00
00
00
ENDCHAR
STARTCHAR LtCapURing
ENCODING 433
SWIDTH 480 0
DWIDTH 8 0
BBX 8 16 0 -4
BITMAP
38
6C
38
82
C6
C6
C6
C6
C6
C6
C6
7C
00
00
00
00
ENDCHAR
STARTCHAR LtSmlARing
ENCODING 434
SWIDTH 480 0
DWIDTH 8 0
BBX 8 16 0 -4
BITMAP
00
38
6C
38
00
7C
66
06
7E
C6
CE
76
00
00
00
00
ENDCHAR
STARTCHAR LtSmlURing
ENCODING 435
SWIDTH 480 0
DWIDTH 8 0
BBX 8 16 0 -4
BITMAP
00
38
6C
38
00
C6
C6
C6
C6
C6
CE
76
00
00
00
00
ENDCHAR
STARTCHAR LtSmlWRing
ENCODING 436
SWIDTH 480 0
DWIDTH 8 0
BBX 8 16 0 -4
BITMAP
00
38
6C
38
00
C2
DA
DA
DA
7C
6C
6C
00
00
00
00
ENDCHAR
STARTCHAR LtSmlYRing
ENCODING 437
SWIDTH 480 0
DWIDTH 8 0
BBX 8 16 0 -4
BITMAP
00
38
6C
38
00
C2
C6
64
64
3C
38
18
10
D0
E0
00
ENDCHAR
STARTCHAR LtSmlAHalfringr
ENCODING 438
SWIDTH 480 0
DWIDTH 8 0
BBX 8 16 0 -4
BITMAP
00
0C
06
0C
00
7C
66
06
7E
C6
CE
76
00
00
00
00
ENDCHAR
STARTCHAR LtCapAMacron
ENCODING 439
SWIDTH 480 0
DWIDTH 8 0
BBX 8 16 0 -4
BITMAP
7C
7C
00
30
38
38
58
4C
7C
CC
86
86
00
00
00
00
ENDCHAR
STARTCHAR LtCapEMacron
ENCODING 440
SWIDTH 480 0
DWIDTH 8 0
BBX 8 16 0 -4
BITMAP
7C
7C
00
FE
C2
C2
C8
F8
C8
C2
C2
FE
00
00
00
00
ENDCHAR
STARTCHAR LtCapGMacron
ENCODING 441
SWIDTH 480 0
DWIDTH 8 0
BBX 8 16 0 -4
BITMAP
7C
7C
00
3C
66
C0
C0
CE
C6
C6
66
3E
00
00
00
00
ENDCHAR
STARTCHAR LtCapIMacron
ENCODING 442
SWIDTH 480 0
DWIDTH 8 0
BBX 8 16 0 -4
BITMAP
3E
3E
00
7E
18
18
18
18
18
18
18
7E
00
00
00
00
ENDCHAR
STARTCHAR LtCapNMacron
ENCODING 443
SWIDTH 480 0
DWIDTH 8 0
BBX 8 16 0 -4
BITMAP
7C
7C
00
C2
E2
E2
B2
BA
9A
8E
8E
86
00
00
00
00
ENDCHAR
STARTCHAR LtCapOMacron
ENCODING 444
SWIDTH 480 0
DWIDTH 8 0
BBX 8 16 0 -4
BITMAP
7C
7C
00
7C
C6
C6
C6
C6
C6
C6
C6
7C
00
00
00
00
ENDCHAR
STARTCHAR LtCapUMacron
ENCODING 445
SWIDTH 480 0
DWIDTH 8 0
BBX 8 16 0 -4
BITMAP
7C
7C
00
C6
C6
C6
C6
C6
C6
C6
C6
7C
00
00
00
00
ENDCHAR
STARTCHAR LtCapYMacron
ENCODING 446
SWIDTH 480 0
DWIDTH 8 0
BBX 8 16 0 -4
BITMAP
7E
7E
00
C3
62
64
34
38
18
18
18
18
00
00
00
00
ENDCHAR
STARTCHAR LtSmlAMacron
ENCODING 447
SWIDTH 480 0
DWIDTH 8 0
BBX 8 16 0 -4
BITMAP
00
00
7C
7C
00
7C
66
06
7E
C6
CE
76
00
00
00
00
ENDCHAR
STARTCHAR LtSmlEMacron
ENCODING 448
SWIDTH 480 0
DWIDTH 8 0
BBX 8 16 0 -4
BITMAP
00
00
7C
7C
00
3C
66
C6
FE
C0
66
3C
00
00
00
00
ENDCHAR
STARTCHAR LtSmlGMacron
ENCODING 449
SWIDTH 480 0
DWIDTH 8 0
BBX 8 16 0 -4
BITMAP
00
00
7C
7C
00
7A
CC
CC
CC
78
C0
7C
C6
C6
7C
00
ENDCHAR
STARTCHAR LtSmlIMacron
ENCODING 450
SWIDTH 480 0
DWIDTH 8 0
BBX 8 16 0 -4
BITMAP
00
00
3C
3C
00
38
18
18
18
18
18
7E
00
00
00
00
ENDCHAR
STARTCHAR LtSmlNMacron
ENCODING 451
SWIDTH 480 0
DWIDTH 8 0
BBX 8 16 0 -4
BITMAP
00
00
7C
7C
00
DC
E6
C6
C6
C6
C6
C6
00
00
00
00
ENDCHAR
STARTCHAR LtSmlOMacron
ENCODING 452
SWIDTH 480 0
DWIDTH 8 0
BBX 8 16 0 -4
BITMAP
00
00
7C
7C
00
7C
C6
C6
C6
C6
C6
7C
00
00
00
00
ENDCHAR
STARTCHAR LtSmlUMacron
ENCODING 453
SWIDTH 480 0
DWIDTH 8 0
BBX 8 16 0 -4
BITMAP
00
00
7C
7C
00
C6
C6
C6
C6
C6
CE
76
00
00
00
00
ENDCHAR
STARTCHAR LtSmlYMacron
ENCODING 454
SWIDTH 480 0
DWIDTH 8 0
BBX 8 16 0 -4
BITMAP
00
00
7C
7C
00
C2
C6
64
64
3C
38
18
10
D0
E0
00
ENDCHAR
STARTCHAR LtCapAEMacron
ENCODING 455
SWIDTH 480 0
DWIDTH 8 0
BBX 8 16 0 -4
BITMAP
3E
3E
00
1E
3A
38
58
5E
78
D8
9A
9E
00
00
00
00
ENDCHAR
STARTCHAR LtSmlAEMacron
ENCODING 456
SWIDTH 480 0
DWIDTH 8 0
BBX 8 16 0 -4
BITMAP
00
00
7C
7C
00
6E
DA
1A
7E
D8
DA
EE
00
00
00
00
ENDCHAR
STARTCHAR LtCapADotMacron
ENCODING 457
SWIDTH 480 0
DWIDTH 8 0
BBX 8 16 0 -4
BITMAP
7C
10
38
10
10
38
38
4C
7C
CC
86
86
00
00
00
00
ENDCHAR
STARTCHAR LtCapODotMacron
ENCODING 458
SWIDTH 480 0
DWIDTH 8 0
BBX 8 16 0 -4
BITMAP
7C
10
38
10
7C
C6
C6
C6
C6
C6
C6
7C
00
00
00
00
ENDCHAR
STARTCHAR LtSmlADotMacron
ENCODING 459
SWIDTH 480 0
DWIDTH 8 0
BBX 8 16 0 -4
BITMAP
7C
7C
10
38
10
7C
66
06
7E
C6
CE
76
00
00
00
00
ENDCHAR
STARTCHAR LtSmlODotMacron
ENCODING 460
SWIDTH 480 0
DWIDTH 8 0
BBX 8 16 0 -4
BITMAP
7C
7C
10
38
10
7C
C6
C6
C6
C6
C6
7C
00
00
00
00
ENDCHAR
STARTCHAR LtCapADrssMacron
ENCODING 461
SWIDTH 480 0
DWIDTH 8 0
BBX 8 16 0 -4
BITMAP
7C
00
6C
00
10
38
38
4C
7C
CC
86
86
00
00
00
00
ENDCHAR
STARTCHAR LtCapODrssMacron
ENCODING 462
SWIDTH 480 0
DWIDTH 8 0
BBX 8 16 0 -4
BITMAP
7C
00
6C
00
7C
C6
C6
C6
C6
C6
C6
7C
00
00
00
00
ENDCHAR
STARTCHAR LtCapUDrssMacron
ENCODING 463
SWIDTH 480 0
DWIDTH 8 0
BBX 8 16 0 -4
BITMAP
7C
00
6C
00
C6
C6
C6
C6
C6
C6
C6
7C
00
00
00
00
ENDCHAR
STARTCHAR LtSmlADrssMacron
ENCODING 464
SWIDTH 480 0
DWIDTH 8 0
BBX 8 16 0 -4
BITMAP
7C
00
6C
6C
00
7C
66
06
7E
C6
CE
76
00
00
00
00
ENDCHAR
STARTCHAR LtSmlODrssMacron
ENCODING 465
SWIDTH 480 0
DWIDTH 8 0
BBX 8 16 0 -4
BITMAP
7C
00
6C
6C
00
7C
C6
C6
C6
C6
C6
7C
00
00
00
00
ENDCHAR
STARTCHAR LtSmlUDrssMacron
ENCODING 466
SWIDTH 480 0
DWIDTH 8 0
BBX 8 16 0 -4
BITMAP
7C
00
6C
6C
00
C6
C6
C6
C6
C6
CE
76
00
00
00
00
ENDCHAR
STARTCHAR LtCapOTildeMacron
ENCODING 467
SWIDTH 480 0
DWIDTH 8 0
BBX 8 16 0 -4
BITMAP
7C
36
5C
00
7C
C6
C6
C6
C6
C6
C6
7C
00
00
00
00
ENDCHAR
STARTCHAR LtSmlOTildeMacron
ENCODING 468
SWIDTH 480 0
DWIDTH 8 0
BBX 8 16 0 -4
BITMAP
7C
24
7C
48
00
7C
C6
C6
C6
C6
C6
7C
00
00
00
00
ENDCHAR
STARTCHAR LtCapAAcute
ENCODING 469
SWIDTH 480 0
DWIDTH 8 0
BBX 8 16 0 -4
BITMAP
0C
18
10
30
38
38
58
4C
7C
CC
86
86
00
00
00
00
ENDCHAR
STARTCHAR LtCapCAcute
ENCODING 470
SWIDTH 480 0
DWIDTH 8 0
BBX 8 16 0 -4
BITMAP
0C
18
10
3C
66
C0
C0
C0
C0
C0
66
3C
00
00
00
00
ENDCHAR
STARTCHAR LtCapEAcute
ENCODING 471
SWIDTH 480 0
DWIDTH 8 0
BBX 8 16 0 -4
BITMAP
0C
18
10
FE
C2
C2
C8
F8
C8
C2
C2
FE
00
00
00
00
ENDCHAR
STARTCHAR LtCapGAcute
ENCODING 472
SWIDTH 480 0
DWIDTH 8 0
BBX 8 16 0 -4
BITMAP
0C
18
10
3C
66
C0
C0
CE
C6
C6
66
3E
00
00
00
00
ENDCHAR
STARTCHAR LtCapIAcute
ENCODING 473
SWIDTH 480 0
DWIDTH 8 0
BBX 8 16 0 -4
BITMAP
0C
18
10
7E
18
18
18
18
18
18
18
7E
00
00
00
00
ENDCHAR
STARTCHAR LtCapKAcute
ENCODING 474
SWIDTH 480 0
DWIDTH 8 0
BBX 8 16 0 -4
BITMAP
0C
18
10
C6
CC
C8
D8
F8
CC
CC
C6
C6
00
00
00
00
ENDCHAR
STARTCHAR LtCapLAcute
ENCODING 475
SWIDTH 480 0
DWIDTH 8 0
BBX 8 16 0 -4
BITMAP
0C
18
10
C0
C0
C0
C0
C0
C0
C2
C2
FE
00
00
00
00
ENDCHAR
STARTCHAR LtCapMAcute
ENCODING 476
SWIDTH 480 0
DWIDTH 8 0
BBX 8 16 0 -4
BITMAP
0C
18
10
C6
C6
EE
FE
B6
B6
86
86
86
00
00
00
00
ENDCHAR
STARTCHAR LtCapNAcute
ENCODING 477
SWIDTH 480 0
DWIDTH 8 0
BBX 8 16 0 -4
BITMAP
0C
18
10
C2
E2
E2
B2
BA
9A
8E
8E
86
00
00
00
00
ENDCHAR
STARTCHAR LtCapOAcute
ENCODING 478
SWIDTH 480 0
DWIDTH 8 0
BBX 8 16 0 -4
BITMAP
0C
18
10
7C
C6
C6
C6
C6
C6
C6
C6
7C
00
00
00
00
ENDCHAR
STARTCHAR LtCapPAcute
ENCODING 479
SWIDTH 480 0
DWIDTH 8 0
BBX 8 16 0 -4
BITMAP
18
30
20
FC
C6
C6
C6
FC
C0
C0
C0
C0
00
00
00
00
ENDCHAR
STARTCHAR LtCapRAcute
ENCODING 480
SWIDTH 480 0
DWIDTH 8 0
BBX 8 16 0 -4
BITMAP
0C
18
10
FC
C6
C6
C6
FC
D8
CC
C6
C6
00
00
00
00
ENDCHAR
STARTCHAR LtCapSAcute
ENCODING 481
SWIDTH 480 0
DWIDTH 8 0
BBX 8 16 0 -4
BITMAP
0C
18
10
7C
C6
C0
70
3C
0E
06
C6
7C
00
00
00
00
ENDCHAR
STARTCHAR LtCapUAcute
ENCODING 482
SWIDTH 480 0
DWIDTH 8 0
BBX 8 16 0 -4
BITMAP
0C
18
10
C6
C6
C6
C6
C6
C6
C6
C6
7C
00
00
00
00
ENDCHAR
STARTCHAR LtCapWAcute
ENCODING 483
SWIDTH 480 0
DWIDTH 8 0
BBX 8 16 0 -4
BITMAP
0C
18
10
C2
C2
DA
DA
DA
FE
6C
6C
6C
00
00
00
00
ENDCHAR
STARTCHAR LtCapYAcute
ENCODING 484
SWIDTH 480 0
DWIDTH 8 0
BBX 8 16 0 -4
BITMAP
0C
18
10
C3
62
64
34
38
18
18
18
18
00
00
00
00
ENDCHAR
STARTCHAR LtCapZAcute
ENCODING 485
SWIDTH 480 0
DWIDTH 8 0
BBX 8 16 0 -4
BITMAP
0C
18
10
FE
86
8C
18
30
60
C2
C2
FE
00
00
00
00
ENDCHAR
STARTCHAR LtCapEpsAcute
ENCODING 486
SWIDTH 480 0
DWIDTH 8 0
BBX 8 16 0 -4
BITMAP
0C
18
10
7C
C6
C0
40
78
C0
C0
C6
7C
00
00
00
00
ENDCHAR
STARTCHAR LtCapERevAcute
ENCODING 487
SWIDTH 480 0
DWIDTH 8 0
BBX 8 16 0 -4
BITMAP
0C
18
10
FE
86
86
26
3E
26
86
86
FE
00
00
00
00
ENDCHAR
STARTCHAR LtCapCTrndAcute
ENCODING 488
SWIDTH 480 0
DWIDTH 8 0
BBX 8 16 0 -4
BITMAP
0C
18
10
78
CC
06
06
06
06
06
CC
78
00
00
00
00
ENDCHAR
STARTCHAR LtSmlAAcute
ENCODING 489
SWIDTH 480 0
DWIDTH 8 0
BBX 8 16 0 -4
BITMAP
00
0C
18
10
00
7C
66
06
7E
C6
CE
76
00
00
00
00
ENDCHAR
STARTCHAR LtSmlCAcute
ENCODING 490
SWIDTH 480 0
DWIDTH 8 0
BBX 8 16 0 -4
BITMAP
00
0C
18
10
00
3C
66
C0
C0
C0
66
3C
00
00
00
00
ENDCHAR
STARTCHAR LtSmlEAcute
ENCODING 491
SWIDTH 480 0
DWIDTH 8 0
BBX 8 16 0 -4
BITMAP
00
0C
18
10
00
3C
66
C6
FE
C0
66
3C
00
00
00
00
ENDCHAR
STARTCHAR LtSmlGAcute
ENCODING 492
SWIDTH 480 0
DWIDTH 8 0
BBX 8 16 0 -4
BITMAP
00
18
30
20
00
7A
CC
CC
CC
78
C0
7C
C6
C6
7C
00
ENDCHAR
STARTCHAR LtSmlIAcute
ENCODING 493
SWIDTH 480 0
DWIDTH 8 0
BBX 8 16 0 -4
BITMAP
00
0C
18
10
00
38
18
18
18
18
18
7E
00
00
00
00
ENDCHAR
STARTCHAR LtSmlKAcute
ENCODING 494
SWIDTH 480 0
DWIDTH 8 0
BBX 8 16 0 -4
BITMAP
0C
18
10
C0
C0
C6
CC
D0
F8
CC
C6
C6
00
00
00
00
ENDCHAR
STARTCHAR LtSmlLAcute
ENCODING 495
SWIDTH 480 0
DWIDTH 8 0
BBX 8 16 0 -4
BITMAP
0C
18
10
38
18
18
18
18
18
18
18
7E
00
00
00
00
ENDCHAR
STARTCHAR LtSmlMAcute
ENCODING 496
SWIDTH 480 0
DWIDTH 8 0
BBX 8 16 0 -4
BITMAP
00
0C
18
10
00
AC
FE
D6
D6
D6
D6
D6
00
00
00
00
ENDCHAR
STARTCHAR LtSmlNAcute
ENCODING 497
SWIDTH 480 0
DWIDTH 8 0
BBX 8 16 0 -4
BITMAP
00
0C
18
10
00
DC
E6
C6
C6
C6
C6
C6
00
00
00
00
ENDCHAR
STARTCHAR LtSmlOAcute
ENCODING 498
SWIDTH 480 0
DWIDTH 8 0
BBX 8 16 0 -4
BITMAP
00
0C
18
10
00
7C
C6
C6
C6
C6
C6
7C
00
00
00
00
ENDCHAR
STARTCHAR LtSmlPAcute
ENCODING 499
SWIDTH 480 0
DWIDTH 8 0
BBX 8 16 0 -4
BITMAP
00
18
30
20
00
DC
E6
C6
C6
C6
E6
DC
C0
C0
C0
00
ENDCHAR
STARTCHAR LtSmlRAcute
ENCODING 500
SWIDTH 480 0
DWIDTH 8 0
BBX 8 16 0 -4
BITMAP
00
0C
18
10
00
EE
76
60
60
60
60
60
00
00
00
00
ENDCHAR
STARTCHAR LtSmlSAcute
ENCODING 501
SWIDTH 480 0
DWIDTH 8 0
BBX 8 16 0 -4
BITMAP
00
0C
18
10
00
7C
C6
C0
7C
06
C6
7C
00
00
00
00
ENDCHAR
STARTCHAR LtSmlUAcute
ENCODING 502
SWIDTH 480 0
DWIDTH 8 0
BBX 8 16 0 -4
BITMAP
00
0C
18
10
00
C6
C6
C6
C6
C6
CE
76
00
00
00
00
ENDCHAR
STARTCHAR LtSmlWAcute
ENCODING 503
SWIDTH 480 0
DWIDTH 8 0
BBX 8 16 0 -4
BITMAP
00
0C
18
10
00
C2
DA
DA
DA
7C
6C
6C
00
00
00
00
ENDCHAR
STARTCHAR LtSmlYAcute
ENCODING 504
SWIDTH 480 0
DWIDTH 8 0
BBX 8 16 0 -4
BITMAP
00
0C
18
10
00
C2
C6
64
64
3C
38
18
10
D0
E0
00
ENDCHAR
STARTCHAR LtSmlZAcute
ENCODING 505
SWIDTH 480 0
DWIDTH 8 0
BBX 8 16 0 -4
BITMAP
00
0C
18
10
00
FE
8E
0C
38
60
E2
FE
00
00
00
00
ENDCHAR
STARTCHAR LtSmlEpsAcute
ENCODING 506
SWIDTH 480 0
DWIDTH 8 0
BBX 8 16 0 -4
BITMAP
00
0C
18
10
00
7C
C6
E0
70
C0
C6
7C
00
00
00
00
ENDCHAR
STARTCHAR LtSmlSchwaAcute
ENCODING 507
SWIDTH 480 0
DWIDTH 8 0
BBX 8 16 0 -4
BITMAP
00
18
30
20
00
78
CC
06
FE
C6
CC
78
00
00
00
00
ENDCHAR
STARTCHAR LtSmlCTrndAcute
ENCODING 508
SWIDTH 480 0
DWIDTH 8 0
BBX 8 16 0 -4
BITMAP
00
0C
18
10
00
78
CC
06
06
06
CC
78
00
00
00
00
ENDCHAR
STARTCHAR LtCapAEAcute
ENCODING 509
SWIDTH 480 0
DWIDTH 8 0
BBX 8 16 0 -4
BITMAP
0C
18
10
1E
3A
38
58
5E
78
D8
9A
9E
00
00
00
00
ENDCHAR
STARTCHAR LtSmlAEAcute
ENCODING 510
SWIDTH 480 0
DWIDTH 8 0
BBX 8 16 0 -4
BITMAP
00
0C
18
10
00
6E
DA
1A
7E
D8
DA
EE
00
00
00
00
ENDCHAR
STARTCHAR LtCapOStrokeAcute
ENCODING 511
SWIDTH 480 0
DWIDTH 8 0
BBX 8 16 0 -4
BITMAP
0C
18
12
7C
C6
CE
CE
D6
E6
E6
C6
7C
80
00
00
00
ENDCHAR
STARTCHAR LtSmlOStrokeAcute
ENCODING 512
SWIDTH 480 0
DWIDTH 8 0
BBX 8 16 0 -4
BITMAP
00
0C
18
10
04
7C
CE
D6
D6
D6
E6
7C
40
00
00
00
ENDCHAR
STARTCHAR LtCapOHornAcute
ENCODING 513
SWIDTH 480 0
DWIDTH 8 0
BBX 8 16 0 -4
BITMAP
30
67
03
7E
C6
C6
C6
C6
C6
C6
C6
7C
00
00
00
00
ENDCHAR
STARTCHAR LtCapUHornAcute
ENCODING 514
SWIDTH 480 0
DWIDTH 8 0
BBX 8 16 0 -4
BITMAP
30
67
03
C6
C6
C6
C6
C6
C6
C6
C6
7C
00
00
00
00
ENDCHAR
STARTCHAR LtSmlOHornAcute
ENCODING 515
SWIDTH 480 0
DWIDTH 8 0
BBX 8 16 0 -4
BITMAP
00
18
30
27
03
7E
C6
C6
C6
C6
C6
7C
00
00
00
00
ENDCHAR
STARTCHAR LtSmlUHornAcute
ENCODING 516
SWIDTH 480 0
DWIDTH 8 0
BBX 8 16 0 -4
BITMAP
00
18
30
27
03
C6
C6
C6
C6
C6
CE
76
00
00
00
00
ENDCHAR
STARTCHAR LtCapIDrssAcute
ENCODING 517
SWIDTH 480 0
DWIDTH 8 0
BBX 8 16 0 -4
BITMAP
0C
DA
D6
00
7E
18
18
18
18
18
18
7E
00
00
00
00
ENDCHAR
STARTCHAR LtCapUDrssAcute
ENCODING 518
SWIDTH 480 0
DWIDTH 8 0
BBX 8 16 0 -4
BITMAP
0C
DA
D6
00
C6
C6
C6
C6
C6
C6
C6
7C
00
00
00
00
ENDCHAR
STARTCHAR LtSmlIDrssAcute
ENCODING 519
SWIDTH 480 0
DWIDTH 8 0
BBX 8 16 0 -4
BITMAP
0C
18
D6
C6
00
38
18
18
18
18
18
7E
00
00
00
00
ENDCHAR
STARTCHAR LtSmlUDrssAcute
ENCODING 520
SWIDTH 480 0
DWIDTH 8 0
BBX 8 16 0 -4
BITMAP
0C
18
D6
C6
00
C6
C6
C6
C6
C6
CE
76
00
00
00
00
ENDCHAR
STARTCHAR LtCapARingAcute
ENCODING 521
SWIDTH 480 0
DWIDTH 8 0
BBX 8 16 0 -4
BITMAP
0E
18
38
6C
6C
38
38
4C
7C
CC
86
86
00
00
00
00
ENDCHAR
STARTCHAR LtSmlARingAcute
ENCODING 522
SWIDTH 480 0
DWIDTH 8 0
BBX 8 16 0 -4
BITMAP
06
0C
18
34
18
7C
66
06
7E
C6
CE
76
00
00
00
00
ENDCHAR
STARTCHAR LtCapEMacronAcute
ENCODING 523
SWIDTH 480 0
DWIDTH 8 0
BBX 8 16 0 -4
BITMAP
18
30
7C
00
FE
C2
C8
F8
C8
C2
C2
FE
00
00
00
00
ENDCHAR
STARTCHAR LtCapOMacronAcute
ENCODING 524
SWIDTH 480 0
DWIDTH 8 0
BBX 8 16 0 -4
BITMAP
18
30
7C
00
7C
C6
C6
C6
C6
C6
C6
7C
00
00
00
00
ENDCHAR
STARTCHAR LtSmlAMacronAcute
ENCODING 525
SWIDTH 480 0
DWIDTH 8 0
BBX 8 16 0 -4
BITMAP
0C
18
10
7C
00
7C
66
06
7E
C6
CE
76
00
00
00
00
ENDCHAR
STARTCHAR LtSmlEMacronAcute
ENCODING 526
SWIDTH 480 0
DWIDTH 8 0
BBX 8 16 0 -4
BITMAP
0C
18
10
7C
00
3C
66
C6
FE
C0
66
3C
00
00
00
00
ENDCHAR
STARTCHAR LtSmlIMacronAcute
ENCODING 527
SWIDTH 480 0
DWIDTH 8 0
BBX 8 16 0 -4
BITMAP
0C
18
10
7C
00
38
18
18
18
18
18
7E
00
00
00
00
ENDCHAR
STARTCHAR LtSmlOMacronAcute
ENCODING 528
SWIDTH 480 0
DWIDTH 8 0
BBX 8 16 0 -4
BITMAP
0C
18
10
7C
00
7C
C6
C6
C6
C6
C6
7C
00
00
00
00
ENDCHAR
STARTCHAR LtSmlUMacronAcute
ENCODING 529
SWIDTH 480 0
DWIDTH 8 0
BBX 8 16 0 -4
BITMAP
0C
18
10
7C
00
C6
C6
C6
C6
C6
CE
76
00
00
00
00
ENDCHAR
STARTCHAR LtCapACircumAcute
ENCODING 530
SWIDTH 480 0
DWIDTH 8 0
BBX 8 16 0 -4
BITMAP
03
36
78
48
10
38
38
4C
7C
CC
86
86
00
00
00
00
ENDCHAR
STARTCHAR LtCapECircumAcute
ENCODING 531
SWIDTH 480 0
DWIDTH 8 0
BBX 8 16 0 -4
BITMAP
03
36
78
48
FE
C2
C8
F8
C8
C2
C2
FE
00
00
00
00
ENDCHAR
STARTCHAR LtCapOCircumAcute
ENCODING 532
SWIDTH 480 0
DWIDTH 8 0
BBX 8 16 0 -4
BITMAP
03
36
78
48
7C
C6
C6
C6
C6
C6
C6
7C
00
00
00
00
ENDCHAR
STARTCHAR LtSmlACircumAcute
ENCODING 533
SWIDTH 480 0
DWIDTH 8 0
BBX 8 16 0 -4
BITMAP
03
36
78
48
00
7C
66
06
7E
C6
CE
76
00
00
00
00
ENDCHAR
STARTCHAR LtSmlECircumAcute
ENCODING 534
SWIDTH 480 0
DWIDTH 8 0
BBX 8 16 0 -4
BITMAP
03
36
78
48
00
3C
66
C6
FE
C0
66
3C
00
00
00
00
ENDCHAR
STARTCHAR LtSmlOCircumAcute
ENCODING 535
SWIDTH 480 0
DWIDTH 8 0
BBX 8 16 0 -4
BITMAP
03
36
78
48
00
7C
C6
C6
C6
C6
C6
7C
00
00
00
00
ENDCHAR
STARTCHAR LtCapABreveAcute
ENCODING 536
SWIDTH 480 0
DWIDTH 8 0
BBX 8 16 0 -4
BITMAP
18
30
C6
7C
10
38
38
4C
7C
CC
86
86
00
00
00
00
ENDCHAR
STARTCHAR LtSmlABreveAcute
ENCODING 537
SWIDTH 480 0
DWIDTH 8 0
BBX 8 16 0 -4
BITMAP
18
30
C6
7C
00
7C
66
06
7E
C6
CE
76
00
00
00
00
ENDCHAR
STARTCHAR LtCapOTildeAcute
ENCODING 538
SWIDTH 480 0
DWIDTH 8 0
BBX 8 16 0 -4
BITMAP
18
36
5C
00
7C
C6
C6
C6
C6
C6
C6
7C
00
00
00
00
ENDCHAR
STARTCHAR LtCapUTildeAcute
ENCODING 539
SWIDTH 480 0
DWIDTH 8 0
BBX 8 16 0 -4
BITMAP
18
36
5C
00
C6
C6
C6
C6
C6
C6
C6
7C
00
00
00
00
ENDCHAR
STARTCHAR LtSmlOTildeAcute
ENCODING 540
SWIDTH 480 0
DWIDTH 8 0
BBX 8 16 0 -4
BITMAP
18
32
7E
44
00
7C
C6
C6
C6
C6
C6
7C
00
00
00
00
ENDCHAR
STARTCHAR LtSmlUTildeAcute
ENCODING 541
SWIDTH 480 0
DWIDTH 8 0
BBX 8 16 0 -4
BITMAP
18
32
7E
44
00
C6
C6
C6
C6
C6
CE
76
00
00
00
00
ENDCHAR
STARTCHAR LtCapOAcute2
ENCODING 542
SWIDTH 480 0
DWIDTH 8 0
BBX 8 16 0 -4
BITMAP
36
6C
48
7C
C6
C6
C6
C6
C6
C6
C6
7C
00
00
00
00
ENDCHAR
STARTCHAR LtCapUAcute2
ENCODING 543
SWIDTH 480 0
DWIDTH 8 0
BBX 8 16 0 -4
BITMAP
36
6C
48
86
C6
C6
C6
C6
C6
C6
C6
7C
00
00
00
00
ENDCHAR
STARTCHAR LtSmlOAcute2
ENCODING 544
SWIDTH 480 0
DWIDTH 8 0
BBX 8 16 0 -4
BITMAP
00
36
6C
48
00
7C
C6
C6
C6
C6
C6
7C
00
00
00
00
ENDCHAR
STARTCHAR LtSmlUAcute2
ENCODING 545
SWIDTH 480 0
DWIDTH 8 0
BBX 8 16 0 -4
BITMAP
00
36
6C
48
00
C6
C6
C6
C6
C6
CE
76
00
00
00
00
ENDCHAR
STARTCHAR LtCapAGrave
ENCODING 546
SWIDTH 480 0
DWIDTH 8 0
BBX 8 16 0 -4
BITMAP
60
30
10
30
38
38
58
4C
7C
CC
86
86
00
00
00
00
ENDCHAR
STARTCHAR LtCapEGrave
ENCODING 547
SWIDTH 480 0
DWIDTH 8 0
BBX 8 16 0 -4
BITMAP
60
30
10
FE
C2
C2
C8
F8
C8
C2
C2
FE
00
00
00
00
ENDCHAR
STARTCHAR LtCapIGrave
ENCODING 548
SWIDTH 480 0
DWIDTH 8 0
BBX 8 16 0 -4
BITMAP
30
18
08
7E
18
18
18
18
18
18
18
7E
00
00
00
00
ENDCHAR
STARTCHAR LtCapNGrave
ENCODING 549
SWIDTH 480 0
DWIDTH 8 0
BBX 8 16 0 -4
BITMAP
30
18
08
C2
E2
E2
B2
BA
9A
8E
8E
86
00
00
00
00
ENDCHAR
STARTCHAR LtCapOGrave
ENCODING 550
SWIDTH 480 0
DWIDTH 8 0
BBX 8 16 0 -4
BITMAP
60
30
10
7C
C6
C6
C6
C6
C6
C6
C6
7C
00
00
00
00
ENDCHAR
STARTCHAR LtCapUGrave
ENCODING 551
SWIDTH 480 0
DWIDTH 8 0
BBX 8 16 0 -4
BITMAP
60
30
10
C6
C6
C6
C6
C6
C6
C6
C6
7C
00
00
00
00
ENDCHAR
STARTCHAR LtCapWGrave
ENCODING 552
SWIDTH 480 0
DWIDTH 8 0
BBX 8 16 0 -4
BITMAP
30
18
08
C2
C2
DA
DA
DA
FE
6C
6C
6C
00
00
00
00
ENDCHAR
STARTCHAR LtCapYGrave
ENCODING 553
SWIDTH 480 0
DWIDTH 8 0
BBX 8 16 0 -4
BITMAP
30
18
08
C3
62
64
34
38
18
18
18
18
00
00
00
00
ENDCHAR
STARTCHAR LtCapEpsGrave
ENCODING 554
SWIDTH 480 0
DWIDTH 8 0
BBX 8 16 0 -4
BITMAP
60
30
10
7C
C6
C0
40
78
C0
C0
C6
7C
00
00
00
00
ENDCHAR
STARTCHAR LtCapCTrndGrave
ENCODING 555
SWIDTH 480 0
DWIDTH 8 0
BBX 8 16 0 -4
BITMAP
60
30
10
78
CC
06
06
06
06
06
CC
78
00
00
00
00
ENDCHAR
STARTCHAR LtSmlAGrave
ENCODING 556
SWIDTH 480 0
DWIDTH 8 0
BBX 8 16 0 -4
BITMAP
00
30
18
08
00
7C
66
06
7E
C6
CE
76
00
00
00
00
ENDCHAR
STARTCHAR LtSmlEGrave
ENCODING 557
SWIDTH 480 0
DWIDTH 8 0
BBX 8 16 0 -4
BITMAP
00
30
18
08
00
3C
66
C6
FE
C0
66
3C
00
00
00
00
ENDCHAR
STARTCHAR LtSmlIGrave
ENCODING 558
SWIDTH 480 0
DWIDTH 8 0
BBX 8 16 0 -4
BITMAP
00
30
18
08
00
38
18
18
18
18
18
7E
00
00
00
00
ENDCHAR
STARTCHAR LtSmlNGrave
ENCODING 559
SWIDTH 480 0
DWIDTH 8 0
BBX 8 16 0 -4
BITMAP
00
60
30
10
00
DC
E6
C6
C6
C6
C6
C6
00
00
00
00
ENDCHAR
STARTCHAR LtSmlOGrave
ENCODING 560
SWIDTH 480 0
DWIDTH 8 0
BBX 8 16 0 -4
BITMAP
00
60
30
10
00
7C
C6
C6
C6
C6
C6
7C
00
00
00
00
ENDCHAR
STARTCHAR LtSmlUGrave
ENCODING 561
SWIDTH 480 0
DWIDTH 8 0
BBX 8 16 0 -4
BITMAP
00
60
30
10
00
C6
C6
C6
C6
C6
CE
76
00
00
00
00
ENDCHAR
STARTCHAR LtSmlWGrave
ENCODING 562
SWIDTH 480 0
DWIDTH 8 0
BBX 8 16 0 -4
BITMAP
00
60
30
10
00
C2
DA
DA
DA
7C
6C
6C
00
00
00
00
ENDCHAR
STARTCHAR LtSmlYGrave
ENCODING 563
SWIDTH 480 0
DWIDTH 8 0
BBX 8 16 0 -4
BITMAP
00
60
30
10
00
C2
C6
64
64
3C
38
18
10
D0
E0
00
ENDCHAR
STARTCHAR LtSmlEpsGrave
ENCODING 564
SWIDTH 480 0
DWIDTH 8 0
BBX 8 16 0 -4
BITMAP
00
60
30
10
00
7C
C6
E0
70
C0
C6
7C
00
00
00
00
ENDCHAR
STARTCHAR LtSmlCTrndGrave
ENCODING 565
SWIDTH 480 0
DWIDTH 8 0
BBX 8 16 0 -4
BITMAP
00
60
30
10
00
78
CC
06
06
06
CC
78
00
00
00
00
ENDCHAR
STARTCHAR LtCapOHornGrave
ENCODING 566
SWIDTH 480 0
DWIDTH 8 0
BBX 8 16 0 -4
BITMAP
E0
37
03
7E
C6
C6
C6
C6
C6
C6
C6
7C
00
00
00
00
ENDCHAR
STARTCHAR LtCapUHornGrave
ENCODING 567
SWIDTH 480 0
DWIDTH 8 0
BBX 8 16 0 -4
BITMAP
E0
37
03
C6
C6
C6
C6
C6
C6
C6
C6
7C
00
00
00
00
ENDCHAR
STARTCHAR LtSmlOHornGrave
ENCODING 568
SWIDTH 480 0
DWIDTH 8 0
BBX 8 16 0 -4
BITMAP
00
60
30
17
03
7E
C6
C6
C6
C6
C6
7C
00
00
00
00
ENDCHAR
STARTCHAR LtSmlUHornGrave
ENCODING 569
SWIDTH 480 0
DWIDTH 8 0
BBX 8 16 0 -4
BITMAP
00
60
30
17
03
C6
C6
C6
C6
C6
CE
76
00
00
00
00
ENDCHAR
STARTCHAR LtCapUDrssGrave
ENCODING 570
SWIDTH 480 0
DWIDTH 8 0
BBX 8 16 0 -4
BITMAP
60
B6
D6
00
C6
C6
C6
C6
C6
C6
C6
7C
00
00
00
00
ENDCHAR
STARTCHAR LtSmlUDrssGrave
ENCODING 571
SWIDTH 480 0
DWIDTH 8 0
BBX 8 16 0 -4
BITMAP
60
30
D6
C6
00
C6
C6
C6
C6
C6
CE
76
00
00
00
00
ENDCHAR
STARTCHAR LtCapEMacronGrave
ENCODING 572
SWIDTH 480 0
DWIDTH 8 0
BBX 8 16 0 -4
BITMAP
30
18
7C
00
FE
C2
C8
F8
C8
C2
C2
FE
00
00
00
00
ENDCHAR
STARTCHAR LtCapOMacronGrave
ENCODING 573
SWIDTH 480 0
DWIDTH 8 0
BBX 8 16 0 -4
BITMAP
30
18
7C
00
7C
C6
C6
C6
C6
C6
C6
7C
00
00
00
00
ENDCHAR
STARTCHAR LtSmlAMacronGrave
ENCODING 574
SWIDTH 480 0
DWIDTH 8 0
BBX 8 16 0 -4
BITMAP
60
30
10
7C
00
7C
66
06
7E
C6
CE
76
00
00
00
00
ENDCHAR
STARTCHAR LtSmlEMacronGrave
ENCODING 575
SWIDTH 480 0
DWIDTH 8 0
BBX 8 16 0 -4
BITMAP
60
30
10
7C
00
3C
66
C6
FE
C0
66
3C
00
00
00
00
ENDCHAR
STARTCHAR LtSmlIMacronGrave
ENCODING 576
SWIDTH 480 0
DWIDTH 8 0
BBX 8 16 0 -4
BITMAP
60
30
10
7C
00
38
18
18
18
18
18
7E
00
00
00
00
ENDCHAR
STARTCHAR LtSmlOMacronGrave
ENCODING 577
SWIDTH 480 0
DWIDTH 8 0
BBX 8 16 0 -4
BITMAP
60
30
10
7C
00
7C
C6
C6
C6
C6
C6
7C
00
00
00
00
ENDCHAR
STARTCHAR LtSmlUMacronGrave
ENCODING 578
SWIDTH 480 0
DWIDTH 8 0
BBX 8 16 0 -4
BITMAP
60
30
10
7C
00
C6
C6
C6
C6
C6
CE
76
00
00
00
00
ENDCHAR
STARTCHAR LtCapACircumGrave
ENCODING 579
SWIDTH 480 0
DWIDTH 8 0
BBX 8 16 0 -4
BITMAP
C0
68
3C
24
10
38
38
4C
7C
CC
86
86
00
00
00
00
ENDCHAR
STARTCHAR LtCapECircumGrave
ENCODING 580
SWIDTH 480 0
DWIDTH 8 0
BBX 8 16 0 -4
BITMAP
C0
68
3C
24
FE
C2
C8
F8
C8
C2
C2
FE
00
00
00
00
ENDCHAR
STARTCHAR LtCapOCircumGrave
ENCODING 581
SWIDTH 480 0
DWIDTH 8 0
BBX 8 16 0 -4
BITMAP
C0
68
3C
24
7C
C6
C6
C6
C6
C6
C6
7C
00
00
00
00
ENDCHAR
STARTCHAR LtSmlACircumGrave
ENCODING 582
SWIDTH 480 0
DWIDTH 8 0
BBX 8 16 0 -4
BITMAP
C0
68
1C
36
00
7C
66
06
7E
C6
CE
76
00
00
00
00
ENDCHAR
STARTCHAR LtSmlECircumGrave
ENCODING 583
SWIDTH 480 0
DWIDTH 8 0
BBX 8 16 0 -4
BITMAP
C0
68
1C
36
00
3C
66
C6
FE
C0
66
3C
00
00
00
00
ENDCHAR
STARTCHAR LtSmlOCircumGrave
ENCODING 584
SWIDTH 480 0
DWIDTH 8 0
BBX 8 16 0 -4
BITMAP
C0
68
1C
36
00
7C
C6
C6
C6
C6
C6
7C
00
00
00
00
ENDCHAR
STARTCHAR LtCapABreveGrave
ENCODING 585
SWIDTH 480 0
DWIDTH 8 0
BBX 8 16 0 -4
BITMAP
30
18
C6
7C
10
38
38
4C
7C
CC
86
86
00
00
00
00
ENDCHAR
STARTCHAR LtSmlABreveGrave
ENCODING 586
SWIDTH 480 0
DWIDTH 8 0
BBX 8 16 0 -4
BITMAP
30
18
C6
7C
00
7C
66
06
7E
C6
CE
76
00
00
00
00
ENDCHAR
STARTCHAR LtCapAGrave2
ENCODING 587
SWIDTH 480 0
DWIDTH 8 0
BBX 8 16 0 -4
BITMAP
D8
6C
24
30
38
38
58
4C
7C
CC
86
86
00
00
00
00
ENDCHAR
STARTCHAR LtCapEGrave2
ENCODING 588
SWIDTH 480 0
DWIDTH 8 0
BBX 8 16 0 -4
BITMAP
D8
6C
24
FE
C2
C2
C8
F8
C8
C2
C2
FE
00
00
00
00
ENDCHAR
STARTCHAR LtCapIGrave2
ENCODING 589
SWIDTH 480 0
DWIDTH 8 0
BBX 8 16 0 -4
BITMAP
D8
6C
24
7E
18
18
18
18
18
18
18
7E
00
00
00
00
ENDCHAR
STARTCHAR LtCapOGrave2
ENCODING 590
SWIDTH 480 0
DWIDTH 8 0
BBX 8 16 0 -4
BITMAP
D8
6C
24
7C
C6
C6
C6
C6
C6
C6
C6
7C
00
00
00
00
ENDCHAR
STARTCHAR LtCapRGrave2
ENCODING 591
SWIDTH 480 0
DWIDTH 8 0
BBX 8 16 0 -4
BITMAP
D8
6C
24
FC
C6
C6
C6
FC
D8
CC
C6
C6
00
00
00
00
ENDCHAR
STARTCHAR LtCapUGrave2
ENCODING 592
SWIDTH 480 0
DWIDTH 8 0
BBX 8 16 0 -4
BITMAP
D8
6C
24
C2
C6
C6
C6
C6
C6
C6
C6
7C
00
00
00
00
ENDCHAR
STARTCHAR LtSmlAGrave2
ENCODING 593
SWIDTH 480 0
DWIDTH 8 0
BBX 8 16 0 -4
BITMAP
00
D8
6C
24
00
7C
66
06
7E
C6
CE
76
00
00
00
00
ENDCHAR
STARTCHAR LtSmlEGrave2
ENCODING 594
SWIDTH 480 0
DWIDTH 8 0
BBX 8 16 0 -4
BITMAP
00
D8
6C
24
00
3C
66
C6
FE
C0
66
3C
00
00
00
00
ENDCHAR
STARTCHAR LtSmlIGrave2
ENCODING 595
SWIDTH 480 0
DWIDTH 8 0
BBX 8 16 0 -4
BITMAP
00
D8
6C
24
00
38
18
18
18
18
18
7E
00
00
00
00
ENDCHAR
STARTCHAR LtSmlOGrave2
ENCODING 596
SWIDTH 480 0
DWIDTH 8 0
BBX 8 16 0 -4
BITMAP
00
D8
6C
24
00
7C
C6
C6
C6
C6
C6
7C
00
00
00
00
ENDCHAR
STARTCHAR LtSmlRGrave2
ENCODING 597
SWIDTH 480 0
DWIDTH 8 0
BBX 8 16 0 -4
BITMAP
00
D8
6C
24
00
EE
76
60
60
60
60
60
00
00
00
00
ENDCHAR
STARTCHAR LtSmlUGrave2
ENCODING 598
SWIDTH 480 0
DWIDTH 8 0
BBX 8 16 0 -4
BITMAP
00
D8
6C
24
00
C6
C6
C6
C6
C6
CE
76
00
00
00
00
ENDCHAR
STARTCHAR LtCapACircum
ENCODING 599
SWIDTH 480 0
DWIDTH 8 0
BBX 8 16 0 -4
BITMAP
38
6C
00
30
38
38
58
4C
7C
CC
86
86
00
00
00
00
ENDCHAR
STARTCHAR LtCapCCircum
ENCODING 600
SWIDTH 480 0
DWIDTH 8 0
BBX 8 16 0 -4
BITMAP
38
6C
00
3C
66
C0
C0
C0
C0
C0
66
3C
00
00
00
00
ENDCHAR
STARTCHAR LtCapECircum
ENCODING 601
SWIDTH 480 0
DWIDTH 8 0
BBX 8 16 0 -4
BITMAP
38
6C
00
FE
C2
C2
C8
F8
C8
C2
C2
FE
00
00
00
00
ENDCHAR
STARTCHAR LtCapGCircum
ENCODING 602
SWIDTH 480 0
DWIDTH 8 0
BBX 8 16 0 -4
BITMAP
38
6C
00
3C
66
C0
C0
CE
C6
C6
66
3E
00
00
00
00
ENDCHAR
STARTCHAR LtCapHCircum
ENCODING 603
SWIDTH 480 0
DWIDTH 8 0
BBX 8 16 0 -4
BITMAP
38
6C
00
C6
C6
C6
C6
FE
C6
C6
C6
C6
00
00
00
00
ENDCHAR
STARTCHAR LtCapICircum
ENCODING 604
SWIDTH 480 0
DWIDTH 8 0
BBX 8 16 0 -4
BITMAP
1C
36
00
7E
18
18
18
18
18
18
18
7E
00
00
00
00
ENDCHAR
STARTCHAR LtCapJCircum
ENCODING 605
SWIDTH 480 0
DWIDTH 8 0
BBX 8 16 0 -4
BITMAP
1C
36
00
1E
0C
0C
0C
0C
0C
CC
CC
78
00
00
00
00
ENDCHAR
STARTCHAR LtCapNCircum
ENCODING 606
SWIDTH 480 0
DWIDTH 8 0
BBX 8 16 0 -4
BITMAP
38
6C
00
C2
E2
E2
B2
BA
9A
8E
8E
86
00
00
00
00
ENDCHAR
STARTCHAR LtCapOCircum
ENCODING 607
SWIDTH 480 0
DWIDTH 8 0
BBX 8 16 0 -4
BITMAP
38
6C
00
7C
C6
C6
C6
C6
C6
C6
C6
7C
00
00
00
00
ENDCHAR
STARTCHAR LtCapSCircum
ENCODING 608
SWIDTH 480 0
DWIDTH 8 0
BBX 8 16 0 -4
BITMAP
38
6C
00
7C
C6
C0
70
3C
0E
06
C6
7C
00
00
00
00
ENDCHAR
STARTCHAR LtCapUCircum
ENCODING 609
SWIDTH 480 0
DWIDTH 8 0
BBX 8 16 0 -4
BITMAP
38
6C
00
C6
C6
C6
C6
C6
C6
C6
C6
7C
00
00
00
00
ENDCHAR
STARTCHAR LtCapWCircum
ENCODING 610
SWIDTH 480 0
DWIDTH 8 0
BBX 8 16 0 -4
BITMAP
38
6C
00
C2
C2
DA
DA
DA
FE
6C
6C
6C
00
00
00
00
ENDCHAR
STARTCHAR LtCapYCircum
ENCODING 611
SWIDTH 480 0
DWIDTH 8 0
BBX 8 16 0 -4
BITMAP
18
3C
24
C3
62
64
34
38
18
18
18
18
00
00
00
00
ENDCHAR
STARTCHAR LtCapZCircum
ENCODING 612
SWIDTH 480 0
DWIDTH 8 0
BBX 8 16 0 -4
BITMAP
38
6C
00
FE
86
8C
18
30
60
C2
C2
FE
00
00
00
00
ENDCHAR
STARTCHAR LtCapEpsCircum
ENCODING 613
SWIDTH 480 0
DWIDTH 8 0
BBX 8 16 0 -4
BITMAP
38
6C
00
7C
C6
C0
40
78
C0
C0
C6
7C
00
00
00
00
ENDCHAR
STARTCHAR LtCapCTrndCircum
ENCODING 614
SWIDTH 480 0
DWIDTH 8 0
BBX 8 16 0 -4
BITMAP
38
6C
00
78
CC
06
06
06
06
06
CC
78
00
00
00
00
ENDCHAR
STARTCHAR LtSmlACircum
ENCODING 615
SWIDTH 480 0
DWIDTH 8 0
BBX 8 16 0 -4
BITMAP
00
18
3C
24
00
7C
66
06
7E
C6
CE
76
00
00
00
00
ENDCHAR
STARTCHAR LtSmlCCircum
ENCODING 616
SWIDTH 480 0
DWIDTH 8 0
BBX 8 16 0 -4
BITMAP
00
18
3C
24
00
3C
66
C0
C0
C0
66
3C
00
00
00
00
ENDCHAR
STARTCHAR LtSmlECircum
ENCODING 617
SWIDTH 480 0
DWIDTH 8 0
BBX 8 16 0 -4
BITMAP
00
18
3C
24
00
3C
66
C6
FE
C0
66
3C
00
00
00
00
ENDCHAR
STARTCHAR LtSmlGCircum
ENCODING 618
SWIDTH 480 0
DWIDTH 8 0
BBX 8 16 0 -4
BITMAP
00
10
38
6C
00
7A
CC
CC
CC
78
C0
7C
C6
C6
7C
00
ENDCHAR
STARTCHAR LtSmlHCircum
ENCODING 619
SWIDTH 480 0
DWIDTH 8 0
BBX 8 16 0 -4
BITMAP
18
3C
A4
C0
C0
DC
E6
C6
C6
C6
C6
C6
00
00
00
00
ENDCHAR
STARTCHAR LtSmlICircum
ENCODING 620
SWIDTH 480 0
DWIDTH 8 0
BBX 8 16 0 -4
BITMAP
00
18
3C
24
00
38
18
18
18
18
18
7E
00
00
00
00
ENDCHAR
STARTCHAR LtSmlJCircum
ENCODING 621
SWIDTH 480 0
DWIDTH 8 0
BBX 8 16 0 -4
BITMAP
00
0C
1E
12
00
3C
0C
0C
0C
0C
0C
0C
CC
CC
78
00
ENDCHAR
STARTCHAR LtSmlNCircum
ENCODING 622
SWIDTH 480 0
DWIDTH 8 0
BBX 8 16 0 -4
BITMAP
00
10
38
6C
00
DC
E6
C6
C6
C6
C6
C6
00
00
00
00
ENDCHAR
STARTCHAR LtSmlOCircum
ENCODING 623
SWIDTH 480 0
DWIDTH 8 0
BBX 8 16 0 -4
BITMAP
00
10
38
6C
00
7C
C6
C6
C6
C6
C6
7C
00
00
00
00
ENDCHAR
STARTCHAR LtSmlSCircum
ENCODING 624
SWIDTH 480 0
DWIDTH 8 0
BBX 8 16 0 -4
BITMAP
00
10
38
6C
00
7C
C6
C0
7C
06
C6
7C
00
00
00
00
ENDCHAR
STARTCHAR LtSmlUCircum
ENCODING 625
SWIDTH 480 0
DWIDTH 8 0
BBX 8 16 0 -4
BITMAP
00
10
38
6C
00
C6
C6
C6
C6
C6
CE
76
00
00
00
00
ENDCHAR
STARTCHAR LtSmlWCircum
ENCODING 626
SWIDTH 480 0
DWIDTH 8 0
BBX 8 16 0 -4
BITMAP
00
10
38
6C
00
C2
DA
DA
DA
7C
6C
6C
00
00
00
00
ENDCHAR
STARTCHAR LtSmlYCircum
ENCODING 627
SWIDTH 480 0
DWIDTH 8 0
BBX 8 16 0 -4
BITMAP
00
10
38
6C
00
C2
C6
64
64
3C
38
18
10
D0
E0
00
ENDCHAR
STARTCHAR LtSmlZCircum
ENCODING 628
SWIDTH 480 0
DWIDTH 8 0
BBX 8 16 0 -4
BITMAP
00
10
38
6C
00
FE
8E
0C
38
60
E2
FE
00
00
00
00
ENDCHAR
STARTCHAR LtSmlEpsCircum
ENCODING 629
SWIDTH 480 0
DWIDTH 8 0
BBX 8 16 0 -4
BITMAP
00
30
78
48
00
7C
C6
E0
70
C0
C6
7C
00
00
00
00
ENDCHAR
STARTCHAR LtSmlCTrndCircum
ENCODING 630
SWIDTH 480 0
DWIDTH 8 0
BBX 8 16 0 -4
BITMAP
00
30
78
48
00
78
CC
06
06
06
CC
78
00
00
00
00
ENDCHAR
STARTCHAR LtCapACaron
ENCODING 631
SWIDTH 480 0
DWIDTH 8 0
BBX 8 16 0 -4
BITMAP
6C
38
00
30
38
38
58
4C
7C
CC
86
86
00
00
00
00
ENDCHAR
STARTCHAR LtCapCCaron
ENCODING 632
SWIDTH 480 0
DWIDTH 8 0
BBX 8 16 0 -4
BITMAP
36
1C
00
3C
66
C0
C0
C0
C0
C0
66
3C
00
00
00
00
ENDCHAR
STARTCHAR LtCapDCaron
ENCODING 633
SWIDTH 480 0
DWIDTH 8 0
BBX 8 16 0 -4
BITMAP
D8
70
00
F8
CC
C6
C6
C6
C6
C6
CC
F8
00
00
00
00
ENDCHAR
STARTCHAR LtCapECaron
ENCODING 634
SWIDTH 480 0
DWIDTH 8 0
BBX 8 16 0 -4
BITMAP
6C
38
00
FE
C2
C2
C8
F8
C8
C2
C2
FE
00
00
00
00
ENDCHAR
STARTCHAR LtCapGCaron
ENCODING 635
SWIDTH 480 0
DWIDTH 8 0
BBX 8 16 0 -4
BITMAP
36
1C
00
3C
66
C0
C0
CE
C6
C6
66
3E
00
00
00
00
ENDCHAR
STARTCHAR LtCapHCaron
ENCODING 636
SWIDTH 480 0
DWIDTH 8 0
BBX 8 16 0 -4
BITMAP
6C
38
00
C6
C6
C6
C6
FE
C6
C6
C6
C6
00
00
00
00
ENDCHAR
STARTCHAR LtCapICaron
ENCODING 637
SWIDTH 480 0
DWIDTH 8 0
BBX 8 16 0 -4
BITMAP
36
1C
00
7E
18
18
18
18
18
18
18
7E
00
00
00
00
ENDCHAR
STARTCHAR LtCapJCaron
ENCODING 638
SWIDTH 480 0
DWIDTH 8 0
BBX 8 16 0 -4
BITMAP
36
1C
00
1E
0C
0C
0C
0C
0C
CC
CC
78
00
00
00
00
ENDCHAR
STARTCHAR LtCapKCaron
ENCODING 639
SWIDTH 480 0
DWIDTH 8 0
BBX 8 16 0 -4
BITMAP
6C
38
00
C6
CC
C8
D8
F8
CC
CC
C6
C6
00
00
00
00
ENDCHAR
STARTCHAR LtCapLCaron
ENCODING 640
SWIDTH 480 0
DWIDTH 8 0
BBX 8 16 0 -4
BITMAP
00
06
C6
C2
C4
C0
C0
C0
C0
C2
C2
FE
00
00
00
00
ENDCHAR
STARTCHAR LtCapLCaronAlt
ENCODING 641
SWIDTH 480 0
DWIDTH 8 0
BBX 8 16 0 -4
BITMAP
D8
70
00
C0
C0
C0
C0
C0
C0
C2
C2
FE
00
00
00
00
ENDCHAR
STARTCHAR LtCapNCaron
ENCODING 642
SWIDTH 480 0
DWIDTH 8 0
BBX 8 16 0 -4
BITMAP
6C
38
00
C2
E2
E2
B2
BA
9A
8E
8E
86
00
00
00
00
ENDCHAR
STARTCHAR LtCapOCaron
ENCODING 643
SWIDTH 480 0
DWIDTH 8 0
BBX 8 16 0 -4
BITMAP
6C
38
00
7C
C6
C6
C6
C6
C6
C6
C6
7C
00
00
00
00
ENDCHAR
STARTCHAR LtCapRCaron
ENCODING 644
SWIDTH 480 0
DWIDTH 8 0
BBX 8 16 0 -4
BITMAP
6C
38
00
FC
C6
C6
C6
FC
D8
CC
C6
C6
00
00
00
00
ENDCHAR
STARTCHAR LtCapSCaron
ENCODING 645
SWIDTH 480 0
DWIDTH 8 0
BBX 8 16 0 -4
BITMAP
6C
38
00
7C
C6
C0
70
3C
0E
06
C6
7C
00
00
00
00
ENDCHAR
STARTCHAR LtCapTCaron
ENCODING 646
SWIDTH 480 0
DWIDTH 8 0
BBX 8 16 0 -4
BITMAP
6C
38
00
FF
99
18
18
18
18
18
18
18
00
00
00
00
ENDCHAR
STARTCHAR LtCapUCaron
ENCODING 647
SWIDTH 480 0
DWIDTH 8 0
BBX 8 16 0 -4
BITMAP
6C
38
00
C6
C6
C6
C6
C6
C6
C6
C6
7C
00
00
00
00
ENDCHAR
STARTCHAR LtCapZCaron
ENCODING 648
SWIDTH 480 0
DWIDTH 8 0
BBX 8 16 0 -4
BITMAP
6C
38
00
FE
86
8C
18
30
60
C2
C2
FE
00
00
00
00
ENDCHAR
STARTCHAR LtCapEpsCaron
ENCODING 649
SWIDTH 480 0
DWIDTH 8 0
BBX 8 16 0 -4
BITMAP
6C
38
00
7C
C6
C0
40
78
C0
C0
C6
7C
00
00
00
00
ENDCHAR
STARTCHAR LtCapEzhCaron
ENCODING 650
SWIDTH 480 0
DWIDTH 8 0
BBX 8 16 0 -4
BITMAP
6C
38
00
FE
86
8C
18
3C
06
06
C6
7C
00
00
00
00
ENDCHAR
STARTCHAR LtCapCTrndCaron
ENCODING 651
SWIDTH 480 0
DWIDTH 8 0
BBX 8 16 0 -4
BITMAP
6C
38
00
78
CC
06
06
06
06
06
CC
78
00
00
00
00
ENDCHAR
STARTCHAR LtSmlACaron
ENCODING 652
SWIDTH 480 0
DWIDTH 8 0
BBX 8 16 0 -4
BITMAP
00
24
3C
18
00
7C
66
06
7E
C6
CE
76
00
00
00
00
ENDCHAR
STARTCHAR LtSmlCCaron
ENCODING 653
SWIDTH 480 0
DWIDTH 8 0
BBX 8 16 0 -4
BITMAP
00
24
3C
18
00
3C
66
C0
C0
C0
66
3C
00
00
00
00
ENDCHAR
STARTCHAR LtSmlDCaron
ENCODING 654
SWIDTH 480 0
DWIDTH 8 0
BBX 8 16 0 -4
BITMAP
00
03
0F
0D
0E
6C
DC
CC
CC
CC
CC
74
00
00
00
00
ENDCHAR
STARTCHAR LtSmlDCaronAlt
ENCODING 655
SWIDTH 480 0
DWIDTH 8 0
BBX 8 16 0 -4
BITMAP
6C
38
06
06
06
76
CE
C6
C6
C6
CE
76
00
00
00
00
ENDCHAR
STARTCHAR LtSmlECaron
ENCODING 656
SWIDTH 480 0
DWIDTH 8 0
BBX 8 16 0 -4
BITMAP
00
24
3C
18
00
3C
66
C6
FE
C0
66
3C
00
00
00
00
ENDCHAR
STARTCHAR LtSmlGCaron
ENCODING 657
SWIDTH 480 0
DWIDTH 8 0
BBX 8 16 0 -4
BITMAP
00
6C
38
10
00
7A
CC
CC
CC
78
C0
7C
C6
C6
7C
00
ENDCHAR
STARTCHAR LtSmlHCaron
ENCODING 658
SWIDTH 480 0
DWIDTH 8 0
BBX 8 16 0 -4
BITMAP
24
3C
98
C0
C0
DC
E6
C6
C6
C6
C6
C6
00
00
00
00
ENDCHAR
STARTCHAR LtSmlICaron
ENCODING 659
SWIDTH 480 0
DWIDTH 8 0
BBX 8 16 0 -4
BITMAP
00
24
3C
18
00
38
18
18
18
18
18
7E
00
00
00
00
ENDCHAR
STARTCHAR LtSmlJCaron
ENCODING 660
SWIDTH 480 0
DWIDTH 8 0
BBX 8 16 0 -4
BITMAP
00
12
1E
0C
00
3C
0C
0C
0C
0C
0C
0C
CC
CC
78
00
ENDCHAR
STARTCHAR LtSmlKCaron
ENCODING 661
SWIDTH 480 0
DWIDTH 8 0
BBX 8 16 0 -4
BITMAP
24
3C
18
C0
C0
C6
CC
D0
F8
CC
C6
C6
00
00
00
00
ENDCHAR
STARTCHAR LtSmlLCaron
ENCODING 662
SWIDTH 480 0
DWIDTH 8 0
BBX 8 16 0 -4
BITMAP
00
06
76
32
34
30
30
30
30
30
30
FC
00
00
00
00
ENDCHAR
STARTCHAR LtSmlLCaronAlt
ENCODING 663
SWIDTH 480 0
DWIDTH 8 0
BBX 8 16 0 -4
BITMAP
6C
38
00
38
18
18
18
18
18
18
18
7E
00
00
00
00
ENDCHAR
STARTCHAR LtSmlNCaron
ENCODING 664
SWIDTH 480 0
DWIDTH 8 0
BBX 8 16 0 -4
BITMAP
00
6C
38
10
00
DC
E6
C6
C6
C6
C6
C6
00
00
00
00
ENDCHAR
STARTCHAR LtSmlOCaron
ENCODING 665
SWIDTH 480 0
DWIDTH 8 0
BBX 8 16 0 -4
BITMAP
00
6C
38
10
00
7C
C6
C6
C6
C6
C6
7C
00
00
00
00
ENDCHAR
STARTCHAR LtSmlRCaron
ENCODING 666
SWIDTH 480 0
DWIDTH 8 0
BBX 8 16 0 -4
BITMAP
00
6C
38
10
00
EE
76
60
60
60
60
60
00
00
00
00
ENDCHAR
STARTCHAR LtSmlSCaron
ENCODING 667
SWIDTH 480 0
DWIDTH 8 0
BBX 8 16 0 -4
BITMAP
00
6C
38
10
00
7C
C6
C0
7C
06
C6
7C
00
00
00
00
ENDCHAR
STARTCHAR LtSmlTCaron
ENCODING 668
SWIDTH 480 0
DWIDTH 8 0
BBX 8 16 0 -4
BITMAP
00
06
06
32
34
FC
30
30
30
30
36
1C
00
00
00
00
ENDCHAR
STARTCHAR LtSmlTCaronAlt
ENCODING 669
SWIDTH 480 0
DWIDTH 8 0
BBX 8 16 0 -4
BITMAP
6C
38
00
30
30
FC
30
30
30
30
36
1C
00
00
00
00
ENDCHAR
STARTCHAR LtSmlUCaron
ENCODING 670
SWIDTH 480 0
DWIDTH 8 0
BBX 8 16 0 -4
BITMAP
00
6C
38
10
00
C6
C6
C6
C6
C6
CE
76
00
00
00
00
ENDCHAR
STARTCHAR LtSmlZCaron
ENCODING 671
SWIDTH 480 0
DWIDTH 8 0
BBX 8 16 0 -4
BITMAP
00
6C
38
10
00
FE
8E
0C
38
60
E2
FE
00
00
00
00
ENDCHAR
STARTCHAR LtSmlEpsCaron
ENCODING 672
SWIDTH 480 0
DWIDTH 8 0
BBX 8 16 0 -4
BITMAP
00
6C
38
10
00
7C
C6
E0
70
C0
C6
7C
00
00
00
00
ENDCHAR
STARTCHAR LtSmlEzhCaron
ENCODING 673
SWIDTH 480 0
DWIDTH 8 0
BBX 8 16 0 -4
BITMAP
00
6C
38
10
00
FE
86
0C
18
3C
06
06
C6
C4
78
00
ENDCHAR
STARTCHAR LtSmlCTrndCaron
ENCODING 674
SWIDTH 480 0
DWIDTH 8 0
BBX 8 16 0 -4
BITMAP
00
48
78
30
00
78
CC
06
06
06
CC
78
00
00
00
00
ENDCHAR
STARTCHAR LtCapDZCaron
ENCODING 675
SWIDTH 480 0
DWIDTH 8 0
BBX 8 16 0 -4
BITMAP
1A
0C
C0
FE
E6
A6
A4
AC
A8
F8
D8
DE
00
00
00
00
ENDCHAR
STARTCHAR LtMixDZCaron
ENCODING 676
SWIDTH 480 0
DWIDTH 8 0
BBX 8 16 0 -4
BITMAP
00
0A
CE
E4
E0
BE
A6
A4
AC
E8
D8
DE
00
00
00
00
ENDCHAR
STARTCHAR LtSmlDZCaron
ENCODING 677
SWIDTH 480 0
DWIDTH 8 0
BBX 8 16 0 -4
BITMAP
00
0A
2E
24
20
7E
E6
A4
AC
A8
F8
FE
00
00
00
00
ENDCHAR
STARTCHAR LtCapUDrssCaron
ENCODING 678
SWIDTH 480 0
DWIDTH 8 0
BBX 8 16 0 -4
BITMAP
6C
BA
D6
00
C6
C6
C6
C6
C6
C6
C6
7C
00
00
00
00
ENDCHAR
STARTCHAR LtSmlUDrssCaron
ENCODING 679
SWIDTH 480 0
DWIDTH 8 0
BBX 8 16 0 -4
BITMAP
6C
38
D6
C6
00
C6
C6
C6
C6
C6
CE
76
00
00
00
00
ENDCHAR
STARTCHAR LtCapABreve
ENCODING 680
SWIDTH 480 0
DWIDTH 8 0
BBX 8 16 0 -4
BITMAP
CC
78
00
30
38
38
58
4C
7C
CC
86
86
00
00
00
00
ENDCHAR
STARTCHAR LtCapEBreve
ENCODING 681
SWIDTH 480 0
DWIDTH 8 0
BBX 8 16 0 -4
BITMAP
66
3C
00
FE
C2
C2
C8
F8
C8
C2
C2
FE
00
00
00
00
ENDCHAR
STARTCHAR LtCapGBreve
ENCODING 682
SWIDTH 480 0
DWIDTH 8 0
BBX 8 16 0 -4
BITMAP
66
3C
00
3C
66
C0
C0
CE
C6
C6
66
3E
00
00
00
00
ENDCHAR
STARTCHAR LtCapIBreve
ENCODING 683
SWIDTH 480 0
DWIDTH 8 0
BBX 8 16 0 -4
BITMAP
66
3C
00
7E
18
18
18
18
18
18
18
7E
00
00
00
00
ENDCHAR
STARTCHAR LtCapOBreve
ENCODING 684
SWIDTH 480 0
DWIDTH 8 0
BBX 8 16 0 -4
BITMAP
66
3C
00
7C
C6
C6
C6
C6
C6
C6
C6
7C
00
00
00
00
ENDCHAR
STARTCHAR LtCapUBreve
ENCODING 685
SWIDTH 480 0
DWIDTH 8 0
BBX 8 16 0 -4
BITMAP
66
3C
00
C6
C6
C6
C6
C6
C6
C6
C6
7C
00
00
00
00
ENDCHAR
STARTCHAR LtCapYBreve
ENCODING 686
SWIDTH 480 0
DWIDTH 8 0
BBX 8 16 0 -4
BITMAP
66
3C
00
C3
62
64
34
38
18
18
18
18
00
00
00
00
ENDCHAR
STARTCHAR LtSmlABreve
ENCODING 687
SWIDTH 480 0
DWIDTH 8 0
BBX 8 16 0 -4
BITMAP
00
00
66
3C
00
7C
66
06
7E
C6
CE
76
00
00
00
00
ENDCHAR
STARTCHAR LtSmlEBreve
ENCODING 688
SWIDTH 480 0
DWIDTH 8 0
BBX 8 16 0 -4
BITMAP
00
00
66
3C
00
3C
66
C6
FE
C0
66
3C
00
00
00
00
ENDCHAR
STARTCHAR LtSmlGBreve
ENCODING 689
SWIDTH 480 0
DWIDTH 8 0
BBX 8 16 0 -4
BITMAP
00
00
CC
78
00
7A
CC
CC
CC
78
C0
7C
C6
C6
7C
00
ENDCHAR
STARTCHAR LtSmlIBreve
ENCODING 690
SWIDTH 480 0
DWIDTH 8 0
BBX 8 16 0 -4
BITMAP
00
00
66
3C
00
38
18
18
18
18
18
7E
00
00
00
00
ENDCHAR
STARTCHAR LtSmlMBreve
ENCODING 691
SWIDTH 480 0
DWIDTH 8 0
BBX 8 16 0 -4
BITMAP
00
00
CC
78
00
AC
FE
D6
D6
D6
D6
D6
00
00
00
00
ENDCHAR
STARTCHAR LtSmlNBreve
ENCODING 692
SWIDTH 480 0
DWIDTH 8 0
BBX 8 16 0 -4
BITMAP
00
00
CC
78
00
DC
E6
C6
C6
C6
C6
C6
00
00
00
00
ENDCHAR
STARTCHAR LtSmlOBreve
ENCODING 693
SWIDTH 480 0
DWIDTH 8 0
BBX 8 16 0 -4
BITMAP
00
00
66
3C
00
7C
C6
C6
C6
C6
C6
7C
00
00
00
00
ENDCHAR
STARTCHAR LtSmlRBreve
ENCODING 694
SWIDTH 480 0
DWIDTH 8 0
BBX 8 16 0 -4
BITMAP
00
00
66
3C
00
EE
76
60
60
60
60
60
00
00
00
00
ENDCHAR
STARTCHAR LtSmlUBreve
ENCODING 695
SWIDTH 480 0
DWIDTH 8 0
BBX 8 16 0 -4
BITMAP
00
00
66
3C
00
C6
C6
C6
C6
C6
CE
76
00
00
00
00
ENDCHAR
STARTCHAR LtSmlYBreve
ENCODING 696
SWIDTH 480 0
DWIDTH 8 0
BBX 8 16 0 -4
BITMAP
00
00
66
3C
00
C2
C6
64
64
3C
38
18
10
D0
E0
00
ENDCHAR
STARTCHAR LtSmlAMacronBreve
ENCODING 697
SWIDTH 480 0
DWIDTH 8 0
BBX 8 16 0 -4
BITMAP
66
3C
00
7C
00
7C
66
06
7E
C6
CE
76
00
00
00
00
ENDCHAR
STARTCHAR LtSmlIMacronBreve
ENCODING 698
SWIDTH 480 0
DWIDTH 8 0
BBX 8 16 0 -4
BITMAP
66
3C
00
7C
00
38
18
18
18
18
18
7E
00
00
00
00
ENDCHAR
STARTCHAR LtSmlUMacronBreve
ENCODING 699
SWIDTH 480 0
DWIDTH 8 0
BBX 8 16 0 -4
BITMAP
66
3C
00
7C
00
C6
C6
C6
C6
C6
CE
76
00
00
00
00
ENDCHAR
STARTCHAR LtCapAInvbreve
ENCODING 700
SWIDTH 480 0
DWIDTH 8 0
BBX 8 16 0 -4
BITMAP
78
CC
00
30
38
38
58
4C
7C
CC
86
86
00
00
00
00
ENDCHAR
STARTCHAR LtCapEInvbreve
ENCODING 701
SWIDTH 480 0
DWIDTH 8 0
BBX 8 16 0 -4
BITMAP
78
CC
00
FE
C2
C2
C8
F8
C8
C2
C2
FE
00
00
00
00
ENDCHAR
STARTCHAR LtCapIInvbreve
ENCODING 702
SWIDTH 480 0
DWIDTH 8 0
BBX 8 16 0 -4
BITMAP
3C
66
00
7E
18
18
18
18
18
18
18
7E
00
00
00
00
ENDCHAR
STARTCHAR LtCapOInvbreve
ENCODING 703
SWIDTH 480 0
DWIDTH 8 0
BBX 8 16 0 -4
BITMAP
3C
66
00
7C
C6
C6
C6
C6
C6
C6
C6
7C
00
00
00
00
ENDCHAR
STARTCHAR LtCapRInvbreve
ENCODING 704
SWIDTH 480 0
DWIDTH 8 0
BBX 8 16 0 -4
BITMAP
78
CC
00
FC
C6
C6
C6
FC
D8
CC
C6
C6
00
00
00
00
ENDCHAR
STARTCHAR LtCapUInvbreve
ENCODING 705
SWIDTH 480 0
DWIDTH 8 0
BBX 8 16 0 -4
BITMAP
3C
66
00
C6
C6
C6
C6
C6
C6
C6
C6
7C
00
00
00
00
ENDCHAR
STARTCHAR LtSmlAInvbreve
ENCODING 706
SWIDTH 480 0
DWIDTH 8 0
BBX 8 16 0 -4
BITMAP
00
00
3C
66
00
7C
66
06
7E
C6
CE
76
00
00
00
00
ENDCHAR
STARTCHAR LtSmlEInvbreve
ENCODING 707
SWIDTH 480 0
DWIDTH 8 0
BBX 8 16 0 -4
BITMAP
00
00
3C
66
00
3C
66
C6
FE
C0
66
3C
00
00
00
00
ENDCHAR
STARTCHAR LtSmlIInvbreve
ENCODING 708
SWIDTH 480 0
DWIDTH 8 0
BBX 8 16 0 -4
BITMAP
00
00
3C
66
00
38
18
18
18
18
18
7E
00
00
00
00
ENDCHAR
STARTCHAR LtSmlOInvbreve
ENCODING 709
SWIDTH 480 0
DWIDTH 8 0
BBX 8 16 0 -4
BITMAP
00
00
3C
66
00
7C
C6
C6
C6
C6
C6
7C
00
00
00
00
ENDCHAR
STARTCHAR LtSmlRInvbreve
ENCODING 710
SWIDTH 480 0
DWIDTH 8 0
BBX 8 16 0 -4
BITMAP
00
00
3C
66
00
EE
76
60
60
60
60
60
00
00
00
00
ENDCHAR
STARTCHAR LtSmlUInvbreve
ENCODING 711
SWIDTH 480 0
DWIDTH 8 0
BBX 8 16 0 -4
BITMAP
00
00
3C
66
00
C6
C6
C6
C6
C6
CE
76
00
00
00
00
ENDCHAR
STARTCHAR LtSmlMCandra
ENCODING 712
SWIDTH 480 0
DWIDTH 8 0
BBX 8 16 0 -4
BITMAP
18
5A
66
3C
00
AC
FE
D6
D6
D6
D6
D6
00
00
00
00
ENDCHAR
STARTCHAR LtCapATilde
ENCODING 713
SWIDTH 480 0
DWIDTH 8 0
BBX 8 16 0 -4
BITMAP
36
5C
00
30
38
38
58
4C
7C
CC
86
86
00
00
00
00
ENDCHAR
STARTCHAR LtCapETilde
ENCODING 714
SWIDTH 480 0
DWIDTH 8 0
BBX 8 16 0 -4
BITMAP
36
5C
00
FE
C2
C2
C8
F8
C8
C2
C2
FE
00
00
00
00
ENDCHAR
STARTCHAR LtCapGTilde
ENCODING 715
SWIDTH 480 0
DWIDTH 8 0
BBX 8 16 0 -4
BITMAP
36
5C
00
3C
66
C0
C0
CE
C6
C6
66
3E
00
00
00
00
ENDCHAR
STARTCHAR LtCapITilde
ENCODING 716
SWIDTH 480 0
DWIDTH 8 0
BBX 8 16 0 -4
BITMAP
36
5C
00
7E
18
18
18
18
18
18
18
7E
00
00
00
00
ENDCHAR
STARTCHAR LtCapLTilde
ENCODING 717
SWIDTH 480 0
DWIDTH 8 0
BBX 8 16 0 -4
BITMAP
6C
B8
00
C0
C0
C0
C0
C0
C0
C2
C2
FE
00
00
00
00
ENDCHAR
STARTCHAR LtCapNTilde
ENCODING 718
SWIDTH 480 0
DWIDTH 8 0
BBX 8 16 0 -4
BITMAP
36
5C
00
C2
E2
E2
B2
BA
9A
8E
8E
86
00
00
00
00
ENDCHAR
STARTCHAR LtCapOTilde
ENCODING 719
SWIDTH 480 0
DWIDTH 8 0
BBX 8 16 0 -4
BITMAP
36
5C
00
7C
C6
C6
C6
C6
C6
C6
C6
7C
00
00
00
00
ENDCHAR
STARTCHAR LtCapUTilde
ENCODING 720
SWIDTH 480 0
DWIDTH 8 0
BBX 8 16 0 -4
BITMAP
36
5C
00
C6
C6
C6
C6
C6
C6
C6
C6
7C
00
00
00
00
ENDCHAR
STARTCHAR LtCapVTilde
ENCODING 721
SWIDTH 480 0
DWIDTH 8 0
BBX 8 16 0 -4
BITMAP
36
5C
00
C2
66
64
64
34
38
38
18
10
00
00
00
00
ENDCHAR
STARTCHAR LtCapYTilde
ENCODING 722
SWIDTH 480 0
DWIDTH 8 0
BBX 8 16 0 -4
BITMAP
36
5C
00
C3
62
64
34
38
18
18
18
18
00
00
00
00
ENDCHAR
STARTCHAR LtCapEpsTilde
ENCODING 723
SWIDTH 480 0
DWIDTH 8 0
BBX 8 16 0 -4
BITMAP
36
5C
00
7C
C6
C0
40
78
C0
C0
C6
7C
00
00
00
00
ENDCHAR
STARTCHAR LtCapCTrndTilde
ENCODING 724
SWIDTH 480 0
DWIDTH 8 0
BBX 8 16 0 -4
BITMAP
6C
B8
00
78
CC
06
06
06
06
06
CC
78
00
00
00
00
ENDCHAR
STARTCHAR LtSmlATilde
ENCODING 725
SWIDTH 480 0
DWIDTH 8 0
BBX 8 16 0 -4
BITMAP
00
24
7C
48
00
7C
66
06
7E
C6
CE
76
00
00
00
00
ENDCHAR
STARTCHAR LtSmlETilde
ENCODING 726
SWIDTH 480 0
DWIDTH 8 0
BBX 8 16 0 -4
BITMAP
00
24
7C
48
00
3C
66
C6
FE
C0
66
3C
00
00
00
00
ENDCHAR
STARTCHAR LtSmlGTilde
ENCODING 727
SWIDTH 480 0
DWIDTH 8 0
BBX 8 16 0 -4
BITMAP
00
24
7C
48
00
7A
CC
CC
CC
78
C0
7C
C6
C6
7C
00
ENDCHAR
STARTCHAR LtSmlITilde
ENCODING 728
SWIDTH 480 0
DWIDTH 8 0
BBX 8 16 0 -4
BITMAP
00
24
7C
48
00
38
18
18
18
18
18
7E
00
00
00
00
ENDCHAR
STARTCHAR LtSmlLTilde
ENCODING 729
SWIDTH 480 0
DWIDTH 8 0
BBX 8 16 0 -4
BITMAP
36
5C
00
38
18
18
18
18
18
18
18
7E
00
00
00
00
ENDCHAR
STARTCHAR LtSmlNTilde
ENCODING 730
SWIDTH 480 0
DWIDTH 8 0
BBX 8 16 0 -4
BITMAP
00
24
7C
48
00
DC
E6
C6
C6
C6
C6
C6
00
00
00
00
ENDCHAR
STARTCHAR LtSmlOTilde
ENCODING 731
SWIDTH 480 0
DWIDTH 8 0
BBX 8 16 0 -4
BITMAP
00
24
7C
48
00
7C
C6
C6
C6
C6
C6
7C
00
00
00
00
ENDCHAR
STARTCHAR LtSmlUTilde
ENCODING 732
SWIDTH 480 0
DWIDTH 8 0
BBX 8 16 0 -4
BITMAP
00
24
7C
48
00
C6
C6
C6
C6
C6
CE
76
00
00
00
00
ENDCHAR
STARTCHAR LtSmlVTilde
ENCODING 733
SWIDTH 480 0
DWIDTH 8 0
BBX 8 16 0 -4
BITMAP
00
24
7C
48
00
C2
C6
64
64
38
38
10
00
00
00
00
ENDCHAR
STARTCHAR LtSmlYTilde
ENCODING 734
SWIDTH 480 0
DWIDTH 8 0
BBX 8 16 0 -4
BITMAP
00
24
7C
48
00
C2
C6
64
64
3C
38
18
10
D0
E0
00
ENDCHAR
STARTCHAR LtSmlEpsTilde
ENCODING 735
SWIDTH 480 0
DWIDTH 8 0
BBX 8 16 0 -4
BITMAP
00
24
7C
48
00
7C
C6
E0
70
C0
C6
7C
00
00
00
00
ENDCHAR
STARTCHAR LtSmlAScrTilde
ENCODING 736
SWIDTH 480 0
DWIDTH 8 0
BBX 8 16 0 -4
BITMAP
00
24
7C
48
00
3E
66
C6
C6
C6
6E
36
00
00
00
00
ENDCHAR
STARTCHAR LtSmlANonscrTilde
ENCODING 737
SWIDTH 480 0
DWIDTH 8 0
BBX 8 16 0 -4
BITMAP
00
24
7C
48
00
7C
66
06
7E
C6
CE
76
00
00
00
00
ENDCHAR
STARTCHAR LtSmlATrndTilde
ENCODING 738
SWIDTH 480 0
DWIDTH 8 0
BBX 8 16 0 -4
BITMAP
00
24
7C
48
00
DC
E6
C6
FC
C0
CC
7C
00
00
00
00
ENDCHAR
STARTCHAR LtSmlCTrndTilde
ENCODING 739
SWIDTH 480 0
DWIDTH 8 0
BBX 8 16 0 -4
BITMAP
00
24
7C
48
00
78
CC
06
06
06
CC
78
00
00
00
00
ENDCHAR
STARTCHAR LtSmlAScrTrndTilde
ENCODING 740
SWIDTH 480 0
DWIDTH 8 0
BBX 8 16 0 -4
BITMAP
00
24
7C
48
00
D8
EC
C6
C6
C6
CC
F8
00
00
00
00
ENDCHAR
STARTCHAR LtSmlOETilde
ENCODING 741
SWIDTH 480 0
DWIDTH 8 0
BBX 8 16 0 -4
BITMAP
00
24
7C
48
00
76
DE
DA
DE
D8
DE
76
00
00
00
00
ENDCHAR
STARTCHAR LtCapOHornTilde
ENCODING 742
SWIDTH 480 0
DWIDTH 8 0
BBX 8 16 0 -4
BITMAP
68
B7
03
7E
C6
C6
C6
C6
C6
C6
C6
7C
00
00
00
00
ENDCHAR
STARTCHAR LtCapUHornTilde
ENCODING 743
SWIDTH 480 0
DWIDTH 8 0
BBX 8 16 0 -4
BITMAP
68
B7
03
C6
C6
C6
C6
C6
C6
C6
C6
7C
00
00
00
00
ENDCHAR
STARTCHAR LtSmlOHornTilde
ENCODING 744
SWIDTH 480 0
DWIDTH 8 0
BBX 8 16 0 -4
BITMAP
00
6C
B8
07
03
7E
C6
C6
C6
C6
C6
7C
00
00
00
00
ENDCHAR
STARTCHAR LtSmlUHornTilde
ENCODING 745
SWIDTH 480 0
DWIDTH 8 0
BBX 8 16 0 -4
BITMAP
00
6C
B8
07
03
C6
C6
C6
C6
C6
CE
76
00
00
00
00
ENDCHAR
STARTCHAR LtSmlAMacronTilde
ENCODING 746
SWIDTH 480 0
DWIDTH 8 0
BBX 8 16 0 -4
BITMAP
24
7C
48
7C
00
7C
66
06
7E
C6
CE
76
00
00
00
00
ENDCHAR
STARTCHAR LtSmlEMacronTilde
ENCODING 747
SWIDTH 480 0
DWIDTH 8 0
BBX 8 16 0 -4
BITMAP
24
7C
48
7C
00
3C
66
C6
FE
C0
66
3C
00
00
00
00
ENDCHAR
STARTCHAR LtSmlIMacronTilde
ENCODING 748
SWIDTH 480 0
DWIDTH 8 0
BBX 8 16 0 -4
BITMAP
24
7C
48
7C
00
38
18
18
18
18
18
7E
00
00
00
00
ENDCHAR
STARTCHAR LtSmlOMacronTilde
ENCODING 749
SWIDTH 480 0
DWIDTH 8 0
BBX 8 16 0 -4
BITMAP
24
7C
48
7C
00
7C
C6
C6
C6
C6
C6
7C
00
00
00
00
ENDCHAR
STARTCHAR LtSmlUMacronTilde
ENCODING 750
SWIDTH 480 0
DWIDTH 8 0
BBX 8 16 0 -4
BITMAP
24
7C
48
7C
00
C6
C6
C6
C6
C6
CE
76
00
00
00
00
ENDCHAR
STARTCHAR LtCapACircumTilde
ENCODING 751
SWIDTH 480 0
DWIDTH 8 0
BBX 8 16 0 -4
BITMAP
34
58
38
6C
10
38
38
4C
7C
CC
86
86
00
00
00
00
ENDCHAR
STARTCHAR LtCapECircumTilde
ENCODING 752
SWIDTH 480 0
DWIDTH 8 0
BBX 8 16 0 -4
BITMAP
34
58
38
6C
FE
C2
C8
F8
C8
C2
C2
FE
00
00
00
00
ENDCHAR
STARTCHAR LtCapOCircumTilde
ENCODING 753
SWIDTH 480 0
DWIDTH 8 0
BBX 8 16 0 -4
BITMAP
34
58
38
6C
7C
C6
C6
C6
C6
C6
C6
7C
00
00
00
00
ENDCHAR
STARTCHAR LtSmlACircumTilde
ENCODING 754
SWIDTH 480 0
DWIDTH 8 0
BBX 8 16 0 -4
BITMAP
34
58
38
6C
00
7C
66
06
7E
C6
CE
76
00
00
00
00
ENDCHAR
STARTCHAR LtSmlECircumTilde
ENCODING 755
SWIDTH 480 0
DWIDTH 8 0
BBX 8 16 0 -4
BITMAP
34
58
38
6C
00
3C
66
C6
FE
C0
66
3C
00
00
00
00
ENDCHAR
STARTCHAR LtSmlOCircumTilde
ENCODING 756
SWIDTH 480 0
DWIDTH 8 0
BBX 8 16 0 -4
BITMAP
34
58
38
6C
00
7C
C6
C6
C6
C6
C6
7C
00
00
00
00
ENDCHAR
STARTCHAR LtCapABreveTilde
ENCODING 757
SWIDTH 480 0
DWIDTH 8 0
BBX 8 16 0 -4
BITMAP
34
58
C6
7C
10
38
38
4C
7C
CC
86
86
00
00
00
00
ENDCHAR
STARTCHAR LtSmlABreveTilde
ENCODING 758
SWIDTH 480 0
DWIDTH 8 0
BBX 8 16 0 -4
BITMAP
34
58
C6
7C
00
7C
66
06
7E
C6
CE
76
00
00
00
00
ENDCHAR
STARTCHAR LtCapAPs
ENCODING 759
SWIDTH 480 0
DWIDTH 8 0
BBX 8 16 0 -4
BITMAP
80
C0
50
90
38
38
58
4C
7C
CC
86
86
00
00
00
00
ENDCHAR
STARTCHAR LtCapIPs
ENCODING 760
SWIDTH 480 0
DWIDTH 8 0
BBX 8 16 0 -4
BITMAP
80
C0
5E
8C
0C
0C
0C
0C
0C
0C
0C
1E
00
00
00
00
ENDCHAR
STARTCHAR LtCapUPs
ENCODING 761
SWIDTH 480 0
DWIDTH 8 0
BBX 8 16 0 -4
BITMAP
80
C0
76
B6
36
36
36
36
36
36
36
1C
00
00
00
00
ENDCHAR
STARTCHAR LtSmlAPs
ENCODING 762
SWIDTH 480 0
DWIDTH 8 0
BBX 8 16 0 -4
BITMAP
10
18
08
10
00
7C
66
06
7E
C6
CE
76
00
00
00
00
ENDCHAR
STARTCHAR LtSmlIPs
ENCODING 763
SWIDTH 480 0
DWIDTH 8 0
BBX 8 16 0 -4
BITMAP
10
18
08
10
00
38
18
18
18
18
18
7E
00
00
00
00
ENDCHAR
STARTCHAR LtSmlUPs
ENCODING 764
SWIDTH 480 0
DWIDTH 8 0
BBX 8 16 0 -4
BITMAP
10
18
08
10
00
C6
C6
C6
C6
C6
CE
76
00
00
00
00
ENDCHAR
STARTCHAR LtCapAVhook
ENCODING 765
SWIDTH 480 0
DWIDTH 8 0
BBX 8 16 0 -4
BITMAP
70
18
10
30
38
38
58
4C
7C
CC
86
86
00
00
00
00
ENDCHAR
STARTCHAR LtCapEVhook
ENCODING 766
SWIDTH 480 0
DWIDTH 8 0
BBX 8 16 0 -4
BITMAP
70
18
10
FE
C2
C2
C8
F8
C8
C2
C2
FE
00
00
00
00
ENDCHAR
STARTCHAR LtCapIVhook
ENCODING 767
SWIDTH 480 0
DWIDTH 8 0
BBX 8 16 0 -4
BITMAP
38
0C
08
7E
18
18
18
18
18
18
18
7E
00
00
00
00
ENDCHAR
STARTCHAR LtCapOVhook
ENCODING 768
SWIDTH 480 0
DWIDTH 8 0
BBX 8 16 0 -4
BITMAP
70
18
10
7C
C6
C6
C6
C6
C6
C6
C6
7C
00
00
00
00
ENDCHAR
STARTCHAR LtCapUVhook
ENCODING 769
SWIDTH 480 0
DWIDTH 8 0
BBX 8 16 0 -4
BITMAP
70
18
30
C6
C6
C6
C6
C6
C6
C6
C6
7C
00
00
00
00
ENDCHAR
STARTCHAR LtCapYVhook
ENCODING 770
SWIDTH 480 0
DWIDTH 8 0
BBX 8 16 0 -4
BITMAP
38
0C
18
C3
62
64
34
38
18
18
18
18
00
00
00
00
ENDCHAR
STARTCHAR LtSmlAVhook
ENCODING 771
SWIDTH 480 0
DWIDTH 8 0
BBX 8 16 0 -4
BITMAP
00
38
0C
18
00
7C
66
06
7E
C6
CE
76
00
00
00
00
ENDCHAR
STARTCHAR LtSmlEVhook
ENCODING 772
SWIDTH 480 0
DWIDTH 8 0
BBX 8 16 0 -4
BITMAP
00
38
0C
18
00
3C
66
C6
FE
C0
66
3C
00
00
00
00
ENDCHAR
STARTCHAR LtSmlIVhook
ENCODING 773
SWIDTH 480 0
DWIDTH 8 0
BBX 8 16 0 -4
BITMAP
00
38
0C
18
00
38
18
18
18
18
18
7E
00
00
00
00
ENDCHAR
STARTCHAR LtSmlOVhook
ENCODING 774
SWIDTH 480 0
DWIDTH 8 0
BBX 8 16 0 -4
BITMAP
00
38
0C
18
00
7C
C6
C6
C6
C6
C6
7C
00
00
00
00
ENDCHAR
STARTCHAR LtSmlUVhook
ENCODING 775
SWIDTH 480 0
DWIDTH 8 0
BBX 8 16 0 -4
BITMAP
00
38
0C
18
00
C6
C6
C6
C6
C6
CE
76
00
00
00
00
ENDCHAR
STARTCHAR LtSmlYVhook
ENCODING 776
SWIDTH 480 0
DWIDTH 8 0
BBX 8 16 0 -4
BITMAP
00
38
0C
18
00
C2
C6
64
64
3C
38
18
10
D0
E0
00
ENDCHAR
STARTCHAR LtCapOHornVhook
ENCODING 777
SWIDTH 480 0
DWIDTH 8 0
BBX 8 16 0 -4
BITMAP
E0
37
23
7E
C6
C6
C6
C6
C6
C6
C6
7C
00
00
00
00
ENDCHAR
STARTCHAR LtCapUHornVhook
ENCODING 778
SWIDTH 480 0
DWIDTH 8 0
BBX 8 16 0 -4
BITMAP
70
1B
33
C6
C6
C6
C6
C6
C6
C6
C6
7C
00
00
00
00
ENDCHAR
STARTCHAR LtSmlOHornVhook
ENCODING 779
SWIDTH 480 0
DWIDTH 8 0
BBX 8 16 0 -4
BITMAP
00
70
18
37
03
7E
C6
C6
C6
C6
C6
7C
00
00
00
00
ENDCHAR
STARTCHAR LtSmlUHornVhook
ENCODING 780
SWIDTH 480 0
DWIDTH 8 0
BBX 8 16 0 -4
BITMAP
00
70
18
37
03
C6
C6
C6
C6
C6
CE
76
00
00
00
00
ENDCHAR
STARTCHAR LtCapACircumVhook
ENCODING 781
SWIDTH 480 0
DWIDTH 8 0
BBX 8 16 0 -4
BITMAP
0E
33
7A
48
10
38
38
4C
7C
CC
86
86
00
00
00
00
ENDCHAR
STARTCHAR LtCapECircumVhook
ENCODING 782
SWIDTH 480 0
DWIDTH 8 0
BBX 8 16 0 -4
BITMAP
0E
33
7A
48
FE
C2
C8
F8
C8
C2
C2
FE
00
00
00
00
ENDCHAR
STARTCHAR LtCapOCircumVhook
ENCODING 783
SWIDTH 480 0
DWIDTH 8 0
BBX 8 16 0 -4
BITMAP
0E
33
7A
48
7C
C6
C6
C6
C6
C6
C6
7C
00
00
00
00
ENDCHAR
STARTCHAR LtSmlACircumVhook
ENCODING 784
SWIDTH 480 0
DWIDTH 8 0
BBX 8 16 0 -4
BITMAP
0E
33
7A
48
00
7C
66
06
7E
C6
CE
76
00
00
00
00
ENDCHAR
STARTCHAR LtSmlECircumVhook
ENCODING 785
SWIDTH 480 0
DWIDTH 8 0
BBX 8 16 0 -4
BITMAP
0E
33
7A
48
00
3C
66
C6
FE
C0
66
3C
00
00
00
00
ENDCHAR
STARTCHAR LtSmlOCircumVhook
ENCODING 786
SWIDTH 480 0
DWIDTH 8 0
BBX 8 16 0 -4
BITMAP
0E
33
7A
48
00
7C
C6
C6
C6
C6
C6
7C
00
00
00
00
ENDCHAR
STARTCHAR LtCapABreveVhook
ENCODING 787
SWIDTH 480 0
DWIDTH 8 0
BBX 8 16 0 -4
BITMAP
38
08
D2
7C
10
38
38
4C
7C
CC
86
86
00
00
00
00
ENDCHAR
STARTCHAR LtSmlABreveVhook
ENCODING 788
SWIDTH 480 0
DWIDTH 8 0
BBX 8 16 0 -4
BITMAP
38
08
D2
7C
00
7C
66
06
7E
C6
CE
76
00
00
00
00
ENDCHAR
STARTCHAR LtSmlNApostr
ENCODING 789
SWIDTH 480 0
DWIDTH 8 0
BBX 8 16 0 -4
BITMAP
C0
C0
40
80
00
DC
E6
C6
C6
C6
C6
C6
00
00
00
00
ENDCHAR
STARTCHAR LtCapLMdot
ENCODING 790
SWIDTH 480 0
DWIDTH 8 0
BBX 8 16 0 -4
BITMAP
00
00
C0
C0
C0
C6
C6
C0
C0
C2
C2
FE
00
00
00
00
ENDCHAR
STARTCHAR LtSmlLMdot
ENCODING 791
SWIDTH 480 0
DWIDTH 8 0
BBX 8 16 0 -4
BITMAP
00
00
70
30
30
30
33
33
30
30
30
FC
00
00
00
00
ENDCHAR
STARTCHAR LtCapALdot
ENCODING 792
SWIDTH 480 0
DWIDTH 8 0
BBX 8 16 0 -4
BITMAP
00
00
10
30
38
38
58
4C
7C
CC
86
86
00
30
30
00
ENDCHAR
STARTCHAR LtCapBLdot
ENCODING 793
SWIDTH 480 0
DWIDTH 8 0
BBX 8 16 0 -4
BITMAP
00
00
FC
C6
C6
C6
FC
C6
C6
C6
C6
FC
00
30
30
00
ENDCHAR
STARTCHAR LtCapCLdot
ENCODING 794
SWIDTH 480 0
DWIDTH 8 0
BBX 8 16 0 -4
BITMAP
00
00
3C
66
C0
C0
C0
C0
C0
C0
66
3C
00
18
18
00
ENDCHAR
STARTCHAR LtCapDLdot
ENCODING 795
SWIDTH 480 0
DWIDTH 8 0
BBX 8 16 0 -4
BITMAP
00
00
F8
CC
C6
C6
C6
C6
C6
C6
CC
F8
00
30
30
00
ENDCHAR
STARTCHAR LtCapELdot
ENCODING 796
SWIDTH 480 0
DWIDTH 8 0
BBX 8 16 0 -4
BITMAP
00
00
FE
C2
C2
C8
F8
C8
C0
C2
C2
FE
00
30
30
00
ENDCHAR
STARTCHAR LtCapHLdot
ENCODING 797
SWIDTH 480 0
DWIDTH 8 0
BBX 8 16 0 -4
BITMAP
00
00
C6
C6
C6
C6
FE
C6
C6
C6
C6
C6
00
30
30
00
ENDCHAR
STARTCHAR LtCapILdot
ENCODING 798
SWIDTH 480 0
DWIDTH 8 0
BBX 8 16 0 -4
BITMAP
00
00
7E
18
18
18
18
18
18
18
18
7E
00
18
18
00
ENDCHAR
STARTCHAR LtCapKLdot
ENCODING 799
SWIDTH 480 0
DWIDTH 8 0
BBX 8 16 0 -4
BITMAP
00
00
C6
C4
CC
C8
D8
F8
CC
CC
C6
C6
00
30
30
00
ENDCHAR
STARTCHAR LtCapLLdot
ENCODING 800
SWIDTH 480 0
DWIDTH 8 0
BBX 8 16 0 -4
BITMAP
00
00
C0
C0
C0
C0
C0
C0
C0
C2
C2
FE
00
30
30
00
ENDCHAR
STARTCHAR LtCapMLdot
ENCODING 801
SWIDTH 480 0
DWIDTH 8 0
BBX 8 16 0 -4
BITMAP
00
00
C6
C6
EE
EE
FE
B6
B6
86
86
86
00
30
30
00
ENDCHAR
STARTCHAR LtCapNLdot
ENCODING 802
SWIDTH 480 0
DWIDTH 8 0
BBX 8 16 0 -4
BITMAP
00
00
C2
E2
E2
B2
B2
9A
9A
8E
8E
86
00
30
30
00
ENDCHAR
STARTCHAR LtCapOLdot
ENCODING 803
SWIDTH 480 0
DWIDTH 8 0
BBX 8 16 0 -4
BITMAP
00
00
7C
C6
C6
C6
C6
C6
C6
C6
C6
7C
00
30
30
00
ENDCHAR
STARTCHAR LtCapPLdot
ENCODING 804
SWIDTH 480 0
DWIDTH 8 0
BBX 8 16 0 -4
BITMAP
00
00
FC
C6
C6
C6
C6
FC
C0
C0
C0
C0
00
C0
C0
00
ENDCHAR
STARTCHAR LtCapQLdot
ENCODING 805
SWIDTH 480 0
DWIDTH 8 0
BBX 8 16 0 -4
BITMAP
00
00
7C
C6
C6
C6
C6
C6
C6
F6
DE
7C
06
32
30
00
ENDCHAR
STARTCHAR LtCapRLdot
ENCODING 806
SWIDTH 480 0
DWIDTH 8 0
BBX 8 16 0 -4
BITMAP
00
00
FC
C6
C6
C6
FC
D8
CC
CC
C6
C6
00
30
30
00
ENDCHAR
STARTCHAR LtCapSLdot
ENCODING 807
SWIDTH 480 0
DWIDTH 8 0
BBX 8 16 0 -4
BITMAP
00
00
7C
C6
C0
E0
78
1C
06
06
C6
7C
00
30
30
00
ENDCHAR
STARTCHAR LtCapTLdot
ENCODING 808
SWIDTH 480 0
DWIDTH 8 0
BBX 8 16 0 -4
BITMAP
00
00
FF
99
18
18
18
18
18
18
18
18
00
18
18
00
ENDCHAR
STARTCHAR LtCapULdot
ENCODING 809
SWIDTH 480 0
DWIDTH 8 0
BBX 8 16 0 -4
BITMAP
00
00
C6
C6
C6
C6
C6
C6
C6
C6
C6
7C
00
30
30
00
ENDCHAR
STARTCHAR LtCapVLdot
ENCODING 810
SWIDTH 480 0
DWIDTH 8 0
BBX 8 16 0 -4
BITMAP
00
00
C2
C2
66
64
64
34
38
38
18
10
00
18
18
00
ENDCHAR
STARTCHAR LtCapWLdot
ENCODING 811
SWIDTH 480 0
DWIDTH 8 0
BBX 8 16 0 -4
BITMAP
00
00
C2
C2
C2
DA
DA
DA
FE
6C
6C
6C
00
18
18
00
ENDCHAR
STARTCHAR LtCapYLdot
ENCODING 812
SWIDTH 480 0
DWIDTH 8 0
BBX 8 16 0 -4
BITMAP
00
00
C3
62
64
34
38
18
18
18
18
18
00
18
18
00
ENDCHAR
STARTCHAR LtCapZLdot
ENCODING 813
SWIDTH 480 0
DWIDTH 8 0
BBX 8 16 0 -4
BITMAP
00
00
FE
86
8C
1C
18
30
70
62
C2
FE
00
30
30
00
ENDCHAR
STARTCHAR LtSmlALdot
ENCODING 814
SWIDTH 480 0
DWIDTH 8 0
BBX 8 16 0 -4
BITMAP
00
00
00
00
00
7C
66
06
7E
C6
CE
76
00
30
30
00
ENDCHAR
STARTCHAR LtSmlBLdot
ENCODING 815
SWIDTH 480 0
DWIDTH 8 0
BBX 8 16 0 -4
BITMAP
00
00
C0
C0
C0
DC
E6
C6
C6
C6
E6
DC
00
18
18
00
ENDCHAR
STARTCHAR LtSmlCLdot
ENCODING 816
SWIDTH 480 0
DWIDTH 8 0
BBX 8 16 0 -4
BITMAP
00
00
00
00
00
3C
66
C0
C0
C0
66
3C
00
18
18
00
ENDCHAR
STARTCHAR LtSmlDLdot
ENCODING 817
SWIDTH 480 0
DWIDTH 8 0
BBX 8 16 0 -4
BITMAP
00
00
06
06
06
76
CE
C6
C6
C6
CE
76
00
30
30
00
ENDCHAR
STARTCHAR LtSmlELdot
ENCODING 818
SWIDTH 480 0
DWIDTH 8 0
BBX 8 16 0 -4
BITMAP
00
00
00
00
00
3C
66
C6
FE
C0
66
3C
00
18
18
00
ENDCHAR
STARTCHAR LtSmlHLdot
ENCODING 819
SWIDTH 480 0
DWIDTH 8 0
BBX 8 16 0 -4
BITMAP
00
00
C0
C0
C0
DC
E6
C6
C6
C6
C6
C6
00
30
30
00
ENDCHAR
STARTCHAR LtSmlILdot
ENCODING 820
SWIDTH 480 0
DWIDTH 8 0
BBX 8 16 0 -4
BITMAP
00
00
18
18
00
38
18
18
18
18
18
7E
00
18
18
00
ENDCHAR
STARTCHAR LtSmlKLdot
ENCODING 821
SWIDTH 480 0
DWIDTH 8 0
BBX 8 16 0 -4
BITMAP
00
00
C0
C0
C0
C6
CC
D0
F8
CC
C6
C6
00
30
30
00
ENDCHAR
STARTCHAR LtSmlLLdot
ENCODING 822
SWIDTH 480 0
DWIDTH 8 0
BBX 8 16 0 -4
BITMAP
00
00
38
18
18
18
18
18
18
18
18
7E
00
18
18
00
ENDCHAR
STARTCHAR LtSmlMLdot
ENCODING 823
SWIDTH 480 0
DWIDTH 8 0
BBX 8 16 0 -4
BITMAP
00
00
00
00
00
AC
FE
D6
D6
D6
D6
D6
00
30
30
00
ENDCHAR
STARTCHAR LtSmlNLdot
ENCODING 824
SWIDTH 480 0
DWIDTH 8 0
BBX 8 16 0 -4
BITMAP
00
00
00
00
00
DC
E6
C6
C6
C6
C6
C6
00
30
30
00
ENDCHAR
STARTCHAR LtSmlOLdot
ENCODING 825
SWIDTH 480 0
DWIDTH 8 0
BBX 8 16 0 -4
BITMAP
00
00
00
00
00
7C
C6
C6
C6
C6
C6
7C
00
30
30
00
ENDCHAR
STARTCHAR LtSmlPLdot
ENCODING 826
SWIDTH 480 0
DWIDTH 8 0
BBX 8 16 0 -4
BITMAP
00
00
00
00
00
DC
E6
C6
C6
C6
E6
DC
C0
D8
D8
00
ENDCHAR
STARTCHAR LtSmlQLdot
ENCODING 827
SWIDTH 480 0
DWIDTH 8 0
BBX 8 16 0 -4
BITMAP
00
00
00
00
00
76
CE
C6
C6
C6
CE
76
06
36
36
00
ENDCHAR
STARTCHAR LtSmlRLdot
ENCODING 828
SWIDTH 480 0
DWIDTH 8 0
BBX 8 16 0 -4
BITMAP
00
00
00
00
00
EE
76
60
60
60
60
60
00
60
60
00
ENDCHAR
STARTCHAR LtSmlSLdot
ENCODING 829
SWIDTH 480 0
DWIDTH 8 0
BBX 8 16 0 -4
BITMAP
00
00
00
00
00
7C
C6
C0
7C
06
C6
7C
00
30
30
00
ENDCHAR
STARTCHAR LtSmlTLdot
ENCODING 830
SWIDTH 480 0
DWIDTH 8 0
BBX 8 16 0 -4
BITMAP
00
00
00
30
30
FC
30
30
30
30
36
1C
00
18
18
00
ENDCHAR
STARTCHAR LtSmlULdot
ENCODING 831
SWIDTH 480 0
DWIDTH 8 0
BBX 8 16 0 -4
BITMAP
00
00
00
00
00
C6
C6
C6
C6
C6
CE
76
00
30
30
00
ENDCHAR
STARTCHAR LtSmlVLdot
ENCODING 832
SWIDTH 480 0
DWIDTH 8 0
BBX 8 16 0 -4
BITMAP
00
00
00
00
00
C2
C6
64
64
38
38
10
00
18
18
00
ENDCHAR
STARTCHAR LtSmlWLdot
ENCODING 833
SWIDTH 480 0
DWIDTH 8 0
BBX 8 16 0 -4
BITMAP
00
00
00
00
00
C2
DA
DA
DA
7C
6C
6C
00
18
18
00
ENDCHAR
STARTCHAR LtSmlYLdot
ENCODING 834
SWIDTH 480 0
DWIDTH 8 0
BBX 8 16 0 -4
BITMAP
00
00
00
00
00
C2
C6
64
64
3C
38
18
10
D6
E6
00
ENDCHAR
STARTCHAR LtSmlZLdot
ENCODING 835
SWIDTH 480 0
DWIDTH 8 0
BBX 8 16 0 -4
BITMAP
00
00
00
00
00
FE
8E
0C
38
60
E2
FE
00
30
30
00
ENDCHAR
STARTCHAR LtCapOHornLdot
ENCODING 836
SWIDTH 480 0
DWIDTH 8 0
BBX 8 16 0 -4
BITMAP
07
03
7E
C6
C6
C6
C6
C6
C6
C6
C6
7C
00
30
30
00
ENDCHAR
STARTCHAR LtCapUHornLdot
ENCODING 837
SWIDTH 480 0
DWIDTH 8 0
BBX 8 16 0 -4
BITMAP
07
03
C6
C6
C6
C6
C6
C6
C6
C6
C6
7C
00
30
30
00
ENDCHAR
STARTCHAR LtSmlOHornLdot
ENCODING 838
SWIDTH 480 0
DWIDTH 8 0
BBX 8 16 0 -4
BITMAP
00
00
00
07
03
7E
C6
C6
C6
C6
C6
7C
00
30
30
00
ENDCHAR
STARTCHAR LtSmlUHornLdot
ENCODING 839
SWIDTH 480 0
DWIDTH 8 0
BBX 8 16 0 -4
BITMAP
00
00
00
07
03
C6
C6
C6
C6
C6
CE
76
00
30
30
00
ENDCHAR
STARTCHAR LtCapSDotLdot
ENCODING 840
SWIDTH 480 0
DWIDTH 8 0
BBX 8 16 0 -4
BITMAP
18
18
00
7C
C6
C0
70
3C
0E
06
C6
7C
00
30
30
00
ENDCHAR
STARTCHAR LtSmlSDotLdot
ENCODING 841
SWIDTH 480 0
DWIDTH 8 0
BBX 8 16 0 -4
BITMAP
00
00
18
18
00
7C
C6
C0
7C
06
C6
7C
00
30
30
00
ENDCHAR
STARTCHAR LtCapLMacronLdot
ENCODING 842
SWIDTH 480 0
DWIDTH 8 0
BBX 8 16 0 -4
BITMAP
7C
7C
00
C0
C0
C0
C0
C0
C0
C2
C2
FE
00
30
30
00
ENDCHAR
STARTCHAR LtCapRMacronLdot
ENCODING 843
SWIDTH 480 0
DWIDTH 8 0
BBX 8 16 0 -4
BITMAP
7C
7C
00
FC
C6
C6
C6
FC
D8
CC
C6
C6
00
30
30
00
ENDCHAR
STARTCHAR LtSmlLMacronLdot
ENCODING 844
SWIDTH 480 0
DWIDTH 8 0
BBX 8 16 0 -4
BITMAP
3C
3C
00
38
18
18
18
18
18
18
18
7E
00
18
18
00
ENDCHAR
STARTCHAR LtSmlRMacronLdot
ENCODING 845
SWIDTH 480 0
DWIDTH 8 0
BBX 8 16 0 -4
BITMAP
00
00
7C
7C
00
EE
76
60
60
60
60
60
00
60
60
00
ENDCHAR
STARTCHAR LtCapEAcuteLdot
ENCODING 846
SWIDTH 480 0
DWIDTH 8 0
BBX 8 16 0 -4
BITMAP
0C
18
10
FE
C2
C2
C8
F8
C8
C2
C2
FE
00
30
30
00
ENDCHAR
STARTCHAR LtCapOAcuteLdot
ENCODING 847
SWIDTH 480 0
DWIDTH 8 0
BBX 8 16 0 -4
BITMAP
0C
18
10
7C
C6
C6
C6
C6
C6
C6
C6
7C
00
30
30
00
ENDCHAR
STARTCHAR LtCapRAcuteLdot
ENCODING 848
SWIDTH 480 0
DWIDTH 8 0
BBX 8 16 0 -4
BITMAP
0C
18
10
FC
C6
C6
C6
FC
D8
CC
C6
C6
00
30
30
00
ENDCHAR
STARTCHAR LtSmlEAcuteLdot
ENCODING 849
SWIDTH 480 0
DWIDTH 8 0
BBX 8 16 0 -4
BITMAP
00
0C
18
10
00
3C
66
C6
FE
C0
66
3C
00
18
18
00
ENDCHAR
STARTCHAR LtSmlOAcuteLdot
ENCODING 850
SWIDTH 480 0
DWIDTH 8 0
BBX 8 16 0 -4
BITMAP
00
0C
18
10
00
7C
C6
C6
C6
C6
C6
7C
00
30
30
00
ENDCHAR
STARTCHAR LtSmlRAcuteLdot
ENCODING 851
SWIDTH 480 0
DWIDTH 8 0
BBX 8 16 0 -4
BITMAP
00
0C
18
10
00
EE
76
60
60
60
60
60
00
60
60
00
ENDCHAR
STARTCHAR LtSmlRMacronAcuteLdot
ENCODING 852
SWIDTH 480 0
DWIDTH 8 0
BBX 8 16 0 -4
BITMAP
0C
18
10
7C
00
EE
76
60
60
60
60
60
00
60
60
00
ENDCHAR
STARTCHAR LtCapEGraveLdot
ENCODING 853
SWIDTH 480 0
DWIDTH 8 0
BBX 8 16 0 -4
BITMAP
60
30
10
FE
C2
C2
C8
F8
C8
C2
C2
FE
00
30
30
00
ENDCHAR
STARTCHAR LtCapOGraveLdot
ENCODING 854
SWIDTH 480 0
DWIDTH 8 0
BBX 8 16 0 -4
BITMAP
60
30
10
7C
C6
C6
C6
C6
C6
C6
C6
7C
00
30
30
00
ENDCHAR
STARTCHAR LtCapRGraveLdot
ENCODING 855
SWIDTH 480 0
DWIDTH 8 0
BBX 8 16 0 -4
BITMAP
60
30
10
FC
C6
C6
C6
FC
D8
CC
C6
C6
00
30
30
00
ENDCHAR
STARTCHAR LtSmlEGraveLdot
ENCODING 856
SWIDTH 480 0
DWIDTH 8 0
BBX 8 16 0 -4
BITMAP
00
30
18
08
00
3C
66
C6
FE
C0
66
3C
00
18
18
00
ENDCHAR
STARTCHAR LtSmlOGraveLdot
ENCODING 857
SWIDTH 480 0
DWIDTH 8 0
BBX 8 16 0 -4
BITMAP
00
60
30
10
00
7C
C6
C6
C6
C6
C6
7C
00
30
30
00
ENDCHAR
STARTCHAR LtSmlRGraveLdot
ENCODING 858
SWIDTH 480 0
DWIDTH 8 0
BBX 8 16 0 -4
BITMAP
00
60
30
10
00
EE
76
60
60
60
60
60
00
60
60
00
ENDCHAR
STARTCHAR LtCapACircumLdot
ENCODING 859
SWIDTH 480 0
DWIDTH 8 0
BBX 8 16 0 -4
BITMAP
38
6C
00
30
38
38
58
4C
7C
CC
86
86
00
30
30
00
ENDCHAR
STARTCHAR LtCapECircumLdot
ENCODING 860
SWIDTH 480 0
DWIDTH 8 0
BBX 8 16 0 -4
BITMAP
38
6C
00
FE
C2
C2
C8
F8
C8
C2
C2
FE
00
30
30
00
ENDCHAR
STARTCHAR LtCapOCircumLdot
ENCODING 861
SWIDTH 480 0
DWIDTH 8 0
BBX 8 16 0 -4
BITMAP
38
6C
00
7C
C6
C6
C6
C6
C6
C6
C6
7C
00
30
30
00
ENDCHAR
STARTCHAR LtSmlACircumLdot
ENCODING 862
SWIDTH 480 0
DWIDTH 8 0
BBX 8 16 0 -4
BITMAP
00
18
3C
24
00
7C
66
06
7E
C6
CE
76
00
30
30
00
ENDCHAR
STARTCHAR LtSmlECircumLdot
ENCODING 863
SWIDTH 480 0
DWIDTH 8 0
BBX 8 16 0 -4
BITMAP
00
18
3C
24
00
3C
66
C6
FE
C0
66
3C
00
18
18
00
ENDCHAR
STARTCHAR LtSmlOCircumLdot
ENCODING 864
SWIDTH 480 0
DWIDTH 8 0
BBX 8 16 0 -4
BITMAP
00
10
38
6C
00
7C
C6
C6
C6
C6
C6
7C
00
30
30
00
ENDCHAR
STARTCHAR LtCapCCaronLdot
ENCODING 865
SWIDTH 480 0
DWIDTH 8 0
BBX 8 16 0 -4
BITMAP
36
1C
00
3C
66
C0
C0
C0
C0
C0
66
3C
00
18
18
00
ENDCHAR
STARTCHAR LtSmlCCaronLdot
ENCODING 866
SWIDTH 480 0
DWIDTH 8 0
BBX 8 16 0 -4
BITMAP
00
24
3C
18
00
3C
66
C0
C0
C0
66
3C
00
18
18
00
ENDCHAR
STARTCHAR LtCapABreveLdot
ENCODING 867
SWIDTH 480 0
DWIDTH 8 0
BBX 8 16 0 -4
BITMAP
CC
78
00
30
38
38
58
4C
7C
CC
86
86
00
30
30
00
ENDCHAR
STARTCHAR LtSmlABreveLdot
ENCODING 868
SWIDTH 480 0
DWIDTH 8 0
BBX 8 16 0 -4
BITMAP
00
00
CC
78
00
7C
66
06
7E
C6
CE
76
00
30
30
00
ENDCHAR
STARTCHAR LtSmlLLvline
ENCODING 869
SWIDTH 480 0
DWIDTH 8 0
BBX 8 16 0 -4
BITMAP
00
00
38
18
18
18
18
18
18
18
18
7E
18
18
18
00
ENDCHAR
STARTCHAR LtSmlMLvline
ENCODING 870
SWIDTH 480 0
DWIDTH 8 0
BBX 8 16 0 -4
BITMAP
00
00
00
00
00
AC
FE
D6
D6
D6
D6
D6
30
30
30
00
ENDCHAR
STARTCHAR LtSmlNLvline
ENCODING 871
SWIDTH 480 0
DWIDTH 8 0
BBX 8 16 0 -4
BITMAP
00
00
00
00
00
DC
E6
C6
C6
C6
C6
C6
30
30
30
00
ENDCHAR
STARTCHAR LtSmlRLvline
ENCODING 872
SWIDTH 480 0
DWIDTH 8 0
BBX 8 16 0 -4
BITMAP
00
00
00
00
00
EE
76
60
60
60
60
60
30
30
30
00
ENDCHAR
STARTCHAR LtSmlEngLvline
ENCODING 873
SWIDTH 480 0
DWIDTH 8 0
BBX 8 16 0 -4
BITMAP
00
00
00
00
00
DC
E6
C6
C6
C6
C6
C6
36
36
34
00
ENDCHAR
STARTCHAR LtCapALring
ENCODING 874
SWIDTH 480 0
DWIDTH 8 0
BBX 8 16 0 -4
BITMAP
00
00
10
30
38
38
58
4C
7C
CC
86
86
30
68
30
00
ENDCHAR
STARTCHAR LtCapRLring
ENCODING 875
SWIDTH 480 0
DWIDTH 8 0
BBX 8 16 0 -4
BITMAP
00
00
FC
C6
C6
C6
FC
D8
CC
CC
C6
C6
30
68
30
00
ENDCHAR
STARTCHAR LtSmlALring
ENCODING 876
SWIDTH 480 0
DWIDTH 8 0
BBX 8 16 0 -4
BITMAP
00
00
00
00
00
7C
66
06
7E
C6
CE
76
18
34
18
00
ENDCHAR
STARTCHAR LtSmlLLring
ENCODING 877
SWIDTH 480 0
DWIDTH 8 0
BBX 8 16 0 -4
BITMAP
00
00
38
18
18
18
18
18
18
18
18
7E
18
34
18
00
ENDCHAR
STARTCHAR LtSmlRLring
ENCODING 878
SWIDTH 480 0
DWIDTH 8 0
BBX 8 16 0 -4
BITMAP
00
00
00
00
00
EE
76
60
60
60
60
60
60
D0
60
00
ENDCHAR
STARTCHAR LtSmlLMacronLring
ENCODING 879
SWIDTH 480 0
DWIDTH 8 0
BBX 8 16 0 -4
BITMAP
3C
3C
00
38
18
18
18
18
18
18
18
7E
18
34
18
00
ENDCHAR
STARTCHAR LtSmlRMacronLring
ENCODING 880
SWIDTH 480 0
DWIDTH 8 0
BBX 8 16 0 -4
BITMAP
00
00
7C
7C
00
EE
76
60
60
60
60
60
60
D0
60
00
ENDCHAR
STARTCHAR LtSmlRAcuteLring
ENCODING 881
SWIDTH 480 0
DWIDTH 8 0
BBX 8 16 0 -4
BITMAP
00
0C
18
10
00
EE
76
60
60
60
60
60
60
D0
60
00
ENDCHAR
STARTCHAR LtSmlRMacronAcuteLring
ENCODING 882
SWIDTH 480 0
DWIDTH 8 0
BBX 8 16 0 -4
BITMAP
0C
18
10
7C
00
EE
76
60
60
60
60
60
60
D0
60
00
ENDCHAR
STARTCHAR LtSmlRGraveLring
ENCODING 883
SWIDTH 480 0
DWIDTH 8 0
BBX 8 16 0 -4
BITMAP
00
60
30
10
00
EE
76
60
60
60
60
60
60
D0
60
00
ENDCHAR
STARTCHAR LtCapULdrss
ENCODING 884
SWIDTH 480 0
DWIDTH 8 0
BBX 8 16 0 -4
BITMAP
00
00
C6
C6
C6
C6
C6
C6
C6
C6
C6
7C
00
6C
6C
00
ENDCHAR
STARTCHAR LtSmlULdrss
ENCODING 885
SWIDTH 480 0
DWIDTH 8 0
BBX 8 16 0 -4
BITMAP
00
00
00
00
00
C6
C6
C6
C6
C6
CE
76
00
6C
6C
00
ENDCHAR
STARTCHAR LtCapBLmacron
ENCODING 886
SWIDTH 480 0
DWIDTH 8 0
BBX 8 16 0 -4
BITMAP
00
00
FC
C6
C6
C6
FC
C6
C6
C6
C6
FC
00
7C
7C
00
ENDCHAR
STARTCHAR LtCapDLmacron
ENCODING 887
SWIDTH 480 0
DWIDTH 8 0
BBX 8 16 0 -4
BITMAP
00
00
F8
CC
C6
C6
C6
C6
C6
C6
CC
F8
00
7C
7C
00
ENDCHAR
STARTCHAR LtCapELmacron
ENCODING 888
SWIDTH 480 0
DWIDTH 8 0
BBX 8 16 0 -4
BITMAP
00
00
FE
C2
C2
C8
F8
C8
C0
C2
C2
FE
00
7C
7C
00
ENDCHAR
STARTCHAR LtCapHLmacron
ENCODING 889
SWIDTH 480 0
DWIDTH 8 0
BBX 8 16 0 -4
BITMAP
00
00
C6
C6
C6
C6
FE
C6
C6
C6
C6
C6
00
7C
7C
00
ENDCHAR
STARTCHAR LtCapKLmacron
ENCODING 890
SWIDTH 480 0
DWIDTH 8 0
BBX 8 16 0 -4
BITMAP
00
00
C6
C4
CC
C8
D8
F8
CC
CC
C6
C6
00
7C
7C
00
ENDCHAR
STARTCHAR LtCapLLmacron
ENCODING 891
SWIDTH 480 0
DWIDTH 8 0
BBX 8 16 0 -4
BITMAP
00
00
C0
C0
C0
C0
C0
C0
C0
C2
C2
FE
00
7C
7C
00
ENDCHAR
STARTCHAR LtCapNLmacron
ENCODING 892
SWIDTH 480 0
DWIDTH 8 0
BBX 8 16 0 -4
BITMAP
00
00
C2
E2
E2
B2
B2
9A
9A
8E
8E
86
00
7C
7C
00
ENDCHAR
STARTCHAR LtCapOLmacron
ENCODING 893
SWIDTH 480 0
DWIDTH 8 0
BBX 8 16 0 -4
BITMAP
00
00
7C
C6
C6
C6
C6
C6
C6
C6
C6
7C
00
7C
7C
00
ENDCHAR
STARTCHAR LtCapRLmacron
ENCODING 894
SWIDTH 480 0
DWIDTH 8 0
BBX 8 16 0 -4
BITMAP
00
00
FC
C6
C6
C6
FC
D8
CC
CC
C6
C6
00
7C
7C
00
ENDCHAR
STARTCHAR LtCapTLmacron
ENCODING 895
SWIDTH 480 0
DWIDTH 8 0
BBX 8 16 0 -4
BITMAP
00
00
FF
99
18
18
18
18
18
18
18
18
00
3C
3C
00
ENDCHAR
STARTCHAR LtCapZLmacron
ENCODING 896
SWIDTH 480 0
DWIDTH 8 0
BBX 8 16 0 -4
BITMAP
00
00
FE
86
8C
1C
18
30
70
62
C2
FE
00
7C
7C
00
ENDCHAR
STARTCHAR LtSmlBLmacron
ENCODING 897
SWIDTH 480 0
DWIDTH 8 0
BBX 8 16 0 -4
BITMAP
00
00
C0
C0
C0
DC
E6
C6
C6
C6
E6
DC
00
7C
7C
00
ENDCHAR
STARTCHAR LtSmlDLmacron
ENCODING 898
SWIDTH 480 0
DWIDTH 8 0
BBX 8 16 0 -4
BITMAP
00
00
06
06
06
76
CE
C6
C6
C6
CE
76
00
7C
7C
00
ENDCHAR
STARTCHAR LtSmlELmacron
ENCODING 899
SWIDTH 480 0
DWIDTH 8 0
BBX 8 16 0 -4
BITMAP
00
00
00
00
00
3C
66
C6
FE
C0
66
3C
00
7C
7C
00
ENDCHAR
STARTCHAR LtSmlHLmacron
ENCODING 900
SWIDTH 480 0
DWIDTH 8 0
BBX 8 16 0 -4
BITMAP
00
00
C0
C0
C0
DC
E6
C6
C6
C6
C6
C6
00
7C
7C
00
ENDCHAR
STARTCHAR LtSmlKLmacron
ENCODING 901
SWIDTH 480 0
DWIDTH 8 0
BBX 8 16 0 -4
BITMAP
00
00
C0
C0
C0
C6
CC
D0
F8
CC
C6
C6
00
7C
7C
00
ENDCHAR
STARTCHAR LtSmlLLmacron
ENCODING 902
SWIDTH 480 0
DWIDTH 8 0
BBX 8 16 0 -4
BITMAP
00
00
38
18
18
18
18
18
18
18
18
7E
00
3C
3C
00
ENDCHAR
STARTCHAR LtSmlNLmacron
ENCODING 903
SWIDTH 480 0
DWIDTH 8 0
BBX 8 16 0 -4
BITMAP
00
00
00
00
00
DC
E6
C6
C6
C6
C6
C6
00
7C
7C
00
ENDCHAR
STARTCHAR LtSmlOLmacron
ENCODING 904
SWIDTH 480 0
DWIDTH 8 0
BBX 8 16 0 -4
BITMAP
00
00
00
00
00
7C
C6
C6
C6
C6
C6
7C
00
7C
7C
00
ENDCHAR
STARTCHAR LtSmlRLmacron
ENCODING 905
SWIDTH 480 0
DWIDTH 8 0
BBX 8 16 0 -4
BITMAP
00
00
00
00
00
EE
76
60
60
60
60
60
00
78
78
00
ENDCHAR
STARTCHAR LtSmlTLmacron
ENCODING 906
SWIDTH 480 0
DWIDTH 8 0
BBX 8 16 0 -4
BITMAP
00
00
00
30
30
FC
30
30
30
30
36
1C
00
3C
3C
00
ENDCHAR
STARTCHAR LtSmlZLmacron
ENCODING 907
SWIDTH 480 0
DWIDTH 8 0
BBX 8 16 0 -4
BITMAP
00
00
00
00
00
FE
8E
0C
38
60
E2
FE
00
7C
7C
00
ENDCHAR
STARTCHAR LtCapGHLmacron
ENCODING 908
SWIDTH 480 0
DWIDTH 8 0
BBX 8 16 0 -4
BITMAP
00
00
6A
EA
8A
8A
8E
AA
AA
AA
EA
6A
00
7C
7C
00
ENDCHAR
STARTCHAR LtCapKHLmacron
ENCODING 909
SWIDTH 480 0
DWIDTH 8 0
BBX 8 16 0 -4
BITMAP
00
00
AA
AA
AA
EA
CE
EA
EA
AA
AA
AA
00
7C
7C
00
ENDCHAR
STARTCHAR LtMixGHLmacron
ENCODING 910
SWIDTH 480 0
DWIDTH 8 0
BBX 8 16 0 -4
BITMAP
00
00
68
E8
88
8E
8E
AA
AA
AA
EA
6A
00
7C
7C
00
ENDCHAR
STARTCHAR LtMixKHLmacron
ENCODING 911
SWIDTH 480 0
DWIDTH 8 0
BBX 8 16 0 -4
BITMAP
00
00
A8
A8
A8
EE
CE
EA
EA
AA
AA
AA
00
7C
7C
00
ENDCHAR
STARTCHAR LtSmlGHLmacron
ENCODING 912
SWIDTH 480 0
DWIDTH 8 0
BBX 8 16 0 -4
BITMAP
00
00
08
08
08
6E
AE
AA
AA
6A
CA
6A
D0
FC
7C
00
ENDCHAR
STARTCHAR LtSmlKHLmacron
ENCODING 913
SWIDTH 480 0
DWIDTH 8 0
BBX 8 16 0 -4
BITMAP
00
00
88
88
88
AE
AE
CA
EA
EA
AA
AA
00
7C
7C
00
ENDCHAR
STARTCHAR LtCapDLcircum
ENCODING 914
SWIDTH 480 0
DWIDTH 8 0
BBX 8 16 0 -4
BITMAP
00
00
F8
CC
C6
C6
C6
C6
C6
C6
CC
F8
00
38
6C
00
ENDCHAR
STARTCHAR LtCapELcircum
ENCODING 915
SWIDTH 480 0
DWIDTH 8 0
BBX 8 16 0 -4
BITMAP
00
00
FE
C2
C2
C8
F8
C8
C0
C2
C2
FE
00
38
6C
00
ENDCHAR
STARTCHAR LtCapLLcircum
ENCODING 916
SWIDTH 480 0
DWIDTH 8 0
BBX 8 16 0 -4
BITMAP
00
00
C0
C0
C0
C0
C0
C0
C0
C2
C2
FE
00
38
6C
00
ENDCHAR
STARTCHAR LtCapNLcircum
ENCODING 917
SWIDTH 480 0
DWIDTH 8 0
BBX 8 16 0 -4
BITMAP
00
00
C2
E2
E2
B2
B2
9A
9A
8E
8E
86
00
38
6C
00
ENDCHAR
STARTCHAR LtCapTLcircum
ENCODING 918
SWIDTH 480 0
DWIDTH 8 0
BBX 8 16 0 -4
BITMAP
00
00
FF
99
18
18
18
18
18
18
18
18
00
1C
36
00
ENDCHAR
STARTCHAR LtCapULcircum
ENCODING 919
SWIDTH 480 0
DWIDTH 8 0
BBX 8 16 0 -4
BITMAP
00
00
C6
C6
C6
C6
C6
C6
C6
C6
C6
7C
00
38
6C
00
ENDCHAR
STARTCHAR LtSmlDLcircum
ENCODING 920
SWIDTH 480 0
DWIDTH 8 0
BBX 8 16 0 -4
BITMAP
00
00
06
06
06
76
CE
C6
C6
C6
CE
76
00
38
6C
00
ENDCHAR
STARTCHAR LtSmlELcircum
ENCODING 921
SWIDTH 480 0
DWIDTH 8 0
BBX 8 16 0 -4
BITMAP
00
00
00
00
00
3C
66
C6
FE
C0
66
3C
00
38
6C
00
ENDCHAR
STARTCHAR LtSmlLLcircum
ENCODING 922
SWIDTH 480 0
DWIDTH 8 0
BBX 8 16 0 -4
BITMAP
00
00
38
18
18
18
18
18
18
18
18
7E
00
38
6C
00
ENDCHAR
STARTCHAR LtSmlNLcircum
ENCODING 923
SWIDTH 480 0
DWIDTH 8 0
BBX 8 16 0 -4
BITMAP
00
00
00
00
00
DC
E6
C6
C6
C6
C6
C6
00
38
6C
00
ENDCHAR
STARTCHAR LtSmlTLcircum
ENCODING 924
SWIDTH 480 0
DWIDTH 8 0
BBX 8 16 0 -4
BITMAP
00
00
00
30
30
FC
30
30
30
30
36
1C
00
1C
36
00
ENDCHAR
STARTCHAR LtSmlULcircum
ENCODING 925
SWIDTH 480 0
DWIDTH 8 0
BBX 8 16 0 -4
BITMAP
00
00
00
00
00
C6
C6
C6
C6
C6
CE
76
00
38
6C
00
ENDCHAR
STARTCHAR LtCapHLbreve
ENCODING 926
SWIDTH 480 0
DWIDTH 8 0
BBX 8 16 0 -4
BITMAP
00
00
C6
C6
C6
C6
FE
C6
C6
C6
C6
C6
00
66
3C
00
ENDCHAR
STARTCHAR LtSmlHLbreve
ENCODING 927
SWIDTH 480 0
DWIDTH 8 0
BBX 8 16 0 -4
BITMAP
00
00
C0
C0
C0
DC
E6
C6
C6
C6
C6
C6
00
66
3C
00
ENDCHAR
STARTCHAR LtSmlILinvbreve
ENCODING 928
SWIDTH 480 0
DWIDTH 8 0
BBX 8 16 0 -4
BITMAP
00
00
18
18
00
38
18
18
18
18
18
7E
00
3C
66
00
ENDCHAR
STARTCHAR LtSmlOLinvbreve
ENCODING 929
SWIDTH 480 0
DWIDTH 8 0
BBX 8 16 0 -4
BITMAP
00
00
00
00
00
7C
C6
C6
C6
C6
C6
7C
00
3C
66
00
ENDCHAR
STARTCHAR LtSmlULinvbreve
ENCODING 930
SWIDTH 480 0
DWIDTH 8 0
BBX 8 16 0 -4
BITMAP
00
00
00
00
00
C6
C6
C6
C6
C6
CE
76
00
3C
66
00
ENDCHAR
STARTCHAR LtSmlATrndLinvbreve
ENCODING 931
SWIDTH 480 0
DWIDTH 8 0
BBX 8 16 0 -4
BITMAP
00
00
00
00
00
DC
E6
C6
FC
C0
CC
7C
00
3C
66
00
ENDCHAR
STARTCHAR LtCapELtilde
ENCODING 932
SWIDTH 480 0
DWIDTH 8 0
BBX 8 16 0 -4
BITMAP
00
00
FE
C2
C2
C8
F8
C8
C0
C2
C2
FE
00
36
5C
00
ENDCHAR
STARTCHAR LtCapILtilde
ENCODING 933
SWIDTH 480 0
DWIDTH 8 0
BBX 8 16 0 -4
BITMAP
00
00
7E
18
18
18
18
18
18
18
18
7E
00
36
5C
00
ENDCHAR
STARTCHAR LtCapULtilde
ENCODING 934
SWIDTH 480 0
DWIDTH 8 0
BBX 8 16 0 -4
BITMAP
00
00
C6
C6
C6
C6
C6
C6
C6
C6
C6
7C
00
36
5C
00
ENDCHAR
STARTCHAR LtSmlELtilde
ENCODING 935
SWIDTH 480 0
DWIDTH 8 0
BBX 8 16 0 -4
BITMAP
00
00
00
00
00
3C
66
C6
FE
C0
66
3C
00
36
5C
00
ENDCHAR
STARTCHAR LtSmlILtilde
ENCODING 936
SWIDTH 480 0
DWIDTH 8 0
BBX 8 16 0 -4
BITMAP
00
00
18
18
00
38
18
18
18
18
18
7E
00
36
5C
00
ENDCHAR
STARTCHAR LtSmlULtilde
ENCODING 937
SWIDTH 480 0
DWIDTH 8 0
BBX 8 16 0 -4
BITMAP
00
00
00
00
00
C6
C6
C6
C6
C6
CE
76
00
36
5C
00
ENDCHAR
STARTCHAR LtCapCCedilla
ENCODING 938
SWIDTH 480 0
DWIDTH 8 0
BBX 8 16 0 -4
BITMAP
00
00
3C
66
C0
C0
C0
C0
C0
C0
66
3C
10
18
30
00
ENDCHAR
STARTCHAR LtCapECedilla
ENCODING 939
SWIDTH 480 0
DWIDTH 8 0
BBX 8 16 0 -4
BITMAP
00
00
FE
C2
C2
C8
F8
C8
C0
C2
C2
FE
10
18
30
00
ENDCHAR
STARTCHAR LtCapHCedilla
ENCODING 940
SWIDTH 480 0
DWIDTH 8 0
BBX 8 16 0 -4
BITMAP
00
00
C6
C6
C6
C6
FE
C6
C6
C6
C6
C6
10
18
30
00
ENDCHAR
STARTCHAR LtCapSCedilla
ENCODING 941
SWIDTH 480 0
DWIDTH 8 0
BBX 8 16 0 -4
BITMAP
00
00
7C
C6
C0
E0
78
1C
06
06
C6
7C
10
18
30
00
ENDCHAR
STARTCHAR LtCapTCedilla
ENCODING 942
SWIDTH 480 0
DWIDTH 8 0
BBX 8 16 0 -4
BITMAP
00
00
FF
99
18
18
18
18
18
18
18
18
08
0C
18
00
ENDCHAR
STARTCHAR LtSmlCCedilla
ENCODING 943
SWIDTH 480 0
DWIDTH 8 0
BBX 8 16 0 -4
BITMAP
00
00
00
00
00
3C
66
C0
C0
C0
66
3C
10
18
30
00
ENDCHAR
STARTCHAR LtSmlECedilla
ENCODING 944
SWIDTH 480 0
DWIDTH 8 0
BBX 8 16 0 -4
BITMAP
00
00
00
00
00
3C
66
C6
FE
C0
66
3C
10
18
30
00
ENDCHAR
STARTCHAR LtSmlHCedilla
ENCODING 945
SWIDTH 480 0
DWIDTH 8 0
BBX 8 16 0 -4
BITMAP
00
00
C0
C0
C0
DC
E6
C6
C6
C6
C6
C6
10
18
30
00
ENDCHAR
STARTCHAR LtSmlSCedilla
ENCODING 946
SWIDTH 480 0
DWIDTH 8 0
BBX 8 16 0 -4
BITMAP
00
00
00
00
00
7C
C6
C0
7C
06
C6
7C
10
18
30
00
ENDCHAR
STARTCHAR LtSmlTCedilla
ENCODING 947
SWIDTH 480 0
DWIDTH 8 0
BBX 8 16 0 -4
BITMAP
00
00
00
30
30
FC
30
30
30
30
36
1C
08
0C
18
00
ENDCHAR
STARTCHAR LtCapCAcuteCedilla
ENCODING 948
SWIDTH 480 0
DWIDTH 8 0
BBX 8 16 0 -4
BITMAP
0C
18
10
3C
66
C0
C0
C0
C0
C0
66
3C
10
18
30
00
ENDCHAR
STARTCHAR LtSmlCAcuteCedilla
ENCODING 949
SWIDTH 480 0
DWIDTH 8 0
BBX 8 16 0 -4
BITMAP
00
0C
18
10
00
3C
66
C0
C0
C0
66
3C
10
18
30
00
ENDCHAR
STARTCHAR LtCapEBreveCedilla
ENCODING 950
SWIDTH 480 0
DWIDTH 8 0
BBX 8 16 0 -4
BITMAP
66
3C
00
FE
C2
C2
C8
F8
C8
C2
C2
FE
10
18
30
00
ENDCHAR
STARTCHAR LtSmlEBreveCedilla
ENCODING 951
SWIDTH 480 0
DWIDTH 8 0
BBX 8 16 0 -4
BITMAP
00
00
66
3C
00
3C
66
C6
FE
C0
66
3C
10
18
30
00
ENDCHAR
STARTCHAR LtCapDComma
ENCODING 952
SWIDTH 480 0
DWIDTH 8 0
BBX 8 16 0 -4
BITMAP
00
00
F8
CC
C6
C6
C6
C6
C6
C6
CC
F8
00
30
60
00
ENDCHAR
STARTCHAR LtCapGComma
ENCODING 953
SWIDTH 480 0
DWIDTH 8 0
BBX 8 16 0 -4
BITMAP
00
00
3C
66
C0
C0
C0
CE
C6
C6
66
3E
00
18
30
00
ENDCHAR
STARTCHAR LtCapKComma
ENCODING 954
SWIDTH 480 0
DWIDTH 8 0
BBX 8 16 0 -4
BITMAP
00
00
C6
C4
CC
C8
D8
F8
CC
CC
C6
C6
00
18
30
00
ENDCHAR
STARTCHAR LtCapLComma
ENCODING 955
SWIDTH 480 0
DWIDTH 8 0
BBX 8 16 0 -4
BITMAP
00
00
C0
C0
C0
C0
C0
C0
C0
C2
C2
FE
00
18
30
00
ENDCHAR
STARTCHAR LtCapNComma
ENCODING 956
SWIDTH 480 0
DWIDTH 8 0
BBX 8 16 0 -4
BITMAP
00
00
C2
E2
E2
B2
B2
9A
9A
8E
8E
86
00
30
60
00
ENDCHAR
STARTCHAR LtCapRComma
ENCODING 957
SWIDTH 480 0
DWIDTH 8 0
BBX 8 16 0 -4
BITMAP
00
00
FC
C6
C6
C6
FC
D8
CC
CC
C6
C6
00
18
30
00
ENDCHAR
STARTCHAR LtCapSComma
ENCODING 958
SWIDTH 480 0
DWIDTH 8 0
BBX 8 16 0 -4
BITMAP
00
00
7C
C6
C0
E0
78
1C
06
06
C6
7C
00
18
30
00
ENDCHAR
STARTCHAR LtCapTComma
ENCODING 959
SWIDTH 480 0
DWIDTH 8 0
BBX 8 16 0 -4
BITMAP
00
00
FF
99
18
18
18
18
18
18
18
18
00
18
30
00
ENDCHAR
STARTCHAR LtSmlDComma
ENCODING 960
SWIDTH 480 0
DWIDTH 8 0
BBX 8 16 0 -4
BITMAP
00
00
06
06
06
76
CE
C6
C6
C6
CE
76
00
18
30
00
ENDCHAR
STARTCHAR LtSmlGComma
ENCODING 961
SWIDTH 480 0
DWIDTH 8 0
BBX 8 16 0 -4
BITMAP
00
00
18
30
00
7A
CC
CC
CC
78
C0
7C
C6
C6
7C
00
ENDCHAR
STARTCHAR LtSmlKComma
ENCODING 962
SWIDTH 480 0
DWIDTH 8 0
BBX 8 16 0 -4
BITMAP
00
00
C0
C0
C0
C6
CC
D0
F8
CC
C6
C6
00
18
30
00
ENDCHAR
STARTCHAR LtSmlLComma
ENCODING 963
SWIDTH 480 0
DWIDTH 8 0
BBX 8 16 0 -4
BITMAP
00
00
38
18
18
18
18
18
18
18
18
7E
00
18
30
00
ENDCHAR
STARTCHAR LtSmlNComma
ENCODING 964
SWIDTH 480 0
DWIDTH 8 0
BBX 8 16 0 -4
BITMAP
00
00
00
00
00
DC
E6
C6
C6
C6
C6
C6
00
18
30
00
ENDCHAR
STARTCHAR LtSmlRComma
ENCODING 965
SWIDTH 480 0
DWIDTH 8 0
BBX 8 16 0 -4
BITMAP
00
00
00
00
00
EE
76
60
60
60
60
60
00
30
60
00
ENDCHAR
STARTCHAR LtSmlSComma
ENCODING 966
SWIDTH 480 0
DWIDTH 8 0
BBX 8 16 0 -4
BITMAP
00
00
00
00
00
7C
C6
C0
7C
06
C6
7C
00
18
30
00
ENDCHAR
STARTCHAR LtSmlTComma
ENCODING 967
SWIDTH 480 0
DWIDTH 8 0
BBX 8 16 0 -4
BITMAP
00
00
00
30
30
FC
30
30
30
30
36
1C
00
18
30
00
ENDCHAR
STARTCHAR LtCapAOgonek
ENCODING 968
SWIDTH 480 0
DWIDTH 8 0
BBX 8 16 0 -4
BITMAP
00
00
10
30
38
38
58
4C
7C
CC
86
86
0C
18
0E
00
ENDCHAR
STARTCHAR LtCapAOgonekAlt
ENCODING 969
SWIDTH 480 0
DWIDTH 8 0
BBX 8 16 0 -4
BITMAP
00
00
10
30
38
38
58
4C
7C
CC
86
86
10
30
1C
00
ENDCHAR
STARTCHAR LtCapEOgonek
ENCODING 970
SWIDTH 480 0
DWIDTH 8 0
BBX 8 16 0 -4
BITMAP
00
00
FE
C2
C2
C8
F8
C8
C0
C2
C2
FE
0C
18
0E
00
ENDCHAR
STARTCHAR LtCapEOgonekAlt
ENCODING 971
SWIDTH 480 0
DWIDTH 8 0
BBX 8 16 0 -4
BITMAP
00
00
FE
C2
C2
C8
F8
C8
C0
C2
C2
FE
10
30
1C
00
ENDCHAR
STARTCHAR LtCapIOgonek
ENCODING 972
SWIDTH 480 0
DWIDTH 8 0
BBX 8 16 0 -4
BITMAP
00
00
7E
18
18
18
18
18
18
18
18
7E
08
18
0E
00
ENDCHAR
STARTCHAR LtCapIOgonekAlt
ENCODING 973
SWIDTH 480 0
DWIDTH 8 0
BBX 8 16 0 -4
BITMAP
00
00
7E
18
18
18
18
18
18
18
18
7E
08
18
0E
00
ENDCHAR
STARTCHAR LtCapOOgonek
ENCODING 974
SWIDTH 480 0
DWIDTH 8 0
BBX 8 16 0 -4
BITMAP
00
00
7C
C6
C6
C6
C6
C6
C6
C6
C6
7C
08
18
0E
00
ENDCHAR
STARTCHAR LtCapOOgonekAlt
ENCODING 975
SWIDTH 480 0
DWIDTH 8 0
BBX 8 16 0 -4
BITMAP
00
00
7C
C6
C6
C6
C6
C6
C6
C6
C6
7C
10
30
1C
00
ENDCHAR
STARTCHAR LtCapUOgonek
ENCODING 976
SWIDTH 480 0
DWIDTH 8 0
BBX 8 16 0 -4
BITMAP
00
00
C6
C6
C6
C6
C6
C6
C6
C6
C6
7C
08
18
0E
00
ENDCHAR
STARTCHAR LtCapUOgonekAlt
ENCODING 977
SWIDTH 480 0
DWIDTH 8 0
BBX 8 16 0 -4
BITMAP
00
00
C6
C6
C6
C6
C6
C6
C6
C6
C6
7C
10
30
1C
00
ENDCHAR
STARTCHAR LtSmlAOgonek
ENCODING 978
SWIDTH 480 0
DWIDTH 8 0
BBX 8 16 0 -4
BITMAP
00
00
00
00
00
7C
66
06
7E
C6
CE
76
0C
18
0E
00
ENDCHAR
STARTCHAR LtSmlAOgonekAlt
ENCODING 979
SWIDTH 480 0
DWIDTH 8 0
BBX 8 16 0 -4
BITMAP
00
00
00
00
00
7C
66
06
7E
C6
CE
76
10
30
1C
00
ENDCHAR
STARTCHAR LtSmlEOgonek
ENCODING 980
SWIDTH 480 0
DWIDTH 8 0
BBX 8 16 0 -4
BITMAP
00
00
00
00
00
3C
66
C6
FE
C0
66
3C
08
18
0E
00
ENDCHAR
STARTCHAR LtSmlEOgonekAlt
ENCODING 981
SWIDTH 480 0
DWIDTH 8 0
BBX 8 16 0 -4
BITMAP
00
00
00
00
00
3C
66
C6
FE
C0
66
3C
10
30
1C
00
ENDCHAR
STARTCHAR LtSmlIOgonek
ENCODING 982
SWIDTH 480 0
DWIDTH 8 0
BBX 8 16 0 -4
BITMAP
00
00
18
18
00
38
18
18
18
18
18
7E
08
18
0E
00
ENDCHAR
STARTCHAR LtSmlIOgonekAlt
ENCODING 983
SWIDTH 480 0
DWIDTH 8 0
BBX 8 16 0 -4
BITMAP
00
00
18
18
00
38
18
18
18
18
18
7E
08
18
0E
00
ENDCHAR
STARTCHAR LtSmlOOgonek
ENCODING 984
SWIDTH 480 0
DWIDTH 8 0
BBX 8 16 0 -4
BITMAP
00
00
00
00
00
7C
C6
C6
C6
C6
C6
7C
08
18
0E
00
ENDCHAR
STARTCHAR LtSmlOOgonekAlt
ENCODING 985
SWIDTH 480 0
DWIDTH 8 0
BBX 8 16 0 -4
BITMAP
00
00
00
00
00
7C
C6
C6
C6
C6
C6
7C
10
30
1C
00
ENDCHAR
STARTCHAR LtSmlUOgonek
ENCODING 986
SWIDTH 480 0
DWIDTH 8 0
BBX 8 16 0 -4
BITMAP
00
00
00
00
00
C6
C6
C6
C6
C6
CE
76
0C
18
0E
00
ENDCHAR
STARTCHAR LtSmlUOgonekAlt
ENCODING 987
SWIDTH 480 0
DWIDTH 8 0
BBX 8 16 0 -4
BITMAP
00
00
00
00
00
C6
C6
C6
C6
C6
CE
76
10
30
1C
00
ENDCHAR
STARTCHAR LtCapOMacronOgonek
ENCODING 988
SWIDTH 480 0
DWIDTH 8 0
BBX 8 16 0 -4
BITMAP
7C
7C
00
7C
C6
C6
C6
C6
C6
C6
C6
7C
08
18
0E
00
ENDCHAR
STARTCHAR LtCapOMacronOgonekAlt
ENCODING 989
SWIDTH 480 0
DWIDTH 8 0
BBX 8 16 0 -4
BITMAP
7C
7C
00
7C
C6
C6
C6
C6
C6
C6
C6
7C
10
30
1C
00
ENDCHAR
STARTCHAR LtSmlOMacronOgonek
ENCODING 990
SWIDTH 480 0
DWIDTH 8 0
BBX 8 16 0 -4
BITMAP
00
00
7C
7C
00
7C
C6
C6
C6
C6
C6
7C
08
18
0E
00
ENDCHAR
STARTCHAR LtSmlOMacronOgonekAlt
ENCODING 991
SWIDTH 480 0
DWIDTH 8 0
BBX 8 16 0 -4
BITMAP
00
00
7C
7C
00
7C
C6
C6
C6
C6
C6
7C
10
30
1C
00
ENDCHAR
STARTCHAR LtCapAAcuteOgonek
ENCODING 992
SWIDTH 480 0
DWIDTH 8 0
BBX 8 16 0 -4
BITMAP
0C
18
10
30
38
38
58
4C
7C
CC
86
86
0C
18
0E
00
ENDCHAR
STARTCHAR LtCapAAcuteOgonekAlt
ENCODING 993
SWIDTH 480 0
DWIDTH 8 0
BBX 8 16 0 -4
BITMAP
0C
18
10
30
38
38
58
4C
7C
CC
86
86
10
30
1C
00
ENDCHAR
STARTCHAR LtCapEAcuteOgonek
ENCODING 994
SWIDTH 480 0
DWIDTH 8 0
BBX 8 16 0 -4
BITMAP
0C
18
10
FE
C2
C2
C8
F8
C8
C2
C2
FE
0C
18
0E
00
ENDCHAR
STARTCHAR LtCapEAcuteOgonekAlt
ENCODING 995
SWIDTH 480 0
DWIDTH 8 0
BBX 8 16 0 -4
BITMAP
0C
18
10
FE
C2
C2
C8
F8
C8
C2
C2
FE
10
30
1C
00
ENDCHAR
STARTCHAR LtCapIAcuteOgonek
ENCODING 996
SWIDTH 480 0
DWIDTH 8 0
BBX 8 16 0 -4
BITMAP
0C
18
10
7E
18
18
18
18
18
18
18
7E
08
18
0E
00
ENDCHAR
STARTCHAR LtCapIAcuteOgonekAlt
ENCODING 997
SWIDTH 480 0
DWIDTH 8 0
BBX 8 16 0 -4
BITMAP
0C
18
10
7E
18
18
18
18
18
18
18
7E
08
18
0E
00
ENDCHAR
STARTCHAR LtCapOAcuteOgonek
ENCODING 998
SWIDTH 480 0
DWIDTH 8 0
BBX 8 16 0 -4
BITMAP
0C
18
10
7C
C6
C6
C6
C6
C6
C6
C6
7C
08
18
0E
00
ENDCHAR
STARTCHAR LtCapOAcuteOgonekAlt
ENCODING 999
SWIDTH 480 0
DWIDTH 8 0
BBX 8 16 0 -4
BITMAP
0C
18
10
7C
C6
C6
C6
C6
C6
C6
C6
7C
10
30
1C
00
ENDCHAR
STARTCHAR LtCapUAcuteOgonek
ENCODING 1000
SWIDTH 480 0
DWIDTH 8 0
BBX 8 16 0 -4
BITMAP
0C
18
10
C6
C6
C6
C6
C6
C6
C6
C6
7C
08
18
0E
00
ENDCHAR
STARTCHAR LtCapUAcuteOgonekAlt
ENCODING 1001
SWIDTH 480 0
DWIDTH 8 0
BBX 8 16 0 -4
BITMAP
0C
18
10
C6
C6
C6
C6
C6
C6
C6
C6
7C
10
30
1C
00
ENDCHAR
STARTCHAR LtSmlAAcuteOgonek
ENCODING 1002
SWIDTH 480 0
DWIDTH 8 0
BBX 8 16 0 -4
BITMAP
00
0C
18
10
00
7C
66
06
7E
C6
CE
76
0C
18
0E
00
ENDCHAR
STARTCHAR LtSmlAAcuteOgonekAlt
ENCODING 1003
SWIDTH 480 0
DWIDTH 8 0
BBX 8 16 0 -4
BITMAP
00
0C
18
10
00
7C
66
06
7E
C6
CE
76
10
30
1C
00
ENDCHAR
STARTCHAR LtSmlEAcuteOgonek
ENCODING 1004
SWIDTH 480 0
DWIDTH 8 0
BBX 8 16 0 -4
BITMAP
00
0C
18
10
00
3C
66
C6
FE
C0
66
3C
08
18
0E
00
ENDCHAR
STARTCHAR LtSmlEAcuteOgonekAlt
ENCODING 1005
SWIDTH 480 0
DWIDTH 8 0
BBX 8 16 0 -4
BITMAP
00
0C
18
10
00
3C
66
C6
FE
C0
66
3C
10
30
1C
00
ENDCHAR
STARTCHAR LtSmlIAcuteOgonek
ENCODING 1006
SWIDTH 480 0
DWIDTH 8 0
BBX 8 16 0 -4
BITMAP
00
0C
18
10
00
38
18
18
18
18
18
7E
08
18
0E
00
ENDCHAR
STARTCHAR LtSmlIAcuteOgonekAlt
ENCODING 1007
SWIDTH 480 0
DWIDTH 8 0
BBX 8 16 0 -4
BITMAP
00
0C
18
10
00
38
18
18
18
18
18
7E
08
18
0E
00
ENDCHAR
STARTCHAR LtSmlOAcuteOgonek
ENCODING 1008
SWIDTH 480 0
DWIDTH 8 0
BBX 8 16 0 -4
BITMAP
00
0C
18
10
00
7C
C6
C6
C6
C6
C6
7C
08
18
0E
00
ENDCHAR
STARTCHAR LtSmlOAcuteOgonekAlt
ENCODING 1009
SWIDTH 480 0
DWIDTH 8 0
BBX 8 16 0 -4
BITMAP
00
0C
18
10
00
7C
C6
C6
C6
C6
C6
7C
10
30
1C
00
ENDCHAR
STARTCHAR LtSmlUAcuteOgonek
ENCODING 1010
SWIDTH 480 0
DWIDTH 8 0
BBX 8 16 0 -4
BITMAP
00
0C
18
10
00
C6
C6
C6
C6
C6
CE
76
0C
18
0E
00
ENDCHAR
STARTCHAR LtSmlUAcuteOgonekAlt
ENCODING 1011
SWIDTH 480 0
DWIDTH 8 0
BBX 8 16 0 -4
BITMAP
00
0C
18
10
00
C6
C6
C6
C6
C6
CE
76
10
30
1C
00
ENDCHAR
STARTCHAR LtCapHDesc
ENCODING 1012
SWIDTH 480 0
DWIDTH 8 0
BBX 8 16 0 -4
BITMAP
00
00
C6
C6
C6
C6
FE
C6
C6
C6
C6
C6
03
03
02
00
ENDCHAR
STARTCHAR LtCapKDesc
ENCODING 1013
SWIDTH 480 0
DWIDTH 8 0
BBX 8 16 0 -4
BITMAP
00
00
C6
C4
CC
C8
D8
F8
D8
CC
CC
C6
06
06
04
00
ENDCHAR
STARTCHAR LtCapNDesc
ENCODING 1014
SWIDTH 480 0
DWIDTH 8 0
BBX 8 16 0 -4
BITMAP
00
00
C2
E2
E2
B2
B2
9A
9A
8E
8E
86
03
03
02
00
ENDCHAR
STARTCHAR LtCapZDesc
ENCODING 1015
SWIDTH 480 0
DWIDTH 8 0
BBX 8 16 0 -4
BITMAP
00
00
FE
86
8C
1C
18
30
70
62
C2
FE
03
03
02
00
ENDCHAR
STARTCHAR LtSmlHDesc
ENCODING 1016
SWIDTH 480 0
DWIDTH 8 0
BBX 8 16 0 -4
BITMAP
00
00
C0
C0
C0
DC
E6
C6
C6
C6
C6
C6
03
03
02
00
ENDCHAR
STARTCHAR LtSmlKDesc
ENCODING 1017
SWIDTH 480 0
DWIDTH 8 0
BBX 8 16 0 -4
BITMAP
00
00
C0
C0
C0
C6
CC
D0
F8
CC
C6
C6
03
03
02
00
ENDCHAR
STARTCHAR LtSmlNDesc
ENCODING 1018
SWIDTH 480 0
DWIDTH 8 0
BBX 8 16 0 -4
BITMAP
00
00
00
00
00
DC
E6
C6
C6
C6
C6
C6
03
03
02
00
ENDCHAR
STARTCHAR LtSmlZDesc
ENCODING 1019
SWIDTH 480 0
DWIDTH 8 0
BBX 8 16 0 -4
BITMAP
00
00
00
00
00
FE
8E
0C
38
60
E2
FE
03
03
02
00
ENDCHAR
STARTCHAR CyCapA
ENCODING 1020
SWIDTH 480 0
DWIDTH 8 0
BBX 8 16 0 -4
BITMAP
00
00
10
30
38
38
58
4C
7C
CC
86
86
00
00
00
00
ENDCHAR
STARTCHAR CyCapBe
ENCODING 1021
SWIDTH 480 0
DWIDTH 8 0
BBX 8 16 0 -4
BITMAP
00
00
FC
C4
C2
C0
FC
C6
C6
C6
C6
FC
00
00
00
00
ENDCHAR
STARTCHAR CyCapVe
ENCODING 1022
SWIDTH 480 0
DWIDTH 8 0
BBX 8 16 0 -4
BITMAP
00
00
FC
C6
C6
C6
FC
C6
C6
C6
C6
FC
00
00
00
00
ENDCHAR
STARTCHAR CyCapGhe
ENCODING 1023
SWIDTH 480 0
DWIDTH 8 0
BBX 8 16 0 -4
BITMAP
00
00
7E
62
62
60
60
60
60
60
60
60
00
00
00
00
ENDCHAR
STARTCHAR CyCapDe
ENCODING 1024
SWIDTH 480 0
DWIDTH 8 0
BBX 8 16 0 -4
BITMAP
00
00
7C
4C
4C
4C
4C
4C
4C
4C
CC
FE
C6
C6
C6
00
ENDCHAR
STARTCHAR CyCapIe
ENCODING 1025
SWIDTH 480 0
DWIDTH 8 0
BBX 8 16 0 -4
BITMAP
00
00
FE
C2
C2
C8
F8
C8
C0
C2
C2
FE
00
00
00
00
ENDCHAR
STARTCHAR CyCapZhe
ENCODING 1026
SWIDTH 480 0
DWIDTH 8 0
BBX 8 16 0 -4
BITMAP
00
00
D6
D6
D6
54
38
7C
D6
D6
D6
D6
00
00
00
00
ENDCHAR
STARTCHAR CyCapZe
ENCODING 1027
SWIDTH 480 0
DWIDTH 8 0
BBX 8 16 0 -4
BITMAP
00
00
78
CC
06
0C
38
0C
06
06
CC
78
00
00
00
00
ENDCHAR
STARTCHAR CyCapI
ENCODING 1028
SWIDTH 480 0
DWIDTH 8 0
BBX 8 16 0 -4
BITMAP
00
00
C6
C6
CE
CE
D6
D6
E6
E6
C6
C6
00
00
00
00
ENDCHAR
STARTCHAR CyCapKa
ENCODING 1029
SWIDTH 480 0
DWIDTH 8 0
BBX 8 16 0 -4
BITMAP
00
00
C6
C4
CC
C8
D8
F8
CC
CC
C6
C6
00
00
00
00
ENDCHAR
STARTCHAR CyCapEl
ENCODING 1030
SWIDTH 480 0
DWIDTH 8 0
BBX 8 16 0 -4
BITMAP
00
00
3E
26
26
26
26
26
26
26
E6
C6
00
00
00
00
ENDCHAR
STARTCHAR CyCapElBul
ENCODING 1031
SWIDTH 480 0
DWIDTH 8 0
BBX 8 16 0 -4
BITMAP
00
00
10
30
38
38
58
4C
4C
84
86
86
00
00
00
00
ENDCHAR
STARTCHAR CyCapEm
ENCODING 1032
SWIDTH 480 0
DWIDTH 8 0
BBX 8 16 0 -4
BITMAP
00
00
C6
C6
EE
EE
FE
B6
B6
86
86
86
00
00
00
00
ENDCHAR
STARTCHAR CyCapEn
ENCODING 1033
SWIDTH 480 0
DWIDTH 8 0
BBX 8 16 0 -4
BITMAP
00
00
C6
C6
C6
C6
FE
C6
C6
C6
C6
C6
00
00
00
00
ENDCHAR
STARTCHAR CyCapO
ENCODING 1034
SWIDTH 480 0
DWIDTH 8 0
BBX 8 16 0 -4
BITMAP
00
00
7C
C6
C6
C6
C6
C6
C6
C6
C6
7C
00
00
00
00
ENDCHAR
STARTCHAR CyCapPe
ENCODING 1035
SWIDTH 480 0
DWIDTH 8 0
BBX 8 16 0 -4
BITMAP
00
00
FE
C6
C6
C6
C6
C6
C6
C6
C6
C6
00
00
00
00
ENDCHAR
STARTCHAR CyCapEr
ENCODING 1036
SWIDTH 480 0
DWIDTH 8 0
BBX 8 16 0 -4
BITMAP
00
00
FC
C6
C6
C6
C6
FC
C0
C0
C0
C0
00
00
00
00
ENDCHAR
STARTCHAR CyCapEs
ENCODING 1037
SWIDTH 480 0
DWIDTH 8 0
BBX 8 16 0 -4
BITMAP
00
00
3C
66
C0
C0
C0
C0
C0
C0
66
3C
00
00
00
00
ENDCHAR
STARTCHAR CyCapTe
ENCODING 1038
SWIDTH 480 0
DWIDTH 8 0
BBX 8 16 0 -4
BITMAP
00
00
FF
99
18
18
18
18
18
18
18
18
00
00
00
00
ENDCHAR
STARTCHAR CyCapU
ENCODING 1039
SWIDTH 480 0
DWIDTH 8 0
BBX 8 16 0 -4
BITMAP
00
00
C2
62
66
34
34
1C
18
08
68
70
00
00
00
00
ENDCHAR
STARTCHAR CyCapEf
ENCODING 1040
SWIDTH 480 0
DWIDTH 8 0
BBX 8 16 0 -4
BITMAP
00
10
10
7C
D6
D6
D6
D6
D6
D6
7C
10
10
00
00
00
ENDCHAR
STARTCHAR CyCapHa
ENCODING 1041
SWIDTH 480 0
DWIDTH 8 0
BBX 8 16 0 -4
BITMAP
00
00
C6
C6
64
68
38
38
2C
4C
C6
C6
00
00
00
00
ENDCHAR
STARTCHAR CyCapTse
ENCODING 1042
SWIDTH 480 0
DWIDTH 8 0
BBX 8 16 0 -4
BITMAP
00
00
C6
C6
C6
C6
C6
C6
C6
C6
C6
FE
03
03
02
00
ENDCHAR
STARTCHAR CyCapChe
ENCODING 1043
SWIDTH 480 0
DWIDTH 8 0
BBX 8 16 0 -4
BITMAP
00
00
C6
C6
C6
C6
C6
7E
06
06
06
06
00
00
00
00
ENDCHAR
STARTCHAR CyCapSha
ENCODING 1044
SWIDTH 480 0
DWIDTH 8 0
BBX 8 16 0 -4
BITMAP
00
00
D6
D6
D6
D6
D6
D6
D6
D6
D6
FE
00
00
00
00
ENDCHAR
STARTCHAR CyCapShcha
ENCODING 1045
SWIDTH 480 0
DWIDTH 8 0
BBX 8 16 0 -4
BITMAP
00
00
D6
D6
D6
D6
D6
D6
D6
D6
D6
FE
03
03
02
00
ENDCHAR
STARTCHAR CyCapHardsign
ENCODING 1046
SWIDTH 480 0
DWIDTH 8 0
BBX 8 16 0 -4
BITMAP
00
00
F0
F0
B0
30
3C
36
36
36
36
3C
00
00
00
00
ENDCHAR
STARTCHAR CyCapYeru
ENCODING 1047
SWIDTH 480 0
DWIDTH 8 0
BBX 8 16 0 -4
BITMAP
00
00
C6
C6
C6
C6
E6
D6
DE
DE
F6
E6
00
00
00
00
ENDCHAR
STARTCHAR CyCapSoftsign
ENCODING 1048
SWIDTH 480 0
DWIDTH 8 0
BBX 8 16 0 -4
BITMAP
00
00
60
60
60
60
7C
66
66
66
66
7C
00
00
00
00
ENDCHAR
STARTCHAR CyCapE
ENCODING 1049
SWIDTH 480 0
DWIDTH 8 0
BBX 8 16 0 -4
BITMAP
00
00
78
CC
06
06
7E
06
06
06
CC
78
00
00
00
00
ENDCHAR
STARTCHAR CyCapYu
ENCODING 1050
SWIDTH 480 0
DWIDTH 8 0
BBX 8 16 0 -4
BITMAP
00
00
CC
D6
D6
F6
F6
F6
F6
D6
D6
CC
00
00
00
00
ENDCHAR
STARTCHAR CyCapYa
ENCODING 1051
SWIDTH 480 0
DWIDTH 8 0
BBX 8 16 0 -4
BITMAP
00
00
7E
C6
C6
C6
7E
36
66
66
C6
C6
00
00
00
00
ENDCHAR
STARTCHAR CyCapDje
ENCODING 1052
SWIDTH 480 0
DWIDTH 8 0
BBX 8 16 0 -4
BITMAP
00
00
FC
B4
30
3C
36
36
36
36
36
36
06
16
1C
00
ENDCHAR
STARTCHAR CyCapTshe
ENCODING 1053
SWIDTH 480 0
DWIDTH 8 0
BBX 8 16 0 -4
BITMAP
00
00
FC
B4
30
3C
36
36
36
36
36
36
00
00
00
00
ENDCHAR
STARTCHAR CyCapLje
ENCODING 1054
SWIDTH 480 0
DWIDTH 8 0
BBX 8 16 0 -4
BITMAP
00
00
78
58
58
58
5C
5A
5A
5A
DE
9C
00
00
00
00
ENDCHAR
STARTCHAR CyCapNje
ENCODING 1055
SWIDTH 480 0
DWIDTH 8 0
BBX 8 16 0 -4
BITMAP
00
00
D8
D8
D8
D8
FC
DA
DA
DA
DE
DC
00
00
00
00
ENDCHAR
STARTCHAR CyCapTje
ENCODING 1056
SWIDTH 480 0
DWIDTH 8 0
BBX 8 16 0 -4
BITMAP
00
00
FC
B4
30
30
3C
36
36
36
36
3C
00
00
00
00
ENDCHAR
STARTCHAR CyCapDzhe
ENCODING 1057
SWIDTH 480 0
DWIDTH 8 0
BBX 8 16 0 -4
BITMAP
00
00
C6
C6
C6
C6
C6
C6
C6
C6
C6
FE
18
18
18
00
ENDCHAR
STARTCHAR CyCapIeUkr
ENCODING 1058
SWIDTH 480 0
DWIDTH 8 0
BBX 8 16 0 -4
BITMAP
00
00
3C
66
C0
C0
FC
C0
C0
C0
66
3C
00
00
00
00
ENDCHAR
STARTCHAR CyCapDze
ENCODING 1059
SWIDTH 480 0
DWIDTH 8 0
BBX 8 16 0 -4
BITMAP
00
00
7C
C6
C0
E0
78
1C
06
06
C6
7C
00
00
00
00
ENDCHAR
STARTCHAR CyCapIUkr
ENCODING 1060
SWIDTH 480 0
DWIDTH 8 0
BBX 8 16 0 -4
BITMAP
00
00
7E
18
18
18
18
18
18
18
18
7E
00
00
00
00
ENDCHAR
STARTCHAR CyCapJe
ENCODING 1061
SWIDTH 480 0
DWIDTH 8 0
BBX 8 16 0 -4
BITMAP
00
00
1E
0C
0C
0C
0C
0C
0C
CC
CC
78
00
00
00
00
ENDCHAR
STARTCHAR CyCapYat
ENCODING 1062
SWIDTH 480 0
DWIDTH 8 0
BBX 8 16 0 -4
BITMAP
00
00
30
FC
B4
30
3C
36
36
36
36
3C
00
00
00
00
ENDCHAR
STARTCHAR CyCapFita
ENCODING 1063
SWIDTH 480 0
DWIDTH 8 0
BBX 8 16 0 -4
BITMAP
00
00
7C
C6
C6
C6
FE
C6
C6
C6
C6
7C
00
00
00
00
ENDCHAR
STARTCHAR CyCapIzhitsa
ENCODING 1064
SWIDTH 480 0
DWIDTH 8 0
BBX 8 16 0 -4
BITMAP
00
00
C3
C6
64
64
68
68
38
38
30
10
00
00
00
00
ENDCHAR
STARTCHAR CyCapLittleyus
ENCODING 1065
SWIDTH 480 0
DWIDTH 8 0
BBX 8 16 0 -4
BITMAP
00
00
30
30
38
78
4C
4C
FC
B6
B6
B6
00
00
00
00
ENDCHAR
STARTCHAR CyCapBigyus
ENCODING 1066
SWIDTH 480 0
DWIDTH 8 0
BBX 8 16 0 -4
BITMAP
00
00
FE
C2
66
64
38
38
7C
D6
D6
D6
00
00
00
00
ENDCHAR
STARTCHAR CyCapOmega
ENCODING 1067
SWIDTH 480 0
DWIDTH 8 0
BBX 8 16 0 -4
BITMAP
00
00
C6
D6
D6
D6
D6
D6
D6
D6
6C
6C
00
00
00
00
ENDCHAR
STARTCHAR CyCapOmegaBroad
ENCODING 1068
SWIDTH 480 0
DWIDTH 8 0
BBX 8 16 0 -4
BITMAP
00
00
6C
C6
C6
C6
C6
D6
D6
D6
D6
6C
00
00
00
00
ENDCHAR
STARTCHAR CyCapPsi
ENCODING 1069
SWIDTH 480 0
DWIDTH 8 0
BBX 8 16 0 -4
BITMAP
00
00
D6
D6
D6
D6
D6
7C
10
10
10
38
00
00
00
00
ENDCHAR
STARTCHAR CyCapKsi
ENCODING 1070
SWIDTH 480 0
DWIDTH 8 0
BBX 8 16 0 -4
BITMAP
6C
38
10
78
CC
86
0C
38
0C
06
0C
78
C0
7C
06
00
ENDCHAR
STARTCHAR CyCapZemlya
ENCODING 1071
SWIDTH 480 0
DWIDTH 8 0
BBX 8 16 0 -4
BITMAP
00
00
FE
86
8C
1C
18
30
70
60
C0
FC
06
7C
C0
00
ENDCHAR
STARTCHAR CyCapDzelo
ENCODING 1072
SWIDTH 480 0
DWIDTH 8 0
BBX 8 16 0 -4
BITMAP
00
00
FE
86
8C
18
7C
30
60
60
C0
FC
06
7C
C0
00
ENDCHAR
STARTCHAR CyCapKoppa
ENCODING 1073
SWIDTH 480 0
DWIDTH 8 0
BBX 8 16 0 -4
BITMAP
00
00
3A
66
C2
C0
C0
C0
C0
C0
60
3C
0C
0C
0C
00
ENDCHAR
STARTCHAR CyCapYn
ENCODING 1074
SWIDTH 480 0
DWIDTH 8 0
BBX 8 16 0 -4
BITMAP
00
00
30
30
38
78
7C
74
B6
B6
30
30
30
30
30
00
ENDCHAR
STARTCHAR CyCapSchwa
ENCODING 1075
SWIDTH 480 0
DWIDTH 8 0
BBX 8 16 0 -4
BITMAP
00
00
78
6C
46
06
06
FE
C6
C6
6C
38
00
00
00
00
ENDCHAR
STARTCHAR CyCapQa
ENCODING 1076
SWIDTH 480 0
DWIDTH 8 0
BBX 8 16 0 -4
BITMAP
00
00
7C
C6
C6
C6
C6
C6
C6
F6
DE
7C
06
02
00
00
ENDCHAR
STARTCHAR CyCapWe
ENCODING 1077
SWIDTH 480 0
DWIDTH 8 0
BBX 8 16 0 -4
BITMAP
00
00
C2
C2
C2
DA
DA
DA
FE
6C
6C
6C
00
00
00
00
ENDCHAR
STARTCHAR CyCapDzeAbkh
ENCODING 1078
SWIDTH 480 0
DWIDTH 8 0
BBX 8 16 0 -4
BITMAP
00
00
FE
86
8C
18
3C
06
06
06
C6
7C
00
00
00
00
ENDCHAR
STARTCHAR CyCapUStrt
ENCODING 1079
SWIDTH 480 0
DWIDTH 8 0
BBX 8 16 0 -4
BITMAP
00
00
C3
62
64
34
38
18
18
18
18
18
00
00
00
00
ENDCHAR
STARTCHAR CyCapShha
ENCODING 1080
SWIDTH 480 0
DWIDTH 8 0
BBX 8 16 0 -4
BITMAP
00
00
C0
C0
C0
C0
FC
C6
C6
C6
C6
C6
00
00
00
00
ENDCHAR
STARTCHAR CyCapDeKomi
ENCODING 1081
SWIDTH 480 0
DWIDTH 8 0
BBX 8 16 0 -4
BITMAP
00
00
06
06
06
06
7E
C6
C6
C6
C6
7E
00
00
00
00
ENDCHAR
STARTCHAR CyCapSemisoftsign
ENCODING 1082
SWIDTH 480 0
DWIDTH 8 0
BBX 8 16 0 -4
BITMAP
00
00
60
60
F8
60
7C
66
66
66
66
7C
00
00
00
00
ENDCHAR
STARTCHAR CyCapPalochka
ENCODING 1083
SWIDTH 480 0
DWIDTH 8 0
BBX 8 16 0 -4
BITMAP
00
00
3C
18
18
18
18
18
18
18
18
3C
00
00
00
00
ENDCHAR
STARTCHAR CySmlA
ENCODING 1084
SWIDTH 480 0
DWIDTH 8 0
BBX 8 16 0 -4
BITMAP
00
00
00
00
00
7C
66
06
7E
C6
CE
76
00
00
00
00
ENDCHAR
STARTCHAR CySmlBe
ENCODING 1085
SWIDTH 480 0
DWIDTH 8 0
BBX 8 16 0 -4
BITMAP
00
00
0C
38
60
40
DC
E6
C6
C6
C6
7C
00
00
00
00
ENDCHAR
STARTCHAR CySmlBeSrb
ENCODING 1086
SWIDTH 480 0
DWIDTH 8 0
BBX 8 16 0 -4
BITMAP
00
00
7C
FC
C0
70
6C
C6
C6
C6
C6
7C
00
00
00
00
ENDCHAR
STARTCHAR CySmlVe
ENCODING 1087
SWIDTH 480 0
DWIDTH 8 0
BBX 8 16 0 -4
BITMAP
00
00
00
00
00
FC
C6
C6
FC
C6
C6
FC
00
00
00
00
ENDCHAR
STARTCHAR CySmlVeBul
ENCODING 1088
SWIDTH 480 0
DWIDTH 8 0
BBX 8 16 0 -4
BITMAP
00
00
78
CC
CC
CC
F8
CC
C6
C6
C6
7C
00
00
00
00
ENDCHAR
STARTCHAR CySmlGhe
ENCODING 1089
SWIDTH 480 0
DWIDTH 8 0
BBX 8 16 0 -4
BITMAP
00
00
00
00
00
7E
62
62
60
60
60
60
00
00
00
00
ENDCHAR
STARTCHAR CySmlGheSrb
ENCODING 1090
SWIDTH 480 0
DWIDTH 8 0
BBX 8 16 0 -4
BITMAP
00
00
00
00
00
7E
62
62
60
60
60
60
00
00
00
00
ENDCHAR
STARTCHAR CySmlGheBul
ENCODING 1091
SWIDTH 480 0
DWIDTH 8 0
BBX 8 16 0 -4
BITMAP
00
00
00
00
00
7C
C6
06
7C
C0
C6
7C
00
00
00
00
ENDCHAR
STARTCHAR CySmlDe
ENCODING 1092
SWIDTH 480 0
DWIDTH 8 0
BBX 8 16 0 -4
BITMAP
00
00
00
00
00
7C
4C
4C
4C
4C
CC
FE
C6
C6
C6
00
ENDCHAR
STARTCHAR CySmlDeSrb
ENCODING 1093
SWIDTH 480 0
DWIDTH 8 0
BBX 8 16 0 -4
BITMAP
00
00
00
00
00
7C
4C
4C
4C
4C
CC
FE
C6
C6
C6
00
ENDCHAR
STARTCHAR CySmlDeBul
ENCODING 1094
SWIDTH 480 0
DWIDTH 8 0
BBX 8 16 0 -4
BITMAP
00
00
00
00
00
76
CE
C6
C6
C6
CE
76
06
C6
7C
00
ENDCHAR
STARTCHAR CySmlIe
ENCODING 1095
SWIDTH 480 0
DWIDTH 8 0
BBX 8 16 0 -4
BITMAP
00
00
00
00
00
3C
66
C6
FE
C0
66
3C
00
00
00
00
ENDCHAR
STARTCHAR CySmlZhe
ENCODING 1096
SWIDTH 480 0
DWIDTH 8 0
BBX 8 16 0 -4
BITMAP
00
00
00
00
00
D6
D6
54
38
D6
D6
D6
00
00
00
00
ENDCHAR
STARTCHAR CySmlZheBul
ENCODING 1097
SWIDTH 480 0
DWIDTH 8 0
BBX 8 16 0 -4
BITMAP
00
00
10
10
10
D6
D6
54
38
D6
D6
D6
00
00
00
00
ENDCHAR
STARTCHAR CySmlZe
ENCODING 1098
SWIDTH 480 0
DWIDTH 8 0
BBX 8 16 0 -4
BITMAP
00
00
00
00
00
7C
C6
06
1C
06
C6
7C
00
00
00
00
ENDCHAR
STARTCHAR CySmlZeBul
ENCODING 1099
SWIDTH 480 0
DWIDTH 8 0
BBX 8 16 0 -4
BITMAP
00
00
00
00
00
7C
C6
06
04
3C
04
06
06
C6
7C
00
ENDCHAR
STARTCHAR CySmlI
ENCODING 1100
SWIDTH 480 0
DWIDTH 8 0
BBX 8 16 0 -4
BITMAP
00
00
00
00
00
C6
CE
CE
D6
E6
E6
C6
00
00
00
00
ENDCHAR
STARTCHAR CySmlIBul
ENCODING 1101
SWIDTH 480 0
DWIDTH 8 0
BBX 8 16 0 -4
BITMAP
00
00
00
00
00
C6
C6
C6
C6
C6
CE
76
00
00
00
00
ENDCHAR
STARTCHAR CySmlKa
ENCODING 1102
SWIDTH 480 0
DWIDTH 8 0
BBX 8 16 0 -4
BITMAP
00
00
00
00
00
C6
C4
D8
F8
CC
C6
C6
00
00
00
00
ENDCHAR
STARTCHAR CySmlKaBul
ENCODING 1103
SWIDTH 480 0
DWIDTH 8 0
BBX 8 16 0 -4
BITMAP
00
00
C0
C0
C0
C6
CC
D0
F8
CC
C6
C6
00
00
00
00
ENDCHAR
STARTCHAR CySmlEl
ENCODING 1104
SWIDTH 480 0
DWIDTH 8 0
BBX 8 16 0 -4
BITMAP
00
00
00
00
00
3E
26
26
26
26
E6
C6
00
00
00
00
ENDCHAR
STARTCHAR CySmlElBul
ENCODING 1105
SWIDTH 480 0
DWIDTH 8 0
BBX 8 16 0 -4
BITMAP
00
00
00
00
00
10
38
38
4C
4C
C6
86
00
00
00
00
ENDCHAR
STARTCHAR CySmlEm
ENCODING 1106
SWIDTH 480 0
DWIDTH 8 0
BBX 8 16 0 -4
BITMAP
00
00
00
00
00
C6
C6
EE
EE
B6
B6
86
00
00
00
00
ENDCHAR
STARTCHAR CySmlEn
ENCODING 1107
SWIDTH 480 0
DWIDTH 8 0
BBX 8 16 0 -4
BITMAP
00
00
00
00
00
C6
C6
C6
FE
C6
C6
C6
00
00
00
00
ENDCHAR
STARTCHAR CySmlO
ENCODING 1108
SWIDTH 480 0
DWIDTH 8 0
BBX 8 16 0 -4
BITMAP
00
00
00
00
00
7C
C6
C6
C6
C6
C6
7C
00
00
00
00
ENDCHAR
STARTCHAR CySmlPe
ENCODING 1109
SWIDTH 480 0
DWIDTH 8 0
BBX 8 16 0 -4
BITMAP
00
00
00
00
00
FE
C6
C6
C6
C6
C6
C6
00
00
00
00
ENDCHAR
STARTCHAR CySmlPeSrb
ENCODING 1110
SWIDTH 480 0
DWIDTH 8 0
BBX 8 16 0 -4
BITMAP
00
00
00
00
00
FE
C6
C6
C6
C6
C6
C6
00
00
00
00
ENDCHAR
STARTCHAR CySmlPeBul
ENCODING 1111
SWIDTH 480 0
DWIDTH 8 0
BBX 8 16 0 -4
BITMAP
00
00
00
00
00
DC
E6
C6
C6
C6
C6
C6
00
00
00
00
ENDCHAR
STARTCHAR CySmlEr
ENCODING 1112
SWIDTH 480 0
DWIDTH 8 0
BBX 8 16 0 -4
BITMAP
00
00
00
00
00
DC
E6
C6
C6
C6
E6
DC
C0
C0
C0
00
ENDCHAR
STARTCHAR CySmlEs
ENCODING 1113
SWIDTH 480 0
DWIDTH 8 0
BBX 8 16 0 -4
BITMAP
00
00
00
00
00
3C
66
C0
C0
C0
66
3C
00
00
00
00
ENDCHAR
STARTCHAR CySmlTe
ENCODING 1114
SWIDTH 480 0
DWIDTH 8 0
BBX 8 16 0 -4
BITMAP
00
00
00
00
00
FF
99
18
18
18
18
18
00
00
00
00
ENDCHAR
STARTCHAR CySmlTeSrb
ENCODING 1115
SWIDTH 480 0
DWIDTH 8 0
BBX 8 16 0 -4
BITMAP
00
00
00
00
00
FF
99
18
18
18
18
18
00
00
00
00
ENDCHAR
STARTCHAR CySmlTeBul
ENCODING 1116
SWIDTH 480 0
DWIDTH 8 0
BBX 8 16 0 -4
BITMAP
00
00
00
00
00
AC
FE
D6
D6
D6
D6
D6
00
00
00
00
ENDCHAR
STARTCHAR CySmlU
ENCODING 1117
SWIDTH 480 0
DWIDTH 8 0
BBX 8 16 0 -4
BITMAP
00
00
00
00
00
C2
C6
64
64
3C
38
18
10
D0
E0
00
ENDCHAR
STARTCHAR CySmlEf
ENCODING 1118
SWIDTH 480 0
DWIDTH 8 0
BBX 8 16 0 -4
BITMAP
00
00
28
10
10
7C
D6
D6
D6
D6
D6
7C
10
10
28
00
ENDCHAR
STARTCHAR CySmlHa
ENCODING 1119
SWIDTH 480 0
DWIDTH 8 0
BBX 8 16 0 -4
BITMAP
00
00
00
00
00
C6
E6
68
38
2C
CE
C6
00
00
00
00
ENDCHAR
STARTCHAR CySmlTse
ENCODING 1120
SWIDTH 480 0
DWIDTH 8 0
BBX 8 16 0 -4
BITMAP
00
00
00
00
00
C6
C6
C6
C6
C6
C6
FE
03
03
02
00
ENDCHAR
STARTCHAR CySmlTseBul
ENCODING 1121
SWIDTH 480 0
DWIDTH 8 0
BBX 8 16 0 -4
BITMAP
00
00
00
00
00
C6
C6
C6
C6
C6
CE
76
03
03
02
00
ENDCHAR
STARTCHAR CySmlChe
ENCODING 1122
SWIDTH 480 0
DWIDTH 8 0
BBX 8 16 0 -4
BITMAP
00
00
00
00
00
C6
C6
C6
7E
06
06
06
00
00
00
00
ENDCHAR
STARTCHAR CySmlSha
ENCODING 1123
SWIDTH 480 0
DWIDTH 8 0
BBX 8 16 0 -4
BITMAP
00
00
00
00
00
D6
D6
D6
D6
D6
D6
FE
00
00
00
00
ENDCHAR
STARTCHAR CySmlShaBul
ENCODING 1124
SWIDTH 480 0
DWIDTH 8 0
BBX 8 16 0 -4
BITMAP
00
00
00
00
00
D6
D6
D6
D6
D6
FE
6A
00
00
00
00
ENDCHAR
STARTCHAR CySmlShcha
ENCODING 1125
SWIDTH 480 0
DWIDTH 8 0
BBX 8 16 0 -4
BITMAP
00
00
00
00
00
D6
D6
D6
D6
D6
D6
FE
03
03
02
00
ENDCHAR
STARTCHAR CySmlShchaBul
ENCODING 1126
SWIDTH 480 0
DWIDTH 8 0
BBX 8 16 0 -4
BITMAP
00
00
00
00
00
D6
D6
D6
D6
D6
FE
6A
03
03
02
00
ENDCHAR
STARTCHAR CySmlHardsign
ENCODING 1127
SWIDTH 480 0
DWIDTH 8 0
BBX 8 16 0 -4
BITMAP
00
00
00
00
00
F0
F0
B0
3C
36
36
3C
00
00
00
00
ENDCHAR
STARTCHAR CySmlYeru
ENCODING 1128
SWIDTH 480 0
DWIDTH 8 0
BBX 8 16 0 -4
BITMAP
00
00
00
00
00
C6
C6
C6
F6
DE
DE
F6
00
00
00
00
ENDCHAR
STARTCHAR CySmlSoftsign
ENCODING 1129
SWIDTH 480 0
DWIDTH 8 0
BBX 8 16 0 -4
BITMAP
00
00
00
00
00
60
60
60
7C
66
66
7C
00
00
00
00
ENDCHAR
STARTCHAR CySmlE
ENCODING 1130
SWIDTH 480 0
DWIDTH 8 0
BBX 8 16 0 -4
BITMAP
00
00
00
00
00
78
CC
06
3E
06
CC
78
00
00
00
00
ENDCHAR
STARTCHAR CySmlYu
ENCODING 1131
SWIDTH 480 0
DWIDTH 8 0
BBX 8 16 0 -4
BITMAP
00
00
00
00
00
CC
D6
D6
F6
D6
D6
CC
00
00
00
00
ENDCHAR
STARTCHAR CySmlYuBul
ENCODING 1132
SWIDTH 480 0
DWIDTH 8 0
BBX 8 16 0 -4
BITMAP
00
00
C0
C0
C0
CC
D6
D6
F6
D6
D6
CC
00
00
00
00
ENDCHAR
STARTCHAR CySmlYa
ENCODING 1133
SWIDTH 480 0
DWIDTH 8 0
BBX 8 16 0 -4
BITMAP
00
00
00
00
00
7E
C6
C6
7E
36
66
C6
00
00
00
00
ENDCHAR
STARTCHAR CySmlDje
ENCODING 1134
SWIDTH 480 0
DWIDTH 8 0
BBX 8 16 0 -4
BITMAP
00
00
60
FC
60
6C
76
66
66
66
66
66
0C
18
30
00
ENDCHAR
STARTCHAR CySmlTshe
ENCODING 1135
SWIDTH 480 0
DWIDTH 8 0
BBX 8 16 0 -4
BITMAP
00
00
60
FC
60
6C
76
66
66
66
66
66
00
00
00
00
ENDCHAR
STARTCHAR CySmlLje
ENCODING 1136
SWIDTH 480 0
DWIDTH 8 0
BBX 8 16 0 -4
BITMAP
00
00
00
00
00
78
58
58
5E
5A
DE
9C
00
00
00
00
ENDCHAR
STARTCHAR CySmlNje
ENCODING 1137
SWIDTH 480 0
DWIDTH 8 0
BBX 8 16 0 -4
BITMAP
00
00
00
00
00
D8
D8
D8
FE
DA
DE
DC
00
00
00
00
ENDCHAR
STARTCHAR CySmlTje
ENCODING 1138
SWIDTH 480 0
DWIDTH 8 0
BBX 8 16 0 -4
BITMAP
00
00
00
00
00
FC
B4
30
3C
36
36
3C
00
00
00
00
ENDCHAR
STARTCHAR CySmlDzhe
ENCODING 1139
SWIDTH 480 0
DWIDTH 8 0
BBX 8 16 0 -4
BITMAP
00
00
00
00
00
C6
C6
C6
C6
C6
C6
FE
18
18
18
00
ENDCHAR
STARTCHAR CySmlIeUkr
ENCODING 1140
SWIDTH 480 0
DWIDTH 8 0
BBX 8 16 0 -4
BITMAP
00
00
00
00
00
3C
66
C0
F8
C0
66
3C
00
00
00
00
ENDCHAR
STARTCHAR CySmlDze
ENCODING 1141
SWIDTH 480 0
DWIDTH 8 0
BBX 8 16 0 -4
BITMAP
00
00
00
00
00
7C
C6
C0
7C
06
C6
7C
00
00
00
00
ENDCHAR
STARTCHAR CySmlIUkr
ENCODING 1142
SWIDTH 480 0
DWIDTH 8 0
BBX 8 16 0 -4
BITMAP
00
00
18
18
00
38
18
18
18
18
18
7E
00
00
00
00
ENDCHAR
STARTCHAR CySmlJe
ENCODING 1143
SWIDTH 480 0
DWIDTH 8 0
BBX 8 16 0 -4
BITMAP
00
00
0C
0C
00
3C
0C
0C
0C
0C
0C
0C
CC
CC
78
00
ENDCHAR
STARTCHAR CySmlYat
ENCODING 1144
SWIDTH 480 0
DWIDTH 8 0
BBX 8 16 0 -4
BITMAP
00
00
68
30
30
FC
B4
30
3C
36
36
3C
00
00
00
00
ENDCHAR
STARTCHAR CySmlFita
ENCODING 1145
SWIDTH 480 0
DWIDTH 8 0
BBX 8 16 0 -4
BITMAP
00
00
00
00
00
7C
C6
C6
FE
C6
C6
7C
00
00
00
00
ENDCHAR
STARTCHAR CySmlIzhitsa
ENCODING 1146
SWIDTH 480 0
DWIDTH 8 0
BBX 8 16 0 -4
BITMAP
00
00
00
00
00
C6
C6
68
68
38
30
10
00
00
00
00
ENDCHAR
STARTCHAR CySmlLittleyus
ENCODING 1147
SWIDTH 480 0
DWIDTH 8 0
BBX 8 16 0 -4
BITMAP
00
00
00
00
00
30
38
78
4C
FC
B6
B6
00
00
00
00
ENDCHAR
STARTCHAR CySmlBigyus
ENCODING 1148
SWIDTH 480 0
DWIDTH 8 0
BBX 8 16 0 -4
BITMAP
00
00
00
00
00
FE
C6
64
38
7C
D6
D6
00
00
00
00
ENDCHAR
STARTCHAR CySmlOmega
ENCODING 1149
SWIDTH 480 0
DWIDTH 8 0
BBX 8 16 0 -4
BITMAP
00
00
00
00
00
C6
D6
D6
D6
D6
6C
6C
00
00
00
00
ENDCHAR
STARTCHAR CySmlOmegaBroad
ENCODING 1150
SWIDTH 480 0
DWIDTH 8 0
BBX 8 16 0 -4
BITMAP
00
00
00
00
00
6C
C6
D6
D6
D6
D6
6C
00
00
00
00
ENDCHAR
STARTCHAR CySmlPsi
ENCODING 1151
SWIDTH 480 0
DWIDTH 8 0
BBX 8 16 0 -4
BITMAP
00
00
10
10
10
92
D6
D6
D6
D6
D6
7C
10
10
10
00
ENDCHAR
STARTCHAR CySmlKsi
ENCODING 1152
SWIDTH 480 0
DWIDTH 8 0
BBX 8 16 0 -4
BITMAP
00
00
6C
38
10
7C
C6
06
1C
06
06
7C
C0
7C
06
00
ENDCHAR
STARTCHAR CySmlZemlya
ENCODING 1153
SWIDTH 480 0
DWIDTH 8 0
BBX 8 16 0 -4
BITMAP
00
00
00
00
00
FE
8E
0C
38
60
E0
FC
06
7C
C0
00
ENDCHAR
STARTCHAR CySmlDzelo
ENCODING 1154
SWIDTH 480 0
DWIDTH 8 0
BBX 8 16 0 -4
BITMAP
00
00
00
00
00
FE
8C
18
7C
30
60
FC
06
7C
C0
00
ENDCHAR
STARTCHAR CySmlKoppa
ENCODING 1155
SWIDTH 480 0
DWIDTH 8 0
BBX 8 16 0 -4
BITMAP
00
00
00
00
00
3C
66
C0
C0
C0
60
3C
0C
0C
0C
00
ENDCHAR
STARTCHAR CySmlYn
ENCODING 1156
SWIDTH 480 0
DWIDTH 8 0
BBX 8 16 0 -4
BITMAP
00
00
00
00
00
10
18
38
3C
7C
56
D6
10
10
10
00
ENDCHAR
STARTCHAR CySmlSchwa
ENCODING 1157
SWIDTH 480 0
DWIDTH 8 0
BBX 8 16 0 -4
BITMAP
00
00
00
00
00
78
CC
06
FE
C6
CC
78
00
00
00
00
ENDCHAR
STARTCHAR CySmlQa
ENCODING 1158
SWIDTH 480 0
DWIDTH 8 0
BBX 8 16 0 -4
BITMAP
00
00
00
00
00
76
CE
C6
C6
C6
CE
76
06
06
06
00
ENDCHAR
STARTCHAR CySmlWe
ENCODING 1159
SWIDTH 480 0
DWIDTH 8 0
BBX 8 16 0 -4
BITMAP
00
00
00
00
00
C2
DA
DA
DA
7C
6C
6C
00
00
00
00
ENDCHAR
STARTCHAR CySmlDzeAbkh
ENCODING 1160
SWIDTH 480 0
DWIDTH 8 0
BBX 8 16 0 -4
BITMAP
00
00
00
00
00
FE
86
0C
18
3C
06
06
C6
C4
78
00
ENDCHAR
STARTCHAR CySmlUStrt
ENCODING 1161
SWIDTH 480 0
DWIDTH 8 0
BBX 8 16 0 -4
BITMAP
00
00
00
00
00
C3
62
64
34
38
18
18
18
18
18
00
ENDCHAR
STARTCHAR CySmlShha
ENCODING 1162
SWIDTH 480 0
DWIDTH 8 0
BBX 8 16 0 -4
BITMAP
00
00
C0
C0
C0
DC
E6
C6
C6
C6
C6
C6
00
00
00
00
ENDCHAR
STARTCHAR CySmlDeKomi
ENCODING 1163
SWIDTH 480 0
DWIDTH 8 0
BBX 8 16 0 -4
BITMAP
00
00
06
06
06
76
CE
C6
C6
C6
CE
76
00
00
00
00
ENDCHAR
STARTCHAR CySmlSemisoftsign
ENCODING 1164
SWIDTH 480 0
DWIDTH 8 0
BBX 8 16 0 -4
BITMAP
00
00
00
00
00
60
F8
60
7C
66
66
7C
00
00
00
00
ENDCHAR
STARTCHAR CySmlPalochka
ENCODING 1165
SWIDTH 480 0
DWIDTH 8 0
BBX 8 16 0 -4
BITMAP
00
00
3C
18
18
18
18
18
18
18
18
3C
00
00
00
00
ENDCHAR
STARTCHAR CyCapAIe
ENCODING 1166
SWIDTH 480 0
DWIDTH 8 0
BBX 8 16 0 -4
BITMAP
00
00
1E
3A
38
38
5E
58
78
D8
9A
9E
00
00
00
00
ENDCHAR
STARTCHAR CyCapEnGhe
ENCODING 1167
SWIDTH 480 0
DWIDTH 8 0
BBX 8 16 0 -4
BITMAP
00
00
CF
CD
CC
CC
FC
CC
CC
CC
CC
CC
00
00
00
00
ENDCHAR
STARTCHAR CyCapTeTse
ENCODING 1168
SWIDTH 480 0
DWIDTH 8 0
BBX 8 16 0 -4
BITMAP
00
00
F6
F6
66
66
66
66
66
66
66
7E
03
03
02
00
ENDCHAR
STARTCHAR CySmlAIe
ENCODING 1169
SWIDTH 480 0
DWIDTH 8 0
BBX 8 16 0 -4
BITMAP
00
00
00
00
00
6E
DA
1A
7E
D8
DA
EE
00
00
00
00
ENDCHAR
STARTCHAR CySmlEnGhe
ENCODING 1170
SWIDTH 480 0
DWIDTH 8 0
BBX 8 16 0 -4
BITMAP
00
00
00
00
00
CF
CD
CC
FC
CC
CC
CC
00
00
00
00
ENDCHAR
STARTCHAR CySmlTeTse
ENCODING 1171
SWIDTH 480 0
DWIDTH 8 0
BBX 8 16 0 -4
BITMAP
00
00
00
00
00
F6
F6
66
66
66
66
7E
03
03
02
00
ENDCHAR
STARTCHAR CyCapIA
ENCODING 1172
SWIDTH 480 0
DWIDTH 8 0
BBX 8 16 0 -4
BITMAP
00
00
CC
CC
CC
DE
F6
D6
DE
D6
D6
D6
00
00
00
00
ENDCHAR
STARTCHAR CyCapIE
ENCODING 1173
SWIDTH 480 0
DWIDTH 8 0
BBX 8 16 0 -4
BITMAP
00
00
CE
DA
D8
D8
FE
D8
D8
D8
DA
CE
00
00
00
00
ENDCHAR
STARTCHAR CyCapILittleyus
ENCODING 1174
SWIDTH 480 0
DWIDTH 8 0
BBX 8 16 0 -4
BITMAP
00
00
88
88
9C
9C
F4
94
BE
BE
AA
AA
00
00
00
00
ENDCHAR
STARTCHAR CyCapIBigyus
ENCODING 1175
SWIDTH 480 0
DWIDTH 8 0
BBX 8 16 0 -4
BITMAP
00
00
BE
BE
B2
B6
9C
F8
9C
BE
AA
AA
00
00
00
00
ENDCHAR
STARTCHAR CyCapOu
ENCODING 1176
SWIDTH 480 0
DWIDTH 8 0
BBX 8 16 0 -4
BITMAP
00
00
40
E0
E0
BA
BA
BA
AE
EE
EE
44
04
0C
08
00
ENDCHAR
STARTCHAR CyCapOuGamma
ENCODING 1177
SWIDTH 480 0
DWIDTH 8 0
BBX 8 16 0 -4
BITMAP
00
00
C2
E6
74
3C
18
08
7C
D6
C6
7C
00
00
00
00
ENDCHAR
STARTCHAR CySmlIA
ENCODING 1178
SWIDTH 480 0
DWIDTH 8 0
BBX 8 16 0 -4
BITMAP
00
00
00
00
00
DC
D6
C6
DE
F6
D6
DE
00
00
00
00
ENDCHAR
STARTCHAR CySmlIE
ENCODING 1179
SWIDTH 480 0
DWIDTH 8 0
BBX 8 16 0 -4
BITMAP
00
00
00
00
00
CE
DA
D8
FE
D8
DA
CE
00
00
00
00
ENDCHAR
STARTCHAR CySmlILittleyus
ENCODING 1180
SWIDTH 480 0
DWIDTH 8 0
BBX 8 16 0 -4
BITMAP
00
00
00
00
00
88
9C
94
FC
BE
AA
AA
00
00
00
00
ENDCHAR
STARTCHAR CySmlIBigyus
ENCODING 1181
SWIDTH 480 0
DWIDTH 8 0
BBX 8 16 0 -4
BITMAP
00
00
00
00
00
BE
B6
9C
FC
BE
AA
AA
00
00
00
00
ENDCHAR
STARTCHAR CySmlOu
ENCODING 1182
SWIDTH 480 0
DWIDTH 8 0
BBX 8 16 0 -4
BITMAP
00
00
00
00
00
5A
FA
BA
AE
AE
EE
44
04
0C
08
00
ENDCHAR
STARTCHAR CySmlOuGamma
ENCODING 1183
SWIDTH 480 0
DWIDTH 8 0
BBX 8 16 0 -4
BITMAP
00
00
1C
1E
C6
C4
68
38
4C
C6
C6
7C
00
00
00
00
ENDCHAR
STARTCHAR CyCapOmegaRound
ENCODING 1184
SWIDTH 480 0
DWIDTH 8 0
BBX 8 16 0 -4
BITMAP
00
10
7C
D6
C6
C6
C6
C6
C6
C6
D6
7C
10
00
00
00
ENDCHAR
STARTCHAR CySmlOmegaRound
ENCODING 1185
SWIDTH 480 0
DWIDTH 8 0
BBX 8 16 0 -4
BITMAP
00
00
00
00
10
7C
D6
C6
C6
C6
D6
7C
10
00
00
00
ENDCHAR
STARTCHAR CyCapZeRev
ENCODING 1186
SWIDTH 480 0
DWIDTH 8 0
BBX 8 16 0 -4
BITMAP
00
00
3C
66
C0
60
38
60
C0
C0
66
3C
00
00
00
00
ENDCHAR
STARTCHAR CySmlZeRev
ENCODING 1187
SWIDTH 480 0
DWIDTH 8 0
BBX 8 16 0 -4
BITMAP
00
00
00
00
00
7C
C6
C0
70
C0
C6
7C
00
00
00
00
ENDCHAR
STARTCHAR CyCapKaLhook
ENCODING 1188
SWIDTH 480 0
DWIDTH 8 0
BBX 8 16 0 -4
BITMAP
00
00
C6
C4
CC
C8
D8
F8
CC
C6
C6
C6
06
34
38
00
ENDCHAR
STARTCHAR CyCapElLhook
ENCODING 1189
SWIDTH 480 0
DWIDTH 8 0
BBX 8 16 0 -4
BITMAP
00
00
3E
26
26
26
26
26
26
26
E6
C6
06
34
38
00
ENDCHAR
STARTCHAR CyCapEnLhook
ENCODING 1190
SWIDTH 480 0
DWIDTH 8 0
BBX 8 16 0 -4
BITMAP
00
00
C6
C6
C6
C6
FE
C6
C6
C6
C6
C6
06
34
38
00
ENDCHAR
STARTCHAR CyCapEnLhookL
ENCODING 1191
SWIDTH 480 0
DWIDTH 8 0
BBX 8 16 0 -4
BITMAP
00
00
66
66
66
66
7E
66
66
66
66
66
60
60
C0
00
ENDCHAR
STARTCHAR CyCapHaLhook
ENCODING 1192
SWIDTH 480 0
DWIDTH 8 0
BBX 8 16 0 -4
BITMAP
00
00
C6
C6
64
68
38
38
2C
4C
C6
C6
06
34
38
00
ENDCHAR
STARTCHAR CySmlKaLhook
ENCODING 1193
SWIDTH 480 0
DWIDTH 8 0
BBX 8 16 0 -4
BITMAP
00
00
00
00
00
C6
C4
D8
F8
CC
C6
C6
06
34
38
00
ENDCHAR
STARTCHAR CySmlElLhook
ENCODING 1194
SWIDTH 480 0
DWIDTH 8 0
BBX 8 16 0 -4
BITMAP
00
00
00
00
00
3E
26
26
26
26
E6
C6
06
34
38
00
ENDCHAR
STARTCHAR CySmlEnLhook
ENCODING 1195
SWIDTH 480 0
DWIDTH 8 0
BBX 8 16 0 -4
BITMAP
00
00
00
00
00
C6
C6
C6
FE
C6
C6
C6
06
34
38
00
ENDCHAR
STARTCHAR CySmlEnLhookL
ENCODING 1196
SWIDTH 480 0
DWIDTH 8 0
BBX 8 16 0 -4
BITMAP
00
00
00
00
00
66
66
66
7E
66
66
66
60
60
C0
00
ENDCHAR
STARTCHAR CySmlHaLhook
ENCODING 1197
SWIDTH 480 0
DWIDTH 8 0
BBX 8 16 0 -4
BITMAP
00
00
00
00
00
C6
E6
68
38
2C
CE
C6
06
34
38
00
ENDCHAR
STARTCHAR CyCapGheStrokeLhook
ENCODING 1198
SWIDTH 480 0
DWIDTH 8 0
BBX 8 16 0 -4
BITMAP
00
00
7E
62
62
60
F8
60
60
60
60
78
04
2C
38
00
ENDCHAR
STARTCHAR CySmlGheStrokeLhook
ENCODING 1199
SWIDTH 480 0
DWIDTH 8 0
BBX 8 16 0 -4
BITMAP
00
00
00
00
00
7E
62
60
F8
60
60
78
04
2C
38
00
ENDCHAR
STARTCHAR CyCapGheMhook
ENCODING 1200
SWIDTH 480 0
DWIDTH 8 0
BBX 8 16 0 -4
BITMAP
00
00
FE
C2
C2
C0
F8
C4
C6
C6
C6
C6
06
64
78
00
ENDCHAR
STARTCHAR CyCapPeMhook
ENCODING 1201
SWIDTH 480 0
DWIDTH 8 0
BBX 8 16 0 -4
BITMAP
00
00
F8
D8
D8
D8
DC
DE
DA
DA
DA
DA
02
0E
0C
00
ENDCHAR
STARTCHAR CySmlGheMhook
ENCODING 1202
SWIDTH 480 0
DWIDTH 8 0
BBX 8 16 0 -4
BITMAP
00
00
00
00
00
FE
C2
C0
F8
C4
C6
C6
06
64
78
00
ENDCHAR
STARTCHAR CySmlPeMhook
ENCODING 1203
SWIDTH 480 0
DWIDTH 8 0
BBX 8 16 0 -4
BITMAP
00
00
00
00
00
F8
D8
D8
DC
DE
DA
DA
02
0E
0C
00
ENDCHAR
STARTCHAR CyCapCheAbkh
ENCODING 1204
SWIDTH 480 0
DWIDTH 8 0
BBX 8 16 0 -4
BITMAP
00
00
4E
D6
B6
B6
7E
30
30
30
1A
0E
00
00
00
00
ENDCHAR
STARTCHAR CyCapHaAbkh
ENCODING 1205
SWIDTH 480 0
DWIDTH 8 0
BBX 8 16 0 -4
BITMAP
00
00
70
CC
DE
DA
DA
DA
DA
DA
CC
76
00
00
00
00
ENDCHAR
STARTCHAR CySmlCheAbkh
ENCODING 1206
SWIDTH 480 0
DWIDTH 8 0
BBX 8 16 0 -4
BITMAP
00
00
00
00
00
4E
D6
B6
FE
30
1A
0E
00
00
00
00
ENDCHAR
STARTCHAR CySmlHaAbkh
ENCODING 1207
SWIDTH 480 0
DWIDTH 8 0
BBX 8 16 0 -4
BITMAP
00
00
00
00
00
70
CC
DE
DA
DA
CC
76
00
00
00
00
ENDCHAR
STARTCHAR CyCapZjeKomi
ENCODING 1208
SWIDTH 480 0
DWIDTH 8 0
BBX 8 16 0 -4
BITMAP
00
00
70
D8
18
18
72
1A
1A
1A
1A
0C
00
00
00
00
ENDCHAR
STARTCHAR CyCapLjeKomi
ENCODING 1209
SWIDTH 480 0
DWIDTH 8 0
BBX 8 16 0 -4
BITMAP
00
00
78
58
58
58
5A
5A
5A
5A
DA
8C
00
00
00
00
ENDCHAR
STARTCHAR CyCapNjeKomi
ENCODING 1210
SWIDTH 480 0
DWIDTH 8 0
BBX 8 16 0 -4
BITMAP
00
00
D8
D8
D8
D8
FA
DA
DA
DA
DA
CC
00
00
00
00
ENDCHAR
STARTCHAR CyCapSjeKomi
ENCODING 1211
SWIDTH 480 0
DWIDTH 8 0
BBX 8 16 0 -4
BITMAP
00
00
3C
66
C0
C0
C6
C6
C6
C6
66
3C
00
00
00
00
ENDCHAR
STARTCHAR CyCapTjeKomi
ENCODING 1212
SWIDTH 480 0
DWIDTH 8 0
BBX 8 16 0 -4
BITMAP
00
00
FF
DB
18
18
1A
1A
1A
1A
1A
0C
00
00
00
00
ENDCHAR
STARTCHAR CyCapDjeKomi
ENCODING 1213
SWIDTH 480 0
DWIDTH 8 0
BBX 8 16 0 -4
BITMAP
00
00
18
18
18
18
7A
DA
DA
DA
DA
7C
00
00
00
00
ENDCHAR
STARTCHAR CySmlZjeKomi
ENCODING 1214
SWIDTH 480 0
DWIDTH 8 0
BBX 8 16 0 -4
BITMAP
00
00
00
00
00
70
D8
18
32
1A
1A
0C
00
00
00
00
ENDCHAR
STARTCHAR CySmlLjeKomi
ENCODING 1215
SWIDTH 480 0
DWIDTH 8 0
BBX 8 16 0 -4
BITMAP
00
00
00
00
00
78
58
58
5A
5A
DA
8C
00
00
00
00
ENDCHAR
STARTCHAR CySmlNjeKomi
ENCODING 1216
SWIDTH 480 0
DWIDTH 8 0
BBX 8 16 0 -4
BITMAP
00
00
00
00
00
D8
D8
D8
FA
DA
DA
CC
00
00
00
00
ENDCHAR
STARTCHAR CySmlSjeKomi
ENCODING 1217
SWIDTH 480 0
DWIDTH 8 0
BBX 8 16 0 -4
BITMAP
00
00
00
00
00
3C
66
C0
C6
C6
66
3C
00
00
00
00
ENDCHAR
STARTCHAR CySmlTjeKomi
ENCODING 1218
SWIDTH 480 0
DWIDTH 8 0
BBX 8 16 0 -4
BITMAP
00
00
00
00
00
FF
99
18
1A
1A
1A
0C
00
00
00
00
ENDCHAR
STARTCHAR CySmlDjeKomi
ENCODING 1219
SWIDTH 480 0
DWIDTH 8 0
BBX 8 16 0 -4
BITMAP
00
00
18
18
18
78
D8
D8
DA
DA
DA
6C
00
00
00
00
ENDCHAR
STARTCHAR CyCapGheStroke
ENCODING 1220
SWIDTH 480 0
DWIDTH 8 0
BBX 8 16 0 -4
BITMAP
00
00
7E
62
62
60
F8
60
60
60
60
60
00
00
00
00
ENDCHAR
STARTCHAR CyCapKaStroke
ENCODING 1221
SWIDTH 480 0
DWIDTH 8 0
BBX 8 16 0 -4
BITMAP
00
00
C6
F4
FC
C8
D8
F8
CC
CC
C6
C6
00
00
00
00
ENDCHAR
STARTCHAR CyCapKaStrokeAl
ENCODING 1222
SWIDTH 480 0
DWIDTH 8 0
BBX 8 16 0 -4
BITMAP
00
00
D6
DC
CE
CA
D8
F8
CC
CC
C6
C6
00
00
00
00
ENDCHAR
STARTCHAR CyCapOStrokeH
ENCODING 1223
SWIDTH 480 0
DWIDTH 8 0
BBX 8 16 0 -4
BITMAP
00
00
7C
C6
C6
C6
FE
C6
C6
C6
C6
7C
00
00
00
00
ENDCHAR
STARTCHAR CyCapHaStroke
ENCODING 1224
SWIDTH 480 0
DWIDTH 8 0
BBX 8 16 0 -4
BITMAP
00
00
C6
C6
64
68
FE
38
2C
4C
C6
C6
00
00
00
00
ENDCHAR
STARTCHAR CyCapUStrtStroke
ENCODING 1225
SWIDTH 480 0
DWIDTH 8 0
BBX 8 16 0 -4
BITMAP
00
00
C3
62
64
34
38
18
18
7E
18
18
00
00
00
00
ENDCHAR
STARTCHAR CySmlGheStroke
ENCODING 1226
SWIDTH 480 0
DWIDTH 8 0
BBX 8 16 0 -4
BITMAP
00
00
00
00
00
7E
62
60
F8
60
60
60
00
00
00
00
ENDCHAR
STARTCHAR CySmlKaStroke
ENCODING 1227
SWIDTH 480 0
DWIDTH 8 0
BBX 8 16 0 -4
BITMAP
00
00
C0
F8
C0
C6
CC
D0
F8
CC
C6
C6
00
00
00
00
ENDCHAR
STARTCHAR CySmlKaStrokeAl
ENCODING 1228
SWIDTH 480 0
DWIDTH 8 0
BBX 8 16 0 -4
BITMAP
00
00
00
00
00
DE
CC
DE
F8
CC
C6
C6
00
00
00
00
ENDCHAR
STARTCHAR CySmlOStrokeH
ENCODING 1229
SWIDTH 480 0
DWIDTH 8 0
BBX 8 16 0 -4
BITMAP
00
00
00
00
00
7C
C6
C6
FE
C6
C6
7C
00
00
00
00
ENDCHAR
STARTCHAR CySmlHaStroke
ENCODING 1230
SWIDTH 480 0
DWIDTH 8 0
BBX 8 16 0 -4
BITMAP
00
00
00
00
00
C6
E6
28
FE
28
CE
C6
00
00
00
00
ENDCHAR
STARTCHAR CySmlUStrtStroke
ENCODING 1231
SWIDTH 480 0
DWIDTH 8 0
BBX 8 16 0 -4
BITMAP
00
00
00
00
00
C3
62
64
34
38
18
18
7E
18
18
00
ENDCHAR
STARTCHAR CyCapKaStrokeV
ENCODING 1232
SWIDTH 480 0
DWIDTH 8 0
BBX 8 16 0 -4
BITMAP
00
00
C2
C6
D4
DC
F8
DC
D4
C6
C6
C6
00
00
00
00
ENDCHAR
STARTCHAR CyCapCheStrokeV
ENCODING 1233
SWIDTH 480 0
DWIDTH 8 0
BBX 8 16 0 -4
BITMAP
00
00
C6
C6
C6
D6
D6
7E
16
16
06
06
00
00
00
00
ENDCHAR
STARTCHAR CySmlKaStrokeV
ENCODING 1234
SWIDTH 480 0
DWIDTH 8 0
BBX 8 16 0 -4
BITMAP
00
00
00
00
00
C2
D6
DC
F8
DC
D6
C6
00
00
00
00
ENDCHAR
STARTCHAR CySmlCheStrokeV
ENCODING 1235
SWIDTH 480 0
DWIDTH 8 0
BBX 8 16 0 -4
BITMAP
00
00
00
00
00
C6
D6
D6
7E
16
16
06
00
00
00
00
ENDCHAR
STARTCHAR CyCapErTick
ENCODING 1236
SWIDTH 480 0
DWIDTH 8 0
BBX 8 16 0 -4
BITMAP
00
00
FC
C6
C6
D6
DE
FC
C6
C0
C0
C0
00
00
00
00
ENDCHAR
STARTCHAR CySmlErTick
ENCODING 1237
SWIDTH 480 0
DWIDTH 8 0
BBX 8 16 0 -4
BITMAP
00
00
00
00
00
DC
E6
C6
C6
D6
DE
FC
C6
C0
C0
00
ENDCHAR
STARTCHAR CyCapGheUpturn
ENCODING 1238
SWIDTH 480 0
DWIDTH 8 0
BBX 8 16 0 -4
BITMAP
06
06
7E
60
60
60
60
60
60
60
60
60
00
00
00
00
ENDCHAR
STARTCHAR CyCapKaBshk
ENCODING 1239
SWIDTH 480 0
DWIDTH 8 0
BBX 8 16 0 -4
BITMAP
00
00
F2
F2
B6
34
38
3C
34
36
36
36
00
00
00
00
ENDCHAR
STARTCHAR CySmlGheUpturn
ENCODING 1240
SWIDTH 480 0
DWIDTH 8 0
BBX 8 16 0 -4
BITMAP
00
00
00
06
06
7E
60
60
60
60
60
60
00
00
00
00
ENDCHAR
STARTCHAR CySmlKaBshk
ENCODING 1241
SWIDTH 480 0
DWIDTH 8 0
BBX 8 16 0 -4
BITMAP
00
00
00
00
00
F2
F6
B4
38
3C
36
36
00
00
00
00
ENDCHAR
STARTCHAR CyCapADrss
ENCODING 1242
SWIDTH 480 0
DWIDTH 8 0
BBX 8 16 0 -4
BITMAP
6C
6C
00
30
38
38
58
4C
7C
CC
86
86
00
00
00
00
ENDCHAR
STARTCHAR CyCapIeDrss
ENCODING 1243
SWIDTH 480 0
DWIDTH 8 0
BBX 8 16 0 -4
BITMAP
6C
6C
00
FE
C2
C2
C8
F8
C8
C2
C2
FE
00
00
00
00
ENDCHAR
STARTCHAR CyCapZheDrss
ENCODING 1244
SWIDTH 480 0
DWIDTH 8 0
BBX 8 16 0 -4
BITMAP
6C
6C
00
D6
D6
54
38
7C
D6
D6
D6
D6
00
00
00
00
ENDCHAR
STARTCHAR CyCapZeDrss
ENCODING 1245
SWIDTH 480 0
DWIDTH 8 0
BBX 8 16 0 -4
BITMAP
6C
6C
00
78
CC
06
0C
38
0C
06
CC
78
00
00
00
00
ENDCHAR
STARTCHAR CyCapIDrss
ENCODING 1246
SWIDTH 480 0
DWIDTH 8 0
BBX 8 16 0 -4
BITMAP
6C
6C
00
C6
C6
CE
CE
D6
E6
E6
C6
C6
00
00
00
00
ENDCHAR
STARTCHAR CyCapODrss
ENCODING 1247
SWIDTH 480 0
DWIDTH 8 0
BBX 8 16 0 -4
BITMAP
6C
6C
00
7C
C6
C6
C6
C6
C6
C6
C6
7C
00
00
00
00
ENDCHAR
STARTCHAR CyCapUDrss
ENCODING 1248
SWIDTH 480 0
DWIDTH 8 0
BBX 8 16 0 -4
BITMAP
6C
6C
00
C2
66
64
34
1C
18
08
68
70
00
00
00
00
ENDCHAR
STARTCHAR CyCapCheDrss
ENCODING 1249
SWIDTH 480 0
DWIDTH 8 0
BBX 8 16 0 -4
BITMAP
6C
6C
00
C6
C6
C6
C6
7E
06
06
06
06
00
00
00
00
ENDCHAR
STARTCHAR CyCapYeruDrss
ENCODING 1250
SWIDTH 480 0
DWIDTH 8 0
BBX 8 16 0 -4
BITMAP
6C
6C
00
C6
C6
C6
E6
D6
DE
DE
F6
E6
00
00
00
00
ENDCHAR
STARTCHAR CyCapEDrss
ENCODING 1251
SWIDTH 480 0
DWIDTH 8 0
BBX 8 16 0 -4
BITMAP
6C
6C
00
78
CC
06
06
7E
06
06
CC
78
00
00
00
00
ENDCHAR
STARTCHAR CyCapIUkrDrss
ENCODING 1252
SWIDTH 480 0
DWIDTH 8 0
BBX 8 16 0 -4
BITMAP
36
36
00
7E
18
18
18
18
18
18
18
7E
00
00
00
00
ENDCHAR
STARTCHAR CyCapSchwaDrss
ENCODING 1253
SWIDTH 480 0
DWIDTH 8 0
BBX 8 16 0 -4
BITMAP
6C
6C
00
78
6C
46
06
FE
C6
C6
6C
38
00
00
00
00
ENDCHAR
STARTCHAR CySmlADrss
ENCODING 1254
SWIDTH 480 0
DWIDTH 8 0
BBX 8 16 0 -4
BITMAP
00
00
6C
6C
00
7C
66
06
7E
C6
CE
76
00
00
00
00
ENDCHAR
STARTCHAR CySmlIeDrss
ENCODING 1255
SWIDTH 480 0
DWIDTH 8 0
BBX 8 16 0 -4
BITMAP
00
00
6C
6C
00
3C
66
C6
FE
C0
66
3C
00
00
00
00
ENDCHAR
STARTCHAR CySmlZheDrss
ENCODING 1256
SWIDTH 480 0
DWIDTH 8 0
BBX 8 16 0 -4
BITMAP
00
00
6C
6C
00
D6
D6
54
38
D6
D6
D6
00
00
00
00
ENDCHAR
STARTCHAR CySmlZeDrss
ENCODING 1257
SWIDTH 480 0
DWIDTH 8 0
BBX 8 16 0 -4
BITMAP
00
00
6C
6C
00
7C
C6
06
1C
06
C6
7C
00
00
00
00
ENDCHAR
STARTCHAR CySmlIDrss
ENCODING 1258
SWIDTH 480 0
DWIDTH 8 0
BBX 8 16 0 -4
BITMAP
00
00
6C
6C
00
C6
CE
CE
D6
E6
E6
C6
00
00
00
00
ENDCHAR
STARTCHAR CySmlODrss
ENCODING 1259
SWIDTH 480 0
DWIDTH 8 0
BBX 8 16 0 -4
BITMAP
00
00
6C
6C
00
7C
C6
C6
C6
C6
C6
7C
00
00
00
00
ENDCHAR
STARTCHAR CySmlUDrss
ENCODING 1260
SWIDTH 480 0
DWIDTH 8 0
BBX 8 16 0 -4
BITMAP
00
00
6C
6C
00
C2
C6
64
64
3C
38
18
10
D0
E0
00
ENDCHAR
STARTCHAR CySmlCheDrss
ENCODING 1261
SWIDTH 480 0
DWIDTH 8 0
BBX 8 16 0 -4
BITMAP
00
00
6C
6C
00
C6
C6
C6
7E
06
06
06
00
00
00
00
ENDCHAR
STARTCHAR CySmlYeruDrss
ENCODING 1262
SWIDTH 480 0
DWIDTH 8 0
BBX 8 16 0 -4
BITMAP
00
00
6C
6C
00
C6
C6
C6
F6
DE
DE
F6
00
00
00
00
ENDCHAR
STARTCHAR CySmlEDrss
ENCODING 1263
SWIDTH 480 0
DWIDTH 8 0
BBX 8 16 0 -4
BITMAP
00
00
6C
6C
00
78
CC
06
3E
06
CC
78
00
00
00
00
ENDCHAR
STARTCHAR CySmlIUkrDrss
ENCODING 1264
SWIDTH 480 0
DWIDTH 8 0
BBX 8 16 0 -4
BITMAP
00
00
6C
6C
00
38
18
18
18
18
18
7E
00
00
00
00
ENDCHAR
STARTCHAR CySmlSchwaDrss
ENCODING 1265
SWIDTH 480 0
DWIDTH 8 0
BBX 8 16 0 -4
BITMAP
00
00
6C
6C
00
78
CC
06
FE
C6
CC
78
00
00
00
00
ENDCHAR
STARTCHAR CyCapOStrokeHDrss
ENCODING 1266
SWIDTH 480 0
DWIDTH 8 0
BBX 8 16 0 -4
BITMAP
6C
6C
00
7C
C6
C6
C6
FE
C6
C6
C6
7C
00
00
00
00
ENDCHAR
STARTCHAR CySmlOStrokeHDrss
ENCODING 1267
SWIDTH 480 0
DWIDTH 8 0
BBX 8 16 0 -4
BITMAP
00
00
6C
6C
00
7C
C6
C6
FE
C6
C6
7C
00
00
00
00
ENDCHAR
STARTCHAR CyCapIMacron
ENCODING 1268
SWIDTH 480 0
DWIDTH 8 0
BBX 8 16 0 -4
BITMAP
7C
7C
00
C6
C6
CE
CE
D6
E6
E6
C6
C6
00
00
00
00
ENDCHAR
STARTCHAR CyCapUMacron
ENCODING 1269
SWIDTH 480 0
DWIDTH 8 0
BBX 8 16 0 -4
BITMAP
7C
7C
00
C2
66
64
34
1C
18
08
68
70
00
00
00
00
ENDCHAR
STARTCHAR CySmlIMacron
ENCODING 1270
SWIDTH 480 0
DWIDTH 8 0
BBX 8 16 0 -4
BITMAP
00
00
7C
7C
00
C6
CE
CE
D6
E6
E6
C6
00
00
00
00
ENDCHAR
STARTCHAR CySmlUMacron
ENCODING 1271
SWIDTH 480 0
DWIDTH 8 0
BBX 8 16 0 -4
BITMAP
00
00
7C
7C
00
C2
C6
64
64
3C
38
18
10
D0
E0
00
ENDCHAR
STARTCHAR CyCapGheAcute
ENCODING 1272
SWIDTH 480 0
DWIDTH 8 0
BBX 8 16 0 -4
BITMAP
0C
18
10
7E
62
62
60
60
60
60
60
60
00
00
00
00
ENDCHAR
STARTCHAR CyCapKaAcute
ENCODING 1273
SWIDTH 480 0
DWIDTH 8 0
BBX 8 16 0 -4
BITMAP
0C
18
10
C6
CC
C8
D8
F8
CC
CC
C6
C6
00
00
00
00
ENDCHAR
STARTCHAR CySmlGheAcute
ENCODING 1274
SWIDTH 480 0
DWIDTH 8 0
BBX 8 16 0 -4
BITMAP
00
0C
18
10
00
7E
62
62
60
60
60
60
00
00
00
00
ENDCHAR
STARTCHAR CySmlGheAcuteMcd
ENCODING 1275
SWIDTH 480 0
DWIDTH 8 0
BBX 8 16 0 -4
BITMAP
00
0C
18
10
00
7E
62
62
60
60
60
60
00
00
00
00
ENDCHAR
STARTCHAR CySmlKaAcute
ENCODING 1276
SWIDTH 480 0
DWIDTH 8 0
BBX 8 16 0 -4
BITMAP
00
0C
18
10
00
C6
C4
D8
F8
CC
C6
C6
00
00
00
00
ENDCHAR
STARTCHAR CyCapUAcute2
ENCODING 1277
SWIDTH 480 0
DWIDTH 8 0
BBX 8 16 0 -4
BITMAP
1B
36
24
C2
66
64
34
1C
18
08
68
70
00
00
00
00
ENDCHAR
STARTCHAR CySmlUAcute2
ENCODING 1278
SWIDTH 480 0
DWIDTH 8 0
BBX 8 16 0 -4
BITMAP
00
36
6C
48
00
C2
C6
64
64
3C
38
18
10
D0
E0
00
ENDCHAR
STARTCHAR CyCapIeGrave
ENCODING 1279
SWIDTH 480 0
DWIDTH 8 0
BBX 8 16 0 -4
BITMAP
60
30
10
FE
C2
C2
C8
F8
C8
C2
C2
FE
00
00
00
00
ENDCHAR
STARTCHAR CyCapIGrave
ENCODING 1280
SWIDTH 480 0
DWIDTH 8 0
BBX 8 16 0 -4
BITMAP
60
30
10
C6
C6
CE
CE
D6
E6
E6
C6
C6
00
00
00
00
ENDCHAR
STARTCHAR CySmlIeGrave
ENCODING 1281
SWIDTH 480 0
DWIDTH 8 0
BBX 8 16 0 -4
BITMAP
00
30
18
08
00
3C
66
C6
FE
C0
66
3C
00
00
00
00
ENDCHAR
STARTCHAR CySmlIGrave
ENCODING 1282
SWIDTH 480 0
DWIDTH 8 0
BBX 8 16 0 -4
BITMAP
00
30
18
08
00
C6
CE
CE
D6
E6
E6
C6
00
00
00
00
ENDCHAR
STARTCHAR CySmlIGraveBul
ENCODING 1283
SWIDTH 480 0
DWIDTH 8 0
BBX 8 16 0 -4
BITMAP
00
60
30
10
00
C6
C6
C6
C6
C6
CE
76
00
00
00
00
ENDCHAR
STARTCHAR CyCapIzhitsaGrave2
ENCODING 1284
SWIDTH 480 0
DWIDTH 8 0
BBX 8 16 0 -4
BITMAP
D8
6C
24
C3
C6
64
64
68
38
38
30
10
00
00
00
00
ENDCHAR
STARTCHAR CySmlIzhitsaGrave2
ENCODING 1285
SWIDTH 480 0
DWIDTH 8 0
BBX 8 16 0 -4
BITMAP
00
D8
6C
24
00
C6
C6
68
68
38
30
10
00
00
00
00
ENDCHAR
STARTCHAR CyCapABreve
ENCODING 1286
SWIDTH 480 0
DWIDTH 8 0
BBX 8 16 0 -4
BITMAP
6C
7C
00
30
38
38
58
4C
7C
CC
86
86
00
00
00
00
ENDCHAR
STARTCHAR CyCapIeBreve
ENCODING 1287
SWIDTH 480 0
DWIDTH 8 0
BBX 8 16 0 -4
BITMAP
6C
7C
00
FE
C2
C2
C8
F8
C8
C2
C2
FE
00
00
00
00
ENDCHAR
STARTCHAR CyCapZheBreve
ENCODING 1288
SWIDTH 480 0
DWIDTH 8 0
BBX 8 16 0 -4
BITMAP
6C
7C
00
D6
D6
54
38
7C
D6
D6
D6
D6
00
00
00
00
ENDCHAR
STARTCHAR CyCapIBreve
ENCODING 1289
SWIDTH 480 0
DWIDTH 8 0
BBX 8 16 0 -4
BITMAP
6C
7C
00
C6
C6
CE
CE
D6
E6
E6
C6
C6
00
00
00
00
ENDCHAR
STARTCHAR CyCapUBreve
ENCODING 1290
SWIDTH 480 0
DWIDTH 8 0
BBX 8 16 0 -4
BITMAP
6C
7C
00
C2
66
64
34
1C
18
08
68
70
00
00
00
00
ENDCHAR
STARTCHAR CySmlABreve
ENCODING 1291
SWIDTH 480 0
DWIDTH 8 0
BBX 8 16 0 -4
BITMAP
00
00
6C
7C
00
7C
66
06
7E
C6
CE
76
00
00
00
00
ENDCHAR
STARTCHAR CySmlIeBreve
ENCODING 1292
SWIDTH 480 0
DWIDTH 8 0
BBX 8 16 0 -4
BITMAP
00
00
6C
7C
00
3C
66
C6
FE
C0
66
3C
00
00
00
00
ENDCHAR
STARTCHAR CySmlZheBreve
ENCODING 1293
SWIDTH 480 0
DWIDTH 8 0
BBX 8 16 0 -4
BITMAP
00
00
6C
7C
00
D6
D6
54
38
D6
D6
D6
00
00
00
00
ENDCHAR
STARTCHAR CySmlIBreve
ENCODING 1294
SWIDTH 480 0
DWIDTH 8 0
BBX 8 16 0 -4
BITMAP
00
00
6C
7C
00
C6
CE
CE
D6
E6
E6
C6
00
00
00
00
ENDCHAR
STARTCHAR CySmlIBreveBul
ENCODING 1295
SWIDTH 480 0
DWIDTH 8 0
BBX 8 16 0 -4
BITMAP
00
00
6C
7C
00
C6
C6
C6
C6
C6
CE
76
00
00
00
00
ENDCHAR
STARTCHAR CySmlUBreve
ENCODING 1296
SWIDTH 480 0
DWIDTH 8 0
BBX 8 16 0 -4
BITMAP
00
00
6C
7C
00
C2
C6
64
64
3C
38
18
10
D0
E0
00
ENDCHAR
STARTCHAR CyCapOmegaT
ENCODING 1297
SWIDTH 480 0
DWIDTH 8 0
BBX 8 16 0 -4
BITMAP
FE
D6
00
C6
D6
D6
D6
D6
D6
D6
6C
6C
00
00
00
00
ENDCHAR
STARTCHAR CySmlOmegaT
ENCODING 1298
SWIDTH 480 0
DWIDTH 8 0
BBX 8 16 0 -4
BITMAP
00
FE
D6
00
00
C6
D6
D6
D6
D6
6C
6C
00
00
00
00
ENDCHAR
STARTCHAR CyCapOmegaOrnate
ENCODING 1299
SWIDTH 480 0
DWIDTH 8 0
BBX 8 16 0 -4
BITMAP
78
CE
30
54
C6
C6
C6
D6
D6
D6
D6
6C
00
00
00
00
ENDCHAR
STARTCHAR CySmlOmegaOrnate
ENCODING 1300
SWIDTH 480 0
DWIDTH 8 0
BBX 8 16 0 -4
BITMAP
78
CC
B6
90
00
6C
C6
D6
D6
D6
D6
6C
00
00
00
00
ENDCHAR
STARTCHAR CyCapGheDesc
ENCODING 1301
SWIDTH 480 0
DWIDTH 8 0
BBX 8 16 0 -4
BITMAP
00
00
7E
62
62
60
60
60
60
60
60
60
30
30
30
00
ENDCHAR
STARTCHAR CyCapZheDesc
ENCODING 1302
SWIDTH 480 0
DWIDTH 8 0
BBX 8 16 0 -4
BITMAP
00
00
D6
D6
D6
54
38
7C
D6
D6
D6
D6
03
03
02
00
ENDCHAR
STARTCHAR CyCapZeDesc
ENCODING 1303
SWIDTH 480 0
DWIDTH 8 0
BBX 8 16 0 -4
BITMAP
00
00
78
CC
06
0C
38
0C
06
06
CC
78
10
18
30
00
ENDCHAR
STARTCHAR CyCapKaDesc
ENCODING 1304
SWIDTH 480 0
DWIDTH 8 0
BBX 8 16 0 -4
BITMAP
00
00
C6
C4
CC
C8
D8
F8
D8
CC
CC
C6
06
06
04
00
ENDCHAR
STARTCHAR CyCapElDesc
ENCODING 1305
SWIDTH 480 0
DWIDTH 8 0
BBX 8 16 0 -4
BITMAP
00
00
3E
26
26
26
26
26
26
26
E6
C6
03
03
02
00
ENDCHAR
STARTCHAR CyCapEnDesc
ENCODING 1306
SWIDTH 480 0
DWIDTH 8 0
BBX 8 16 0 -4
BITMAP
00
00
C6
C6
C6
C6
FE
C6
C6
C6
C6
C6
03
03
02
00
ENDCHAR
STARTCHAR CyCapPeDesc
ENCODING 1307
SWIDTH 480 0
DWIDTH 8 0
BBX 8 16 0 -4
BITMAP
00
00
FE
C6
C6
C6
C6
C6
C6
C6
C6
C6
03
03
02
00
ENDCHAR
STARTCHAR CyCapEsDesc
ENCODING 1308
SWIDTH 480 0
DWIDTH 8 0
BBX 8 16 0 -4
BITMAP
00
00
3C
66
C0
C0
C0
C0
C0
C0
66
3C
10
18
30
00
ENDCHAR
STARTCHAR CyCapTeDesc
ENCODING 1309
SWIDTH 480 0
DWIDTH 8 0
BBX 8 16 0 -4
BITMAP
00
00
FF
99
18
18
18
18
18
18
18
18
0C
0C
0C
00
ENDCHAR
STARTCHAR CyCapHaDesc
ENCODING 1310
SWIDTH 480 0
DWIDTH 8 0
BBX 8 16 0 -4
BITMAP
00
00
C6
C6
64
68
38
38
2C
4C
C6
C6
03
03
02
00
ENDCHAR
STARTCHAR CyCapCheDesc
ENCODING 1311
SWIDTH 480 0
DWIDTH 8 0
BBX 8 16 0 -4
BITMAP
00
00
C6
C6
C6
C6
C6
7E
06
06
06
06
03
03
02
00
ENDCHAR
STARTCHAR CyCapCheKhks
ENCODING 1312
SWIDTH 480 0
DWIDTH 8 0
BBX 8 16 0 -4
BITMAP
00
00
C6
C6
C6
C6
C6
7E
06
06
06
06
0C
0C
0C
00
ENDCHAR
STARTCHAR CyCapCheAbkhDesc
ENCODING 1313
SWIDTH 480 0
DWIDTH 8 0
BBX 8 16 0 -4
BITMAP
00
00
4E
D6
B6
B6
7E
30
30
30
1A
0E
0C
0C
0C
00
ENDCHAR
STARTCHAR CyCapShhaDesc
ENCODING 1314
SWIDTH 480 0
DWIDTH 8 0
BBX 8 16 0 -4
BITMAP
00
00
C0
C0
C0
C0
FC
C6
C6
C6
C6
C6
03
03
02
00
ENDCHAR
STARTCHAR CyCapDzjeKomi
ENCODING 1315
SWIDTH 480 0
DWIDTH 8 0
BBX 8 16 0 -4
BITMAP
00
00
78
CC
0C
0C
38
0C
0C
0C
0C
0E
06
06
06
00
ENDCHAR
STARTCHAR CySmlGheDesc
ENCODING 1316
SWIDTH 480 0
DWIDTH 8 0
BBX 8 16 0 -4
BITMAP
00
00
00
00
00
7E
62
62
60
60
60
60
30
30
30
00
ENDCHAR
STARTCHAR CySmlZheDesc
ENCODING 1317
SWIDTH 480 0
DWIDTH 8 0
BBX 8 16 0 -4
BITMAP
00
00
00
00
00
D6
D6
54
38
D6
D6
D6
03
03
02
00
ENDCHAR
STARTCHAR CySmlZeDesc
ENCODING 1318
SWIDTH 480 0
DWIDTH 8 0
BBX 8 16 0 -4
BITMAP
00
00
00
00
00
7C
C6
06
1C
06
C6
7C
10
18
30
00
ENDCHAR
STARTCHAR CySmlKaDesc
ENCODING 1319
SWIDTH 480 0
DWIDTH 8 0
BBX 8 16 0 -4
BITMAP
00
00
00
00
00
C6
C4
D8
F8
CC
C6
C6
06
06
04
00
ENDCHAR
STARTCHAR CySmlElDesc
ENCODING 1320
SWIDTH 480 0
DWIDTH 8 0
BBX 8 16 0 -4
BITMAP
00
00
00
00
00
3E
26
26
26
26
E6
C6
03
03
02
00
ENDCHAR
STARTCHAR CySmlEnDesc
ENCODING 1321
SWIDTH 480 0
DWIDTH 8 0
BBX 8 16 0 -4
BITMAP
00
00
00
00
00
C6
C6
C6
FE
C6
C6
C6
03
03
02
00
ENDCHAR
STARTCHAR CySmlPeDesc
ENCODING 1322
SWIDTH 480 0
DWIDTH 8 0
BBX 8 16 0 -4
BITMAP
00
00
00
00
00
FE
C6
C6
C6
C6
C6
C6
03
03
02
00
ENDCHAR
STARTCHAR CySmlEsDesc
ENCODING 1323
SWIDTH 480 0
DWIDTH 8 0
BBX 8 16 0 -4
BITMAP
00
00
00
00
00
3C
66
C0
C0
C0
66
3C
10
18
30
00
ENDCHAR
STARTCHAR CySmlTeDesc
ENCODING 1324
SWIDTH 480 0
DWIDTH 8 0
BBX 8 16 0 -4
BITMAP
00
00
00
00
00
FF
99
18
18
18
18
18
0C
0C
0C
00
ENDCHAR
STARTCHAR CySmlHaDesc
ENCODING 1325
SWIDTH 480 0
DWIDTH 8 0
BBX 8 16 0 -4
BITMAP
00
00
00
00
00
C6
E6
68
38
2C
CE
C6
03
03
02
00
ENDCHAR
STARTCHAR CySmlCheDesc
ENCODING 1326
SWIDTH 480 0
DWIDTH 8 0
BBX 8 16 0 -4
BITMAP
00
00
00
00
00
C6
C6
C6
7E
06
06
06
03
03
02
00
ENDCHAR
STARTCHAR CySmlCheKhks
ENCODING 1327
SWIDTH 480 0
DWIDTH 8 0
BBX 8 16 0 -4
BITMAP
00
00
00
00
00
C6
C6
C6
7E
06
06
06
0C
0C
0C
00
ENDCHAR
STARTCHAR CySmlCheAbkhDesc
ENCODING 1328
SWIDTH 480 0
DWIDTH 8 0
BBX 8 16 0 -4
BITMAP
00
00
00
00
00
4E
D6
B6
FE
30
1A
0E
0C
0C
0C
00
ENDCHAR
STARTCHAR CySmlShhaDesc
ENCODING 1329
SWIDTH 480 0
DWIDTH 8 0
BBX 8 16 0 -4
BITMAP
00
00
C0
C0
C0
DC
E6
C6
C6
C6
C6
C6
03
03
02
00
ENDCHAR
STARTCHAR CySmlDzjeKomi
ENCODING 1330
SWIDTH 480 0
DWIDTH 8 0
BBX 8 16 0 -4
BITMAP
00
00
00
00
00
78
CC
0C
38
0C
0C
0E
06
06
06
00
ENDCHAR
STARTCHAR CyCapElTail
ENCODING 1331
SWIDTH 480 0
DWIDTH 8 0
BBX 8 16 0 -4
BITMAP
00
00
3E
26
26
26
26
26
26
26
E6
CE
03
06
0C
00
ENDCHAR
STARTCHAR CyCapEmTail
ENCODING 1332
SWIDTH 480 0
DWIDTH 8 0
BBX 8 16 0 -4
BITMAP
00
00
C6
C6
EE
EE
FE
B6
B6
86
86
8E
03
06
0C
00
ENDCHAR
STARTCHAR CyCapEnTail
ENCODING 1333
SWIDTH 480 0
DWIDTH 8 0
BBX 8 16 0 -4
BITMAP
00
00
C6
C6
C6
C6
FE
C6
C6
C6
C6
CE
03
06
0C
00
ENDCHAR
STARTCHAR CyCapIBreveTail
ENCODING 1334
SWIDTH 480 0
DWIDTH 8 0
BBX 8 16 0 -4
BITMAP
6C
7C
00
C6
C6
CE
CE
D6
E6
E6
C6
CE
03
06
0C
00
ENDCHAR
STARTCHAR CySmlElTail
ENCODING 1335
SWIDTH 480 0
DWIDTH 8 0
BBX 8 16 0 -4
BITMAP
00
00
00
00
00
3E
26
26
26
26
E6
CE
03
06
0C
00
ENDCHAR
STARTCHAR CySmlEmTail
ENCODING 1336
SWIDTH 480 0
DWIDTH 8 0
BBX 8 16 0 -4
BITMAP
00
00
00
00
00
C6
C6
EE
EE
B6
A6
8E
03
06
0C
00
ENDCHAR
STARTCHAR CySmlEnTail
ENCODING 1337
SWIDTH 480 0
DWIDTH 8 0
BBX 8 16 0 -4
BITMAP
00
00
00
00
00
C6
C6
C6
FE
C6
C6
CE
03
06
0C
00
ENDCHAR
STARTCHAR CySmlIBreveTail
ENCODING 1338
SWIDTH 480 0
DWIDTH 8 0
BBX 8 16 0 -4
BITMAP
00
00
6C
7C
00
C6
CE
CE
D6
E6
E6
CE
03
06
0C
00
ENDCHAR
STARTCHAR HbAlef
ENCODING 1339
SWIDTH 480 0
DWIDTH 8 0
BBX 8 16 0 -4
BITMAP
00
00
00
00
8C
CE
E6
7C
DC
CE
E6
E2
00
00
00
00
ENDCHAR
STARTCHAR HbBet
ENCODING 1340
SWIDTH 480 0
DWIDTH 8 0
BBX 8 16 0 -4
BITMAP
00
00
00
00
F8
FC
0C
0C
0C
0C
FE
FE
00
00
00
00
ENDCHAR
STARTCHAR HbGimel
ENCODING 1341
SWIDTH 480 0
DWIDTH 8 0
BBX 8 16 0 -4
BITMAP
00
00
00
00
70
78
18
18
18
38
7C
4C
00
00
00
00
ENDCHAR
STARTCHAR HbDalet
ENCODING 1342
SWIDTH 480 0
DWIDTH 8 0
BBX 8 16 0 -4
BITMAP
00
00
00
00
FE
FE
0C
0C
0C
0C
0C
0C
00
00
00
00
ENDCHAR
STARTCHAR HbHe
ENCODING 1343
SWIDTH 480 0
DWIDTH 8 0
BBX 8 16 0 -4
BITMAP
00
00
00
00
FE
FE
06
66
66
66
66
66
00
00
00
00
ENDCHAR
STARTCHAR HbVav
ENCODING 1344
SWIDTH 480 0
DWIDTH 8 0
BBX 8 16 0 -4
BITMAP
00
00
00
00
38
38
18
18
18
18
18
18
00
00
00
00
ENDCHAR
STARTCHAR HbZayin
ENCODING 1345
SWIDTH 480 0
DWIDTH 8 0
BBX 8 16 0 -4
BITMAP
00
00
00
00
7E
7E
18
18
18
18
18
18
00
00
00
00
ENDCHAR
STARTCHAR HbHet
ENCODING 1346
SWIDTH 480 0
DWIDTH 8 0
BBX 8 16 0 -4
BITMAP
00
00
00
00
FE
FE
66
66
66
66
66
66
00
00
00
00
ENDCHAR
STARTCHAR HbTet
ENCODING 1347
SWIDTH 480 0
DWIDTH 8 0
BBX 8 16 0 -4
BITMAP
00
00
00
00
CE
CE
C6
C6
C6
CC
FC
F8
00
00
00
00
ENDCHAR
STARTCHAR HbYod
ENCODING 1348
SWIDTH 480 0
DWIDTH 8 0
BBX 8 16 0 -4
BITMAP
00
00
00
00
38
38
18
18
00
00
00
00
00
00
00
00
ENDCHAR
STARTCHAR HbKaf
ENCODING 1349
SWIDTH 480 0
DWIDTH 8 0
BBX 8 16 0 -4
BITMAP
00
00
00
00
F8
FC
06
06
06
06
FC
F8
00
00
00
00
ENDCHAR
STARTCHAR HbKafTrm
ENCODING 1350
SWIDTH 480 0
DWIDTH 8 0
BBX 8 16 0 -4
BITMAP
00
00
00
00
FE
FE
06
06
06
06
06
06
06
06
06
00
ENDCHAR
STARTCHAR HbLamed
ENCODING 1351
SWIDTH 480 0
DWIDTH 8 0
BBX 8 16 0 -4
BITMAP
00
C0
C0
C0
FC
FE
06
06
06
0C
18
18
00
00
00
00
ENDCHAR
STARTCHAR HbMem
ENCODING 1352
SWIDTH 480 0
DWIDTH 8 0
BBX 8 16 0 -4
BITMAP
00
00
00
00
CC
DE
76
66
C6
C6
DE
DE
00
00
00
00
ENDCHAR
STARTCHAR HbMemTrm
ENCODING 1353
SWIDTH 480 0
DWIDTH 8 0
BBX 8 16 0 -4
BITMAP
00
00
00
00
FE
FE
66
66
66
66
7E
7E
00
00
00
00
ENDCHAR
STARTCHAR HbNun
ENCODING 1354
SWIDTH 480 0
DWIDTH 8 0
BBX 8 16 0 -4
BITMAP
00
00
00
00
1C
1C
0C
0C
0C
0C
7C
7C
00
00
00
00
ENDCHAR
STARTCHAR HbNunTrm
ENCODING 1355
SWIDTH 480 0
DWIDTH 8 0
BBX 8 16 0 -4
BITMAP
00
00
00
00
38
38
18
18
18
18
18
18
18
18
18
00
ENDCHAR
STARTCHAR HbSamekh
ENCODING 1356
SWIDTH 480 0
DWIDTH 8 0
BBX 8 16 0 -4
BITMAP
00
00
00
00
FC
FC
46
C6
C6
C6
7C
38
00
00
00
00
ENDCHAR
STARTCHAR HbAyin
ENCODING 1357
SWIDTH 480 0
DWIDTH 8 0
BBX 8 16 0 -4
BITMAP
00
00
00
00
EE
66
36
36
1E
1C
F8
E0
00
00
00
00
ENDCHAR
STARTCHAR HbPe
ENCODING 1358
SWIDTH 480 0
DWIDTH 8 0
BBX 8 16 0 -4
BITMAP
00
00
00
00
FC
FE
66
76
76
06
FE
FC
00
00
00
00
ENDCHAR
STARTCHAR HbPeTrm
ENCODING 1359
SWIDTH 480 0
DWIDTH 8 0
BBX 8 16 0 -4
BITMAP
00
00
00
00
FC
FE
66
76
76
06
06
06
06
06
06
00
ENDCHAR
STARTCHAR HbTsadi
ENCODING 1360
SWIDTH 480 0
DWIDTH 8 0
BBX 8 16 0 -4
BITMAP
00
00
00
00
C6
C6
6C
3C
18
0C
FE
FE
00
00
00
00
ENDCHAR
STARTCHAR HbTsadiTrm
ENCODING 1361
SWIDTH 480 0
DWIDTH 8 0
BBX 8 16 0 -4
BITMAP
00
00
00
00
E6
66
6C
78
70
60
60
60
60
60
60
00
ENDCHAR
STARTCHAR HbQof
ENCODING 1362
SWIDTH 480 0
DWIDTH 8 0
BBX 8 16 0 -4
BITMAP
00
00
00
00
FC
FE
06
C6
C6
CC
D8
D0
C0
C0
C0
00
ENDCHAR
STARTCHAR HbResh
ENCODING 1363
SWIDTH 480 0
DWIDTH 8 0
BBX 8 16 0 -4
BITMAP
00
00
00
00
FC
FE
06
06
06
06
06
06
00
00
00
00
ENDCHAR
STARTCHAR HbShin
ENCODING 1364
SWIDTH 480 0
DWIDTH 8 0
BBX 8 16 0 -4
BITMAP
00
00
00
00
D6
D6
D6
D6
F6
C6
FC
F8
00
00
00
00
ENDCHAR
STARTCHAR HbTav
ENCODING 1365
SWIDTH 480 0
DWIDTH 8 0
BBX 8 16 0 -4
BITMAP
00
00
00
00
FC
FE
66
66
66
66
E6
E6
00
00
00
00
ENDCHAR
STARTCHAR HbAlefLamed
ENCODING 1366
SWIDTH 480 0
DWIDTH 8 0
BBX 8 16 0 -4
BITMAP
00
C0
C0
C0
8C
C6
6C
3C
18
0C
06
06
00
00
00
00
ENDCHAR
STARTCHAR HbVavVav
ENCODING 1367
SWIDTH 480 0
DWIDTH 8 0
BBX 8 16 0 -4
BITMAP
00
00
00
00
EE
EE
66
66
66
66
66
66
00
00
00
00
ENDCHAR
STARTCHAR HbVavYod
ENCODING 1368
SWIDTH 480 0
DWIDTH 8 0
BBX 8 16 0 -4
BITMAP
00
00
00
00
EE
EE
66
66
06
06
06
06
00
00
00
00
ENDCHAR
STARTCHAR HbYodYod
ENCODING 1369
SWIDTH 480 0
DWIDTH 8 0
BBX 8 16 0 -4
BITMAP
00
00
00
00
EE
EE
66
66
00
00
00
00
00
00
00
00
ENDCHAR
STARTCHAR HbShinDotShin
ENCODING 1370
SWIDTH 480 0
DWIDTH 8 0
BBX 8 16 0 -4
BITMAP
00
02
02
00
D6
D6
D6
D6
F6
C6
FC
F8
00
00
00
00
ENDCHAR
STARTCHAR HbShinDotSin
ENCODING 1371
SWIDTH 480 0
DWIDTH 8 0
BBX 8 16 0 -4
BITMAP
00
80
80
00
D6
D6
D6
D6
F6
C6
FC
F8
00
00
00
00
ENDCHAR
STARTCHAR HbYodHiriq
ENCODING 1372
SWIDTH 480 0
DWIDTH 8 0
BBX 8 16 0 -4
BITMAP
00
00
00
00
38
38
18
18
00
18
00
00
00
00
00
00
ENDCHAR
STARTCHAR HbAlefPatah
ENCODING 1373
SWIDTH 480 0
DWIDTH 8 0
BBX 8 16 0 -4
BITMAP
00
00
00
00
8C
CE
E6
7C
DC
CE
E6
E2
00
7C
00
00
ENDCHAR
STARTCHAR HbYodYodPatah
ENCODING 1374
SWIDTH 480 0
DWIDTH 8 0
BBX 8 16 0 -4
BITMAP
00
00
00
00
EE
EE
66
66
00
7E
00
00
00
00
00
00
ENDCHAR
STARTCHAR HbAlefQamats
ENCODING 1375
SWIDTH 480 0
DWIDTH 8 0
BBX 8 16 0 -4
BITMAP
00
00
00
00
8C
CE
E6
7C
DC
CE
E6
E2
00
7C
10
10
ENDCHAR
STARTCHAR HbAlefMapiq
ENCODING 1376
SWIDTH 480 0
DWIDTH 8 0
BBX 8 16 0 -4
BITMAP
00
00
00
00
8C
CE
E6
7C
DC
CE
D6
D2
00
00
00
00
ENDCHAR
STARTCHAR HbBetDagesh
ENCODING 1377
SWIDTH 480 0
DWIDTH 8 0
BBX 8 16 0 -4
BITMAP
00
00
00
00
F8
FC
0C
2C
2C
0C
FE
FE
00
00
00
00
ENDCHAR
STARTCHAR HbGimelDagesh
ENCODING 1378
SWIDTH 480 0
DWIDTH 8 0
BBX 8 16 0 -4
BITMAP
00
00
00
00
70
78
18
58
58
38
7C
4C
00
00
00
00
ENDCHAR
STARTCHAR HbDaletDagesh
ENCODING 1379
SWIDTH 480 0
DWIDTH 8 0
BBX 8 16 0 -4
BITMAP
00
00
00
00
FE
FE
0C
2C
2C
0C
0C
0C
00
00
00
00
ENDCHAR
STARTCHAR HbHeMapiq
ENCODING 1380
SWIDTH 480 0
DWIDTH 8 0
BBX 8 16 0 -4
BITMAP
00
00
00
00
FE
FE
02
6A
6A
62
62
62
00
00
00
00
ENDCHAR
STARTCHAR HbVavDagesh
ENCODING 1381
SWIDTH 480 0
DWIDTH 8 0
BBX 8 16 0 -4
BITMAP
00
00
00
00
1C
1C
0C
2C
2C
0C
0C
0C
00
00
00
00
ENDCHAR
STARTCHAR HbZayinDagesh
ENCODING 1382
SWIDTH 480 0
DWIDTH 8 0
BBX 8 16 0 -4
BITMAP
00
00
00
00
7E
7E
18
58
58
18
18
18
00
00
00
00
ENDCHAR
STARTCHAR HbTetDagesh
ENCODING 1383
SWIDTH 480 0
DWIDTH 8 0
BBX 8 16 0 -4
BITMAP
00
00
00
00
CE
CE
C6
D6
D6
CC
FC
F8
00
00
00
00
ENDCHAR
STARTCHAR HbYodDagesh
ENCODING 1384
SWIDTH 480 0
DWIDTH 8 0
BBX 8 16 0 -4
BITMAP
00
00
00
00
1C
1C
2C
2C
00
00
00
00
00
00
00
00
ENDCHAR
STARTCHAR HbKafDagesh
ENCODING 1385
SWIDTH 480 0
DWIDTH 8 0
BBX 8 16 0 -4
BITMAP
00
00
00
00
F8
FC
06
26
26
06
FC
F8
00
00
00
00
ENDCHAR
STARTCHAR HbKafTrmDagesh
ENCODING 1386
SWIDTH 480 0
DWIDTH 8 0
BBX 8 16 0 -4
BITMAP
00
00
00
00
FE
FE
06
26
26
06
06
06
06
06
06
00
ENDCHAR
STARTCHAR HbLamedDagesh
ENCODING 1387
SWIDTH 480 0
DWIDTH 8 0
BBX 8 16 0 -4
BITMAP
00
C0
C0
C0
FC
FE
06
26
26
0C
18
18
00
00
00
00
ENDCHAR
STARTCHAR HbMemDagesh
ENCODING 1388
SWIDTH 480 0
DWIDTH 8 0
BBX 8 16 0 -4
BITMAP
00
00
00
00
CC
DE
72
6A
CA
C2
DE
DE
00
00
00
00
ENDCHAR
STARTCHAR HbNunDagesh
ENCODING 1389
SWIDTH 480 0
DWIDTH 8 0
BBX 8 16 0 -4
BITMAP
00
00
00
00
1C
1C
0C
2C
2C
0C
7C
7C
00
00
00
00
ENDCHAR
STARTCHAR HbSamekhDagesh
ENCODING 1390
SWIDTH 480 0
DWIDTH 8 0
BBX 8 16 0 -4
BITMAP
00
00
00
00
FC
FC
46
D6
D6
C6
7C
38
00
00
00
00
ENDCHAR
STARTCHAR HbPeDagesh
ENCODING 1391
SWIDTH 480 0
DWIDTH 8 0
BBX 8 16 0 -4
BITMAP
00
00
00
00
FC
FE
C6
D6
D6
06
FE
FC
00
00
00
00
ENDCHAR
STARTCHAR HbPeTrmDagesh
ENCODING 1392
SWIDTH 480 0
DWIDTH 8 0
BBX 8 16 0 -4
BITMAP
00
00
00
00
FC
FE
C6
D6
D6
06
06
06
06
06
06
00
ENDCHAR
STARTCHAR HbTsadiDagesh
ENCODING 1393
SWIDTH 480 0
DWIDTH 8 0
BBX 8 16 0 -4
BITMAP
00
00
00
00
C6
C6
6C
BC
98
0C
FE
FE
00
00
00
00
ENDCHAR
STARTCHAR HbQofDagesh
ENCODING 1394
SWIDTH 480 0
DWIDTH 8 0
BBX 8 16 0 -4
BITMAP
00
00
00
00
FC
FE
06
D6
D6
CC
D8
D0
C0
C0
C0
00
ENDCHAR
STARTCHAR HbReshDagesh
ENCODING 1395
SWIDTH 480 0
DWIDTH 8 0
BBX 8 16 0 -4
BITMAP
00
00
00
00
FC
FE
06
26
26
06
06
06
00
00
00
00
ENDCHAR
STARTCHAR HbShinDagesh
ENCODING 1396
SWIDTH 480 0
DWIDTH 8 0
BBX 8 16 0 -4
BITMAP
00
00
00
00
D2
D2
D6
D6
F2
C6
FC
F8
00
00
00
00
ENDCHAR
STARTCHAR HbShinDotShinDagesh
ENCODING 1397
SWIDTH 480 0
DWIDTH 8 0
BBX 8 16 0 -4
BITMAP
00
02
02
00
D2
D2
D6
D6
F2
C6
FC
F8
00
00
00
00
ENDCHAR
STARTCHAR HbShinDotSinDagesh
ENCODING 1398
SWIDTH 480 0
DWIDTH 8 0
BBX 8 16 0 -4
BITMAP
00
80
80
00
D2
D2
D6
D6
F2
C6
FC
F8
00
00
00
00
ENDCHAR
STARTCHAR HbTavDagesh
ENCODING 1399
SWIDTH 480 0
DWIDTH 8 0
BBX 8 16 0 -4
BITMAP
00
00
00
00
FC
FE
46
56
56
46
C6
C6
00
00
00
00
ENDCHAR
STARTCHAR HbVavHolam
ENCODING 1400
SWIDTH 480 0
DWIDTH 8 0
BBX 8 16 0 -4
BITMAP
00
20
20
00
38
38
18
18
18
18
18
18
00
00
00
00
ENDCHAR
STARTCHAR HbBetRafe
ENCODING 1401
SWIDTH 480 0
DWIDTH 8 0
BBX 8 16 0 -4
BITMAP
00
00
78
00
F8
FC
0C
0C
0C
0C
FE
FE
00
00
00
00
ENDCHAR
STARTCHAR HbKafRafe
ENCODING 1402
SWIDTH 480 0
DWIDTH 8 0
BBX 8 16 0 -4
BITMAP
00
00
78
00
F8
FC
06
06
06
06
FC
F8
00
00
00
00
ENDCHAR
STARTCHAR HbPeRafe
ENCODING 1403
SWIDTH 480 0
DWIDTH 8 0
BBX 8 16 0 -4
BITMAP
00
00
78
00
FC
FE
66
76
76
06
FE
FC
00
00
00
00
ENDCHAR
STARTCHAR GeAn
ENCODING 1404
SWIDTH 480 0
DWIDTH 8 0
BBX 8 16 0 -4
BITMAP
00
00
00
00
00
10
18
0C
06
C6
C6
7C
00
00
00
00
ENDCHAR
STARTCHAR GeBan
ENCODING 1405
SWIDTH 480 0
DWIDTH 8 0
BBX 8 16 0 -4
BITMAP
00
00
40
70
18
18
7C
C6
C6
C6
C6
7C
00
00
00
00
ENDCHAR
STARTCHAR GeGan
ENCODING 1406
SWIDTH 480 0
DWIDTH 8 0
BBX 8 16 0 -4
BITMAP
00
00
00
00
00
00
F0
98
18
18
7C
C6
C6
C6
C6
7C
ENDCHAR
STARTCHAR GeDon
ENCODING 1407
SWIDTH 480 0
DWIDTH 8 0
BBX 8 16 0 -4
BITMAP
00
00
00
00
00
00
7C
C6
C6
C6
C6
FC
60
F8
8C
06
ENDCHAR
STARTCHAR GeEn
ENCODING 1408
SWIDTH 480 0
DWIDTH 8 0
BBX 8 16 0 -4
BITMAP
00
00
00
00
00
00
3C
66
66
06
06
06
06
C6
C6
7C
ENDCHAR
STARTCHAR GeVin
ENCODING 1409
SWIDTH 480 0
DWIDTH 8 0
BBX 8 16 0 -4
BITMAP
00
00
00
00
00
00
3C
66
66
06
1C
06
06
C6
C6
7C
ENDCHAR
STARTCHAR GeZen
ENCODING 1410
SWIDTH 480 0
DWIDTH 8 0
BBX 8 16 0 -4
BITMAP
00
00
78
CC
CC
78
30
7C
C6
C6
C6
7C
00
00
00
00
ENDCHAR
STARTCHAR GeTan
ENCODING 1411
SWIDTH 480 0
DWIDTH 8 0
BBX 8 16 0 -4
BITMAP
00
00
00
00
00
00
6C
FE
92
92
F6
64
00
00
00
00
ENDCHAR
STARTCHAR GeIn
ENCODING 1412
SWIDTH 480 0
DWIDTH 8 0
BBX 8 16 0 -4
BITMAP
00
00
00
00
00
00
7C
C6
C6
C6
C6
44
00
00
00
00
ENDCHAR
STARTCHAR GeKan
ENCODING 1413
SWIDTH 480 0
DWIDTH 8 0
BBX 8 16 0 -4
BITMAP
00
00
00
00
00
00
04
06
06
06
1C
06
06
C6
C6
7C
ENDCHAR
STARTCHAR GeLas
ENCODING 1414
SWIDTH 480 0
DWIDTH 8 0
BBX 8 16 0 -4
BITMAP
00
00
00
00
00
00
7C
C6
C6
C6
C6
C4
60
78
CC
06
ENDCHAR
STARTCHAR GeMan
ENCODING 1415
SWIDTH 480 0
DWIDTH 8 0
BBX 8 16 0 -4
BITMAP
00
00
3C
66
06
06
76
CE
C6
C6
C6
7C
00
00
00
00
ENDCHAR
STARTCHAR GeNar
ENCODING 1416
SWIDTH 480 0
DWIDTH 8 0
BBX 8 16 0 -4
BITMAP
00
00
7C
C0
C0
C0
DC
E6
C6
C6
C6
7C
00
00
00
00
ENDCHAR
STARTCHAR GeOn
ENCODING 1417
SWIDTH 480 0
DWIDTH 8 0
BBX 8 16 0 -4
BITMAP
00
00
00
00
00
00
6C
D6
D6
D6
C6
44
00
00
00
00
ENDCHAR
STARTCHAR GePar
ENCODING 1418
SWIDTH 480 0
DWIDTH 8 0
BBX 8 16 0 -4
BITMAP
00
00
20
30
1C
06
06
1C
0E
C6
C6
7C
00
00
00
00
ENDCHAR
STARTCHAR GeZhar
ENCODING 1419
SWIDTH 480 0
DWIDTH 8 0
BBX 8 16 0 -4
BITMAP
00
00
00
00
00
00
06
3E
9E
D6
76
06
06
66
66
3C
ENDCHAR
STARTCHAR GeRae
ENCODING 1420
SWIDTH 480 0
DWIDTH 8 0
BBX 8 16 0 -4
BITMAP
00
00
0C
18
70
C0
EC
D6
D6
D6
C6
44
00
00
00
00
ENDCHAR
STARTCHAR GeSan
ENCODING 1421
SWIDTH 480 0
DWIDTH 8 0
BBX 8 16 0 -4
BITMAP
00
00
C0
C0
C0
C0
CE
D8
CC
C6
C6
7C
00
00
00
00
ENDCHAR
STARTCHAR GeTar
ENCODING 1422
SWIDTH 480 0
DWIDTH 8 0
BBX 8 16 0 -4
BITMAP
00
00
00
00
00
10
28
38
6C
D6
C6
C6
C6
C6
6C
38
ENDCHAR
STARTCHAR GeUn
ENCODING 1423
SWIDTH 480 0
DWIDTH 8 0
BBX 8 16 0 -4
BITMAP
00
00
00
00
00
00
DC
F6
36
36
06
06
06
C6
C6
7C
ENDCHAR
STARTCHAR GePhar
ENCODING 1424
SWIDTH 480 0
DWIDTH 8 0
BBX 8 16 0 -4
BITMAP
00
00
00
00
00
00
6C
FE
92
92
F6
6C
06
06
66
3C
ENDCHAR
STARTCHAR GeKhar
ENCODING 1425
SWIDTH 480 0
DWIDTH 8 0
BBX 8 16 0 -4
BITMAP
00
00
02
06
06
06
06
1E
7E
46
06
06
06
C6
C6
7C
ENDCHAR
STARTCHAR GeGhan
ENCODING 1426
SWIDTH 480 0
DWIDTH 8 0
BBX 8 16 0 -4
BITMAP
00
00
00
00
00
00
6C
D6
D6
D6
C6
C4
60
78
CC
06
ENDCHAR
STARTCHAR GeQar
ENCODING 1427
SWIDTH 480 0
DWIDTH 8 0
BBX 8 16 0 -4
BITMAP
00
00
00
00
00
00
46
C6
C6
4E
3E
06
46
C6
C6
7C
ENDCHAR
STARTCHAR GeShin
ENCODING 1428
SWIDTH 480 0
DWIDTH 8 0
BBX 8 16 0 -4
BITMAP
00
00
6C
FE
D6
06
76
CE
C6
C6
C6
7C
00
00
00
00
ENDCHAR
STARTCHAR GeChin
ENCODING 1429
SWIDTH 480 0
DWIDTH 8 0
BBX 8 16 0 -4
BITMAP
00
00
78
CC
F8
C0
F8
E4
C6
C6
C6
C4
00
00
00
00
ENDCHAR
STARTCHAR GeCan
ENCODING 1430
SWIDTH 480 0
DWIDTH 8 0
BBX 8 16 0 -4
BITMAP
00
00
00
00
00
00
68
CC
C6
C6
CC
C6
C6
C6
6C
38
ENDCHAR
STARTCHAR GeJil
ENCODING 1431
SWIDTH 480 0
DWIDTH 8 0
BBX 8 16 0 -4
BITMAP
00
00
04
06
06
06
76
CE
C6
C6
C6
7C
00
00
00
00
ENDCHAR
STARTCHAR GeCil
ENCODING 1432
SWIDTH 480 0
DWIDTH 8 0
BBX 8 16 0 -4
BITMAP
00
00
6C
FE
D6
C4
C0
7E
66
64
34
34
38
18
18
18
ENDCHAR
STARTCHAR GeChar
ENCODING 1433
SWIDTH 480 0
DWIDTH 8 0
BBX 8 16 0 -4
BITMAP
00
00
30
30
18
0C
0C
6E
DC
6E
0C
0C
0C
CC
CC
78
ENDCHAR
STARTCHAR GeXan
ENCODING 1434
SWIDTH 480 0
DWIDTH 8 0
BBX 8 16 0 -4
BITMAP
00
00
80
CC
C8
D0
FC
E6
C6
C6
C6
7C
00
00
00
00
ENDCHAR
STARTCHAR GeJhan
ENCODING 1435
SWIDTH 480 0
DWIDTH 8 0
BBX 8 16 0 -4
BITMAP
00
00
00
00
00
00
C6
AC
38
38
6A
C6
60
30
E0
00
ENDCHAR
STARTCHAR GeHae
ENCODING 1436
SWIDTH 480 0
DWIDTH 8 0
BBX 8 16 0 -4
BITMAP
00
00
30
1C
06
1C
06
1C
0C
C6
C6
7C
00
00
00
00
ENDCHAR
STARTCHAR GeHe
ENCODING 1437
SWIDTH 480 0
DWIDTH 8 0
BBX 8 16 0 -4
BITMAP
00
00
50
D0
CC
C6
DC
C6
DC
C6
6C
38
00
00
00
00
ENDCHAR
STARTCHAR GeHie
ENCODING 1438
SWIDTH 480 0
DWIDTH 8 0
BBX 8 16 0 -4
BITMAP
00
00
00
00
00
00
7C
C6
C6
C6
6C
38
6C
C6
00
00
ENDCHAR
STARTCHAR GeWe
ENCODING 1439
SWIDTH 480 0
DWIDTH 8 0
BBX 8 16 0 -4
BITMAP
00
00
00
00
00
00
7E
46
0C
18
3C
06
06
C6
C6
7C
ENDCHAR
STARTCHAR GeHar
ENCODING 1440
SWIDTH 480 0
DWIDTH 8 0
BBX 8 16 0 -4
BITMAP
00
00
18
30
30
30
1E
06
0C
18
3C
06
06
C6
C6
7C
ENDCHAR
STARTCHAR GeHoe
ENCODING 1441
SWIDTH 480 0
DWIDTH 8 0
BBX 8 16 0 -4
BITMAP
00
00
78
CC
CC
7E
0C
7E
CC
CC
CC
78
00
00
00
00
ENDCHAR
STARTCHAR GeFi
ENCODING 1442
SWIDTH 480 0
DWIDTH 8 0
BBX 8 16 0 -4
BITMAP
00
00
00
00
00
00
6C
FE
D6
D6
D6
5C
10
10
30
60
ENDCHAR
STARTCHAR GeYn
ENCODING 1443
SWIDTH 480 0
DWIDTH 8 0
BBX 8 16 0 -4
BITMAP
00
00
00
00
00
00
7C
C6
C6
0C
38
60
C0
C6
C6
7C
ENDCHAR
STARTCHAR GeElifi
ENCODING 1444
SWIDTH 480 0
DWIDTH 8 0
BBX 8 16 0 -4
BITMAP
00
00
00
00
00
00
C4
C6
C6
E4
F8
C0
C4
C6
C6
7C
ENDCHAR
STARTCHAR GeAin
ENCODING 1445
SWIDTH 480 0
DWIDTH 8 0
BBX 8 16 0 -4
BITMAP
00
00
00
00
00
00
3C
66
C0
C0
60
3C
60
00
00
00
ENDCHAR
STARTCHAR GeAen
ENCODING 1446
SWIDTH 480 0
DWIDTH 8 0
BBX 8 16 0 -4
BITMAP
00
00
38
6C
6C
60
38
1C
06
C6
C6
7C
00
00
00
00
ENDCHAR
STARTCHAR GeUo
ENCODING 1447
SWIDTH 480 0
DWIDTH 8 0
BBX 8 16 0 -4
BITMAP
00
00
00
00
00
00
76
DE
D8
D8
C0
C0
C0
C6
C6
7C
ENDCHAR
STARTCHAR GeHardSign
ENCODING 1448
SWIDTH 480 0
DWIDTH 8 0
BBX 8 16 0 -4
BITMAP
00
00
00
00
C6
EC
38
6C
C6
C6
C6
7C
00
00
00
00
ENDCHAR
STARTCHAR GeLabialSign
ENCODING 1449
SWIDTH 480 0
DWIDTH 8 0
BBX 8 16 0 -4
BITMAP
00
00
00
00
00
00
7C
C6
C6
C6
C6
7C
00
00
00
00
ENDCHAR
STARTCHAR GeGanTrnd
ENCODING 1450
SWIDTH 480 0
DWIDTH 8 0
BBX 8 16 0 -4
BITMAP
00
00
00
00
00
00
7C
C6
C6
C6
C6
7C
30
30
32
1E
ENDCHAR
ENDFONT
